<?xml version="1.0" encoding="UTF-8"?><svg id="Layer_1" xmlns="http://www.w3.org/2000/svg" xmlns:xlink="http://www.w3.org/1999/xlink" viewBox="0 0 168.04 168.04"><defs><style>.cls-1{fill:#af6c1c;}.cls-2{filter:url(#drop-shadow-1);}</style><filter id="drop-shadow-1" filterUnits="userSpaceOnUse"><feOffset dx="0" dy="0"/><feGaussianBlur result="blur" stdDeviation="1.22"/><feFlood flood-color="#aaa69b" flood-opacity=".75"/><feComposite in2="blur" operator="in"/><feComposite in="SourceGraphic"/></filter></defs><g class="cls-2"><g><path class="cls-1" d="M57.77,4.21C13.76,18.69-10.26,66.27,4.21,110.27c14.48,44,62.05,68.03,106.06,53.55,44-14.48,68.03-62.05,53.55-106.06C149.35,13.76,101.77-10.26,57.77,4.21Zm51.6,156.86c-42.49,13.98-88.43-9.22-102.4-51.71C-7.01,66.88,16.18,20.94,58.67,6.96c42.49-13.98,88.43,9.22,102.4,51.71,13.98,42.49-9.22,88.43-51.71,102.4Z"/><path class="cls-1" d="M59.55,9.64C18.54,23.13-3.85,67.47,9.64,108.49c13.49,41.01,57.83,63.4,98.84,49.91,41.01-13.49,63.4-57.83,49.91-98.85C144.91,18.54,100.56-3.85,59.55,9.64Zm48.71,148.07c-40.63,13.37-84.56-8.82-97.93-49.45C-3.04,67.63,19.15,23.69,59.78,10.33c40.63-13.37,84.57,8.82,97.93,49.45,13.37,40.63-8.82,84.57-49.45,97.93Z"/><g><g><path class="cls-1" d="M31.47,130.1l1.27-.27-1.3-.09c-.27-.02-.54-.04-.8-.06-.63-.09-1.21-.24-1.72-.44-.69-.28-1.22-.65-1.58-1.11-.25-.32-.17-.53-.08-.65,.04-.05,.18-.21,.71-.63l2.37-1.85h0c.28,.36,.55,.74,.81,1.13,.3,.46,.38,.71,.39,.84,.03,.31,0,.62-.09,.91l-.16,.55,2.69-2.11-.49-.02c-.22-.01-.4-.03-.55-.07-.15-.04-.32-.1-.53-.21-.14-.06-.3-.18-.48-.33-.18-.17-.41-.43-.69-.78-.1-.12-.17-.22-.23-.31-.02-.03-.04-.05-.06-.08l2.27-1.78c.14-.11,.28-.15,.43-.14,.14,.01,.28,.1,.41,.27,.31,.39,.52,.91,.64,1.53,.09,.44,.12,.91,.09,1.39l-.15,1.47,.43-.75c.14-.25,.26-.45,.37-.63,.11-.17,.24-.36,.39-.57,.15-.21,.29-.39,.4-.53,.12-.14,.26-.3,.41-.48l.22-.24-.32-.05c-.26-.04-.51-.14-.74-.28-.14-.09-.26-.17-.34-.26-.09-.09-.19-.2-.31-.34l-3.17-4.05,.18,.79c.02,.08,.02,.15,.02,.22,0,.06-.01,.12-.04,.18-.03,.12-.13,.25-.28,.36l-5.54,4.33c-.22,.17-.43,.31-.62,.41-.17,.09-.32,.14-.45,.14-.24,0-.47-.06-.69-.18l-.76-.41,3.67,4.69c.05,.06,.12,.17,.22,.3,.09,.12,.14,.23,.16,.32,.04,.19,.05,.37,.01,.53l-.06,.29,1.77-.52c.35-.09,.66-.17,.93-.24,.16-.04,.47-.11,.92-.2Z"/><path class="cls-1" d="M32.82,130.04s-.02,0-.02,0l-1.27,.27c-.45,.1-.76,.16-.91,.2-.28,.07-.58,.15-.93,.24l-1.77,.52c-.07,.02-.15,0-.21-.05-.06-.05-.08-.13-.07-.2l.06-.29c.03-.13,.02-.28-.01-.44,0-.03-.03-.11-.13-.24-.1-.14-.17-.24-.22-.3l-3.67-4.69c-.06-.08-.06-.19,0-.27,.06-.08,.18-.1,.27-.05l.76,.41c.19,.1,.38,.15,.59,.15,.09,0,.21-.04,.35-.11,.18-.1,.38-.23,.58-.39l5.54-4.33c.14-.11,.19-.2,.2-.25,.03-.07,.03-.1,.03-.13,0-.05,0-.11-.02-.17l-.18-.79c-.02-.1,.03-.2,.12-.24,.1-.04,.2-.02,.26,.06l3.17,4.05c.11,.14,.2,.24,.28,.32,.08,.07,.18,.15,.31,.23,.2,.13,.42,.21,.66,.25l.32,.05c.08,.01,.14,.07,.17,.14,.03,.07,0,.16-.04,.22l-.22,.24c-.15,.17-.29,.33-.41,.47-.12,.14-.25,.31-.39,.52-.15,.21-.27,.39-.38,.56-.11,.17-.23,.38-.37,.62l-.43,.75c-.05,.09-.16,.13-.25,.1-.1-.03-.16-.13-.15-.23l.15-1.47c.02-.46,0-.91-.09-1.33-.11-.59-.32-1.07-.6-1.43-.06-.08-.16-.18-.26-.19-.09,0-.18,.02-.28,.1l-2.11,1.65c.05,.06,.1,.13,.16,.21,.27,.35,.49,.6,.66,.76,.15,.14,.3,.24,.42,.29,.2,.1,.36,.16,.5,.19,.13,.03,.3,.05,.51,.06l.48,.02c.09,0,.17,.06,.2,.15s0,.18-.07,.24l-2.69,2.11c-.07,.06-.18,.06-.25,0-.08-.05-.11-.15-.09-.24l.16-.55c.08-.27,.11-.54,.08-.83,0-.07-.05-.28-.35-.74-.21-.32-.44-.63-.67-.94l-2.19,1.72c-.57,.45-.66,.56-.67,.58-.04,.06-.11,.17,.07,.4,.34,.43,.84,.78,1.49,1.04,.49,.19,1.05,.33,1.67,.42,.24,.02,.51,.04,.78,.06l1.3,.09c.11,0,.19,.09,.2,.2,0,.1-.05,.19-.15,.22Zm-4.68,.72l1.43-.42c.35-.09,.67-.18,.94-.24,.13-.03,.35-.08,.68-.15-.19-.01-.37-.03-.55-.04-.67-.1-1.26-.25-1.78-.45-.73-.29-1.29-.69-1.67-1.17-.25-.32-.28-.63-.09-.91,.03-.04,.11-.17,.76-.68l2.37-1.85c.08-.06,.2-.06,.28,0,.32,.4,.59,.78,.85,1.17,.26,.4,.41,.71,.42,.94,.03,.3,0,.6-.07,.89l1.71-1.34c-.19-.01-.36-.04-.49-.07-.17-.04-.35-.11-.58-.22-.16-.07-.34-.19-.53-.37-.19-.17-.42-.44-.71-.81-.1-.13-.18-.23-.24-.31l-.06-.08c-.07-.09-.05-.22,.04-.29l2.27-1.78c.18-.14,.38-.2,.58-.19,.2,.02,.39,.13,.56,.35,.33,.42,.56,.96,.69,1.62,.09,.45,.12,.94,.1,1.44l-.05,.47c.11-.19,.21-.35,.3-.5,.11-.17,.24-.37,.39-.58,.15-.22,.29-.4,.41-.55,.11-.13,.24-.28,.38-.44-.27-.05-.52-.15-.75-.3-.16-.1-.28-.19-.38-.29-.1-.09-.2-.21-.33-.37l-2.59-3.31s0,.09,0,.14c0,.09-.02,.17-.06,.26-.04,.14-.16,.3-.35,.45l-5.53,4.33c-.23,.18-.44,.32-.64,.43-.2,.11-.39,.16-.55,.16-.23,0-.45-.05-.65-.14l3.05,3.89c.05,.07,.13,.17,.23,.31,.11,.15,.17,.28,.2,.4,.04,.2,.05,.39,.02,.57Z"/></g><g><path class="cls-1" d="M42.92,132.96c.16-.03,.32-.05,.49-.06,.16,0,.33,0,.51,.02,.17,.02,.36,.06,.55,.12l.77,.23-2.7-2.44,.24,.68c.06,.17,.06,.32,0,.48,0,0,0,.03-.05,.07-.05,.06-.12,.11-.21,.14-.1,.04-.24,.09-.4,.15l-2.19,.63,.38-2.35c.02-.15,.05-.29,.09-.4,.03-.1,.07-.17,.12-.23,.05-.05,.07-.07,.07-.07,.15-.07,.29-.07,.44-.02l.79,.25-4.2-3.81,.35,.78c.11,.24,.18,.5,.22,.78,0,.05,.01,.17,0,.41,0,.04-.03,.26-.09,.66l-.66,4.7-3.13,.92c-.21,.06-.36,.1-.46,.12-.1,.02-.26,.04-.47,.05-.15,0-.33,0-.52-.02-.19-.02-.38-.06-.56-.12l-.79-.24,2.85,2.55-.33-.76c-.07-.16-.07-.3-.01-.44,.02-.05,.03-.07,.04-.08,.05-.05,.13-.1,.23-.14,.13-.05,.27-.1,.39-.14l2.63-.8-.63,2.61c-.02,.07-.04,.19-.08,.35-.03,.13-.07,.23-.13,.29-.01,.01-.04,.04-.09,.06-.13,.07-.27,.08-.42,.02l-.85-.3,4.23,3.83-.31-.74c-.08-.19-.13-.32-.15-.41-.02-.08-.05-.21-.07-.38-.01-.07-.03-.24,0-.62,.02-.37,.06-.66,.11-.9l.91-4.57,2.67-.78c.15-.04,.3-.08,.46-.11Z"/><path class="cls-1" d="M39.37,141.68c-.07,.02-.15,0-.21-.05l-4.23-3.83c-.08-.07-.09-.18-.04-.27,.05-.09,.16-.13,.26-.09l.85,.3c.1,.03,.17,.03,.25,0,.05-.03,.08-.08,.11-.21,.04-.17,.07-.29,.08-.36l.54-2.24-2.27,.69c-.12,.04-.25,.09-.38,.14-.1,.04-.14,.07-.15,.08-.03,.1-.03,.18,.02,.29l.33,.76c.04,.09,.01,.2-.07,.26-.08,.06-.19,.05-.27-.01l-2.85-2.55c-.08-.07-.09-.18-.04-.27,.05-.09,.15-.13,.25-.1l.79,.24c.17,.05,.34,.09,.52,.11,.19,.02,.35,.03,.48,.02,.19-.02,.34-.04,.44-.05,.09-.02,.24-.06,.44-.11l3-.88,.64-4.56c.05-.39,.08-.61,.09-.65,.02-.22,.02-.32,.01-.36-.03-.25-.1-.49-.2-.72l-.35-.78c-.04-.09-.01-.2,.07-.26,.08-.06,.2-.05,.27,.02l4.2,3.81c.08,.07,.09,.18,.04,.27-.05,.09-.16,.13-.25,.1l-.79-.25c-.11-.03-.19-.03-.28,.01-.01,.03-.04,.07-.07,.16-.03,.1-.06,.23-.08,.37l-.33,2.01,1.87-.54c.14-.05,.28-.1,.38-.14,.06-.02,.1-.05,.13-.09,.06-.12,.06-.21,.01-.33l-.24-.68c-.03-.09,0-.2,.08-.25,.08-.05,.19-.05,.26,.02l2.7,2.45c.07,.07,.09,.18,.04,.27-.05,.09-.15,.13-.25,.1l-.77-.23c-.18-.05-.35-.09-.51-.11-.16-.02-.32-.02-.47-.02-.16,0-.31,.03-.46,.05-.15,.03-.3,.07-.44,.11l-2.54,.75-.89,4.45c-.05,.23-.09,.52-.11,.87-.02,.39,0,.53,0,.57,.02,.17,.04,.28,.06,.36,.02,.08,.07,.2,.14,.38l.31,.74c.04,.09,0,.2-.08,.26-.02,.01-.04,.02-.06,.03Zm-3.37-3.49l2.74,2.48c-.05-.12-.08-.22-.1-.29-.03-.09-.05-.23-.07-.41-.02-.11-.02-.33,0-.66,.02-.37,.06-.68,.11-.93l.91-4.57c.02-.08,.08-.14,.15-.16l2.67-.78c.16-.05,.31-.09,.48-.12h0c.17-.03,.34-.05,.51-.06,.17,0,.35,0,.54,.02,.14,.02,.29,.05,.44,.09l-1.37-1.24c.04,.18,.03,.35-.04,.51,0,.02-.04,.07-.09,.13-.07,.08-.17,.15-.28,.2-.11,.05-.25,.1-.42,.16l-2.2,.63c-.07,.02-.15,0-.2-.05-.06-.05-.08-.12-.07-.2l.38-2.35c.02-.16,.06-.31,.1-.43,.04-.13,.1-.23,.17-.31,.04-.05,.08-.08,.11-.1,.17-.08,.33-.1,.49-.08l-2.74-2.48c.08,.22,.14,.45,.17,.69,.01,.1,.01,.26,0,.46,0,.04-.03,.27-.09,.67l-.66,4.7c-.01,.08-.08,.14-.15,.18l-3.13,.92c-.22,.07-.38,.11-.49,.13-.1,.02-.27,.04-.48,.06-.17,0-.35,0-.56-.02-.16-.02-.31-.05-.45-.08l1.41,1.26c-.04-.16-.03-.32,.03-.47,.02-.05,.04-.1,.08-.14,.08-.08,.18-.15,.32-.2,.14-.05,.27-.1,.39-.14l2.64-.8c.07-.02,.15,0,.21,.05,.06,.05,.08,.13,.06,.21l-.63,2.61c-.02,.07-.04,.19-.08,.35-.04,.17-.1,.3-.18,.39-.03,.03-.08,.07-.16,.11-.14,.07-.29,.1-.45,.07Z"/></g><path class="cls-1" d="M52.43,139.7c-.1-1.37-.71-2.43-1.83-3.13-1.09-.69-2.31-.79-3.63-.31-1.21,.44-2.18,1.24-2.9,2.38-.75,1.18-1.07,2.42-.96,3.66,.12,1.35,.74,2.38,1.84,3.08,1.08,.68,2.24,.83,3.44,.43,.06-.02,.12-.04,.18-.06,1.16-.43,2.14-1.27,2.9-2.48,.73-1.15,1.05-2.36,.96-3.57Zm-1.68-1.53c0,.39-.15,.9-.44,1.51-.2,.43-.52,.99-.94,1.64l-1.2,1.91c-.48,.76-.92,1.27-1.32,1.53-.5,.33-1.01,.32-1.56-.03-.43-.27-.62-.65-.58-1.17,.03-.42,.23-.98,.59-1.65,.08-.15,.32-.56,1.05-1.71l.54-.85c.62-.98,1.15-1.66,1.56-2,.21-.18,.42-.3,.63-.37,.37-.12,.74-.07,1.11,.16,.37,.23,.55,.57,.55,1.03Z"/><g><path class="cls-1" d="M57.14,149.92l2.9-6.81c.06-.13,.12-.24,.2-.33,.05-.06,.11-.09,.18-.08,.1,0,.19,.02,.25,.05,.38,.16,.67,.69,.87,1.59,.07,.3,.14,.75,.19,1.33l.1,1.09,1.17-4.8-.36,.19c-.11,.06-.21,.1-.3,.12-.09,.02-.2,.03-.34,.03-.14,0-.26,0-.38-.03-.11-.02-.24-.06-.39-.13l-3.66-1.55c-.2-.08-.35-.16-.47-.23-.11-.06-.2-.14-.28-.24-.08-.1-.15-.19-.18-.27-.04-.08-.07-.18-.1-.29l-.09-.42-2.08,3.07c-.19,.17-.21,.28-.16,.39l.13,.29,.3-.44c.12-.1,.38-.28,.93-.59,.79-.45,1.43-.58,1.91-.38,.12,.05,.14,.11,.14,.17,0,.13-.03,.27-.09,.42l-2.66,6.25c-.16,.37-.28,.64-.36,.8-.07,.13-.14,.22-.23,.27-.16,.09-.31,.14-.46,.17l-.61,.1,4.24,1.8-.31-.49c-.07-.12-.13-.24-.16-.36-.03-.11-.03-.22,0-.31,.03-.11,.07-.25,.14-.41Z"/><path class="cls-1" d="M53.98,149.78l2.94,1.25c-.06-.11-.1-.22-.13-.33-.04-.14-.04-.28,0-.41,.03-.12,.08-.26,.15-.44h0s2.9-6.81,2.9-6.81c.07-.15,.15-.29,.24-.39,.1-.11,.22-.16,.35-.15,.12,0,.23,.03,.32,.07,.45,.19,.78,.76,1,1.74,.06,.27,.12,.66,.17,1.15l.75-3.07c-.11,.05-.2,.08-.28,.11-.1,.02-.22,.04-.38,.04-.16,0-.3-.01-.42-.03-.12-.02-.27-.07-.43-.14l-3.66-1.55c-.21-.09-.37-.17-.49-.24-.12-.07-.23-.16-.33-.28-.1-.12-.17-.22-.22-.31-.04-.08-.07-.16-.09-.26l-1.69,2.49c.19-.13,.46-.3,.81-.5,.85-.49,1.56-.62,2.1-.39,.17,.07,.26,.19,.27,.36,0,.16-.03,.34-.11,.52l-2.66,6.25c-.16,.38-.28,.65-.37,.81-.08,.17-.19,.29-.32,.36-.14,.08-.28,.13-.41,.17Z"/></g><g><path class="cls-1" d="M65.28,152.65l2-7c.05-.16,.1-.31,.18-.44,.07-.13,.14-.23,.21-.29,.05-.04,.11-.08,.17-.12,.05-.03,.11-.06,.17-.08l.56-.18-3.91-1.12,.3,.42c.09,.13,.14,.22,.17,.3,.02,.07,.03,.13,.02,.18,0,.07-.03,.17-.07,.3l-2.1,7.37c-.03,.1-.07,.21-.13,.34-.07,.16-.12,.22-.14,.24-.02,.02-.07,.06-.23,.15-.08,.04-.16,.07-.23,.1l-.55,.19,4.09,1.17-.4-.46s-.08-.1-.12-.17c-.04-.06-.06-.11-.08-.18-.03-.09-.03-.18,0-.28,.03-.13,.07-.28,.12-.43Z"/><path class="cls-1" d="M62.4,152.98l2.74,.78s-.05-.07-.07-.11c-.05-.08-.08-.16-.1-.25-.04-.11-.04-.24,0-.39,.03-.14,.07-.28,.12-.43l2-7c.05-.18,.12-.34,.19-.48,.08-.15,.17-.27,.26-.35,.07-.05,.13-.1,.19-.14,.04-.02,.08-.04,.12-.06l-2.66-.76c.07,.11,.12,.2,.14,.28,.03,.1,.04,.18,.03,.27,0,.08-.03,.19-.08,.34l-2.1,7.37c-.03,.11-.08,.23-.15,.37-.06,.13-.11,.22-.16,.28-.07,.07-.16,.13-.29,.21-.06,.03-.11,.05-.16,.07Zm2.88-.33h0s0,0,0,0Z"/></g><g><path class="cls-1" d="M74.52,145.56c-.7-.11-1.35-.08-1.93,.1l-.05,.02c-.83,.27-1.58,.83-2.23,1.65-.65,.83-1.07,1.78-1.24,2.82-.2,1.24,.01,2.41,.62,3.48,.64,1.13,1.54,1.79,2.68,1.97,.72,.11,1.38,.07,1.97-.12,.21-.07,.4-.15,.59-.26,.74-.41,1.3-1.03,1.66-1.84l.25-.56-.52,.34c-.75,.49-1.51,.68-2.27,.55-.97-.15-1.69-.71-2.2-1.68-.47-.92-.62-1.95-.45-3.06,.13-.82,.36-1.46,.68-1.92,.39-.56,.87-.78,1.48-.68,.43,.07,.81,.46,1.14,1.17,.11,.25,.23,.62,.37,1.1l.1,.36,.22-.31c.11-.15,.22-.31,.34-.47,.12-.16,.24-.32,.37-.47,.27-.35,.54-.66,.8-.94l.14-.15-.16-.12c-.7-.51-1.5-.84-2.37-.98Z"/><path class="cls-1" d="M72.66,145.87c-.84,.28-1.56,.81-2.17,1.59-.63,.8-1.03,1.72-1.19,2.72-.19,1.19,.01,2.31,.6,3.34,.61,1.07,1.46,1.7,2.52,1.87,.91,.14,1.72,.03,2.43-.36,.66-.36,1.17-.91,1.52-1.63-.76,.47-1.54,.65-2.32,.52-1.05-.17-1.82-.76-2.35-1.8-.49-.96-.65-2.03-.47-3.19,.13-.85,.38-1.53,.72-2.01,.43-.62,1-.88,1.69-.77,.5,.08,.94,.52,1.3,1.3,.11,.25,.23,.61,.36,1.07,.1-.13,.2-.27,.31-.42,.12-.16,.25-.32,.37-.48,.27-.35,.54-.66,.78-.92-.66-.48-1.42-.79-2.25-.92,0,0,0,0,0,0-.67-.11-1.29-.08-1.83,.09Z"/></g><g><path class="cls-1" d="M89.32,150.71l-1.66-4.55-3.29,.29,.48,.29c.15,.09,.28,.2,.38,.33,.09,.12,.15,.29,.17,.52,0,.04,0,.09,.01,.18,0,.08,0,.21-.02,.4l-.33,6.39c0,.16-.04,.34-.09,.54-.05,.19-.12,.38-.2,.54-.11,.22-.26,.42-.43,.6l-.32,.34,2.98-.27-.42-.28c-.17-.12-.31-.24-.43-.38-.05-.06-.1-.15-.12-.26-.03-.13-.06-.32-.08-.57-.03-.32-.03-.63-.02-.93l.24-4.61,2.84,7.41,1.63-8.02,1.32,5.98c.02,.09,.04,.15,.04,.18,0,.07,0,.15-.02,.23-.02,.08-.06,.17-.13,.26-.07,.1-.15,.17-.26,.22l-.84,.43,4.99-.45-.52-.29c-.15-.08-.29-.18-.41-.31-.12-.12-.21-.25-.27-.39-.07-.14-.13-.33-.18-.55l-1.56-6.82c-.03-.13-.06-.24-.06-.34-.01-.17,.01-.32,.08-.46,.07-.15,.18-.28,.33-.39l.51-.38-3.33,.3-1.01,4.79Z"/><path class="cls-1" d="M91.82,155.67l3.2-.29c-.13-.08-.25-.18-.36-.29-.14-.14-.24-.29-.32-.45-.07-.15-.14-.35-.19-.59l-1.56-6.82c-.04-.13-.06-.26-.07-.37-.02-.21,.02-.39,.1-.57,.07-.15,.17-.28,.3-.39l-2.43,.22-.98,4.63c-.02,.1-.1,.17-.2,.17-.1,0-.18-.05-.22-.14l-1.61-4.39-2.47,.22c.13,.09,.25,.2,.35,.32,.12,.15,.19,.36,.22,.63,0,.04,0,.1,.01,.19,0,.08,0,.22-.02,.43l-.33,6.39c0,.18-.04,.37-.09,.58-.05,.21-.13,.4-.22,.59-.11,.21-.25,.41-.4,.59l1.83-.16c-.15-.11-.29-.24-.4-.37-.08-.09-.13-.21-.16-.35-.03-.14-.06-.34-.08-.6-.03-.32-.04-.64-.02-.96l.24-4.6c0-.1,.08-.18,.18-.2,.1-.02,.2,.04,.24,.14l2.57,6.72,1.48-7.29c.02-.1,.11-.17,.21-.17,.1,0,.19,.07,.21,.17l1.32,5.98c.03,.09,.04,.17,.04,.2,0,.11,0,.21-.03,.31-.02,.1-.08,.21-.17,.34-.06,.08-.13,.15-.2,.21Z"/></g><g><path class="cls-1" d="M106.86,152.01c-.13-.06-.25-.12-.34-.19-.2-.14-.42-.39-.68-.74l-5.6-7.62-1,9.22c-.04,.51-.18,.96-.41,1.34-.12,.21-.24,.39-.39,.55l-.44,.47,3.34-.94-.51-.2c-.24-.09-.43-.23-.56-.41-.07-.1-.12-.19-.15-.28-.03-.1-.04-.2-.03-.3,0-.12,0-.25,.01-.37l.07-1.02,2.47-.7,.89,1.31c.08,.13,.12,.21,.13,.26,.03,.11,.03,.23,0,.36-.03,.13-.1,.27-.22,.4l-.4,.46,4.65-1.31-.56-.19c-.14-.05-.23-.08-.29-.11Zm-6.28-4.2l1.55,2.24-1.86,.52,.31-2.76Z"/><path class="cls-1" d="M103.68,153.21l3.29-.92c-.09-.03-.16-.06-.2-.08-.14-.07-.27-.13-.37-.2-.22-.15-.46-.41-.74-.8l-5.27-7.17-.94,8.67c-.05,.54-.19,1.02-.44,1.43-.1,.18-.21,.34-.34,.49l1.98-.56c-.23-.11-.42-.25-.56-.44-.09-.12-.15-.24-.18-.35-.03-.11-.05-.24-.04-.37,0-.12,0-.25,.01-.38l.07-1.02c0-.09,.07-.17,.16-.19l2.47-.7c.09-.02,.18,0,.24,.09l.89,1.31c.08,.13,.14,.24,.16,.33,.04,.14,.04,.3,0,.47-.03,.14-.1,.28-.2,.41Zm-1.48-2.96h0s-1.86,.53-1.86,.53c-.07,.02-.14,0-.2-.04-.05-.05-.08-.12-.08-.19l.31-2.76c.01-.09,.07-.18,.16-.18,.09-.02,.18,.01,.23,.09l1.55,2.24c.04,.06,.05,.13,.03,.2-.02,.06-.07,.11-.14,.13Z"/></g><g><path class="cls-1" d="M115.41,145.36s0,.06,0,.09c-.02,.08-.09,.28-.27,.74-.27,.66-.55,1.23-.85,1.69-.41,.63-.82,1.04-1.22,1.23-.09,.04-.17,.06-.22,.04-.05-.02-.1-.08-.15-.18l-3.28-7.12c-.06-.14-.1-.25-.12-.34-.02-.08-.02-.16,0-.25,.01-.06,.05-.17,.16-.34l.35-.53-4.18,1.92,.64,.07c.08,0,.15,.02,.22,.05,.07,.02,.15,.06,.24,.11,.08,.05,.15,.11,.2,.19,.07,.1,.13,.22,.2,.36l3.07,6.66c.06,.12,.1,.24,.14,.36,.04,.13,.05,.2,.04,.23,0,.04-.01,.12-.06,.27-.04,.12-.09,.21-.16,.29l-.54,.63,4.78-2.2c.2-.09,.35-.16,.45-.19,.07-.01,.16-.04,.25-.03,.21,0,.38,.07,.52,.21l.36,.34-.06-.49c-.07-.56-.12-1.13-.14-1.72-.02-.42-.03-.98-.01-1.65,0-.09,0-.2,.01-.32,.03-.16,0-.2-.05-.25l-.29-.29-.02,.41Z"/><path class="cls-1" d="M112.93,148.95h0s0,0,0,0Z"/></g><path class="cls-1" d="M119.64,135.55c.34-.22,.95-.18,1.8,.14,.29,.1,.7,.3,1.22,.58l.96,.52-3.37-3.62-.04,.4c-.01,.13-.03,.24-.06,.32-.03,.08-.08,.18-.16,.3-.07,.11-.15,.21-.23,.3-.08,.08-.19,.17-.32,.26l-3.31,2.2c-.17,.11-.32,.2-.45,.27-.11,.06-.23,.09-.35,.11-.13,.02-.24,.02-.33,0-.09-.01-.18-.04-.29-.08l-.39-.15,1.41,3.42c.1,.26,.32,.56,.32,.56,0,0,.04-.49,.04-.65,0-.15-.02-.47,.02-1.1,.06-.91,.3-1.52,.74-1.8,.11-.07,.17-.05,.22-.02,.11,.07,.21,.17,.31,.31l3.76,5.66c.22,.33,.38,.58,.47,.74,.07,.13,.1,.24,.1,.34-.01,.18-.05,.34-.11,.47l-.25,.56,3.85-2.56h-.59c-.14,0-.27-.03-.39-.07-.11-.04-.2-.1-.26-.17-.08-.09-.17-.2-.26-.34l-4.1-6.17c-.08-.12-.13-.24-.16-.35-.03-.1,0-.16,.03-.19,.06-.08,.12-.14,.18-.18Z"/><g><path class="cls-1" d="M134.42,123.08c-.07-.13-.15-.33-.24-.58-.1-.28-.11-.36-.12-.38-.06-.35-.07-.7,0-1.05l.11-.63-2.54,2.88,.74-.32c.18-.07,.35-.1,.54-.08,.18,.03,.33,.1,.47,.22,.15,.13,.28,.31,.4,.52l2.02,3.75-4-1.81c-.08-.04-.19-.08-.31-.13-.11-.04-.19-.09-.26-.15-.04-.04-.07-.06-.08-.08-.15-.19-.22-.41-.21-.66v-.49s-5.46,6.19-5.46,6.19l.49-.08c.12-.02,.21-.03,.26-.04,.23-.03,.34-.03,.39-.03,.15,.01,.3,.05,.44,.1,.04,.01,.18,.08,.42,.19l8.63,3.63-2.48-5.08,5.1,2.26-4.32-8.17Zm-6.03,4.37v-.1s.13-.03,.13-.03c.16-.03,.3-.05,.44-.04,.2,0,.38,.03,.53,.07,.04,.01,.22,.08,.53,.21l2.36,.91,.87,1.82-3.85-1.73c-.07-.02-.13-.03-.18-.05-.26-.09-.44-.18-.56-.28-.1-.09-.17-.19-.21-.3-.04-.12-.07-.28-.08-.47Z"/><path class="cls-1" d="M128.39,127.45h0s0,0,0,0Z"/></g><path class="cls-1" d="M146.64,117.52c-.13-.01-.25-.04-.36-.09-.12-.05-.25-.12-.39-.2l-6.1-3.63c-.15-.09-.29-.2-.41-.31-.11-.11-.19-.21-.23-.31-.04-.1-.08-.24-.1-.4l-.07-.51-2.16,3.63,.53-.24c.13-.06,.27-.1,.39-.1,.13,0,.23,0,.31,.03,.09,.03,.2,.09,.33,.16l1.6,.95-.18,2.73-2.66-1.58c-.12-.07-.22-.15-.3-.23-.07-.07-.13-.16-.17-.26-.02-.05-.04-.11-.06-.18-.02-.08-.03-.15-.04-.21l-.03-.6-2.19,3.69,.47-.17c.09-.04,.19-.06,.28-.07,.1-.01,.19-.02,.26-.02,.18,0,.25,.03,.28,.04,.06,.02,.16,.08,.3,.16l6.45,3.83c.21,.12,.35,.25,.41,.39,.07,.14,.11,.29,.12,.44l.04,.57,2.23-3.76-.55,.27c-.17,.08-.33,.13-.49,.14-.1,0-.2,0-.29-.03-.1-.02-.21-.08-.35-.16l-2.82-1.68,.18-2.73,3.72,2.21c.21,.12,.35,.22,.44,.28,.05,.04,.12,.11,.22,.28,.08,.14,.13,.29,.15,.45l.06,.53,2.1-3.53-.45,.14c-.18,.06-.34,.08-.47,.06Z"/><g><path class="cls-1" d="M149.44,111.85c-.07,.03-.12,.04-.19,.05-.09,.02-.18,0-.28-.03-.13-.05-.26-.11-.41-.17l-6.66-2.92c-.15-.07-.29-.14-.42-.23-.12-.08-.21-.17-.26-.25-.03-.06-.07-.11-.1-.18-.03-.06-.04-.12-.06-.18l-.1-.59-1.64,3.73,.46-.24c.16-.09,.26-.12,.32-.12,.07-.01,.14-.01,.19,0,.07,.02,.16,.05,.29,.11l7.02,3.08c.09,.04,.19,.1,.32,.18,.15,.1,.2,.15,.22,.17,.01,.01,.05,.07,.12,.25,.03,.09,.05,.17,.06,.24l.11,.56,1.71-3.89-.51,.33c-.05,.03-.11,.07-.19,.1Z"/><path class="cls-1" d="M139.94,110.54s.09-.02,.12-.03c.1-.02,.19-.01,.27,0,.07,.02,.18,.06,.32,.12l7.02,3.08c.1,.04,.21,.11,.35,.19,.12,.08,.21,.15,.26,.2,.05,.05,.11,.16,.17,.32,.02,.06,.04,.11,.05,.17l1.15-2.61s-.08,.04-.12,.06h0c-.09,.04-.17,.06-.25,.07-.11,.02-.24,.01-.38-.04l-.08-.03c-.11-.04-.22-.09-.34-.14l-6.66-2.92c-.16-.07-.32-.16-.45-.25-.14-.1-.25-.2-.32-.3-.04-.07-.08-.13-.11-.21-.02-.04-.03-.08-.05-.13l-1.11,2.53c.06-.03,.12-.05,.17-.07Zm9.49,1.31h0s0,0,0,0Z"/></g><g><path class="cls-1" d="M146.84,102.33l-1.12,1.3c-.39,.46-.74,.77-1.05,.92-.28,.14-.59,.16-.94,.05-.28-.09-.48-.26-.61-.53-.13-.28-.15-.57-.05-.9,.18-.57,.67-.96,1.5-1.19,.92-.25,1.11-.2,1.13-.19,0,0,0,0,0,0l.21-.3s0,0-.02,0c-.11-.08-.29-.22-.52-.43-.18-.17-.33-.31-.44-.41-.24-.23-.48-.49-.73-.78l-.15-.18-.13,.2c-.27,.39-.46,.69-.6,.92-.43,.7-.72,1.29-.86,1.75-.28,.92-.24,1.77,.12,2.53,.37,.76,.97,1.27,1.78,1.52,.52,.16,1.02,.19,1.48,.07,.46-.11,.9-.38,1.28-.78l1.39-1.47c.38-.39,.75-.67,1.09-.82,.38-.15,.76-.18,1.17-.05,.33,.1,.57,.3,.74,.61,.17,.31,.19,.63,.08,.98-.16,.5-.51,.86-1.09,1.11-.41,.19-.93,.29-1.53,.31-.5,.03-.66,0-.7,0,0,0,0,0,0,0l-.8-.51,.55,.77s.05,.06,.09,.08c.17,.11,.37,.24,.58,.4,.24,.17,.46,.33,.66,.5,.2,.17,.38,.32,.54,.46,.15,.14,.31,.29,.48,.46l.12,.13,.13-.12c.18-.17,.47-.61,.89-1.37,.3-.55,.54-1.09,.69-1.58,.31-1,.25-1.94-.18-2.8-.43-.86-1.11-1.43-2.01-1.71-1.21-.38-2.29-.01-3.21,1.07Z"/><path class="cls-1" d="M146.84,102.33h0s0,0,0,0Z"/></g><g><path class="cls-1" d="M154.6,90.61c-.07,.06-.13,.1-.17,.13-.05,.03-.13,.07-.23,.13l-5.89,2.84c-.13-.17-.25-.32-.36-.46-.13-.16-.28-.34-.45-.52-.24-.27-.5-.55-.79-.84-.77-.76-.89-.92-.91-.95-.14-.25-.25-.49-.33-.7l-.25-.67-.54,3.67,.36-.3c.33-.27,.41-.31,.42-.32,.01,0,.06-.02,.17,0,.22,.03,.47,.15,.74,.35,.34,.25,.75,.67,1.21,1.23,.17,.2,.33,.43,.49,.68,.14,.22,.27,.44,.38,.67l-2.73-.4c-.15-.02-.29-.05-.41-.09-.11-.03-.19-.08-.25-.13-.07-.06-.12-.11-.14-.13-.05-.06-.1-.12-.13-.18l-.26-.41-.56,3.83,.36-.3c.06-.05,.12-.09,.18-.12,.07-.03,.13-.06,.19-.09,.04-.02,.09-.03,.14-.02,.07,0,.17,.01,.31,.03l7.58,1.11c.13,.02,.26,.04,.36,.08,.12,.03,.18,.07,.2,.09,.05,.05,.11,.1,.17,.17,.08,.09,.14,.18,.16,.26l.24,.73,.65-4.44-.39,.42s-.08,.07-.16,.14c-.1,.08-.15,.11-.17,.12-.12,.05-.23,.07-.34,.06-.13-.01-.26-.03-.38-.04l-3.27-.48,3.26-1.54c.1-.05,.25-.12,.42-.21,.22-.08,.41-.12,.59-.09,.06,0,.11,.03,.15,.08,.06,.06,.11,.14,.15,.24l.25,.59,.76-5.17-.43,.6c-.11,.15-.22,.27-.35,.38Z"/><path class="cls-1" d="M144.66,97.31c.06-.02,.13-.03,.19-.03,.07,0,.18,.01,.33,.04l7.58,1.11c.14,.02,.28,.05,.4,.08,.13,.04,.22,.08,.28,.14,.06,.05,.12,.11,.19,.19,.06,.08,.11,.15,.15,.22l.43-2.9s-.06,.05-.1,.09c-.09,.08-.17,.13-.23,.15-.16,.07-.31,.09-.44,.08s-.27-.03-.39-.04l-3.27-.48c-.09-.01-.17-.09-.18-.18-.01-.09,.03-.19,.12-.23l3.26-1.54c.1-.05,.24-.12,.42-.21,.29-.11,.51-.14,.72-.11,.12,.02,.21,.07,.28,.15,.05,.05,.09,.12,.13,.19l.52-3.56c-.09,.12-.2,.22-.3,.31h0c-.08,.06-.14,.11-.19,.14-.05,.03-.14,.08-.25,.13l-5.89,2.84c-.1,.04-.2,.02-.26-.06-.13-.17-.25-.32-.36-.45-.13-.16-.28-.33-.44-.52-.22-.25-.49-.53-.78-.83-.87-.86-.92-.96-.95-1-.12-.22-.22-.42-.29-.61l-.34,2.28c.32-.26,.38-.28,.41-.29,.07-.02,.14-.03,.28-.02,.26,.04,.54,.17,.84,.4,.36,.26,.78,.69,1.25,1.27,.17,.21,.34,.45,.51,.7,.14,.22,.27,.45,.39,.69,.04,.07,.03,.16-.02,.22-.05,.07-.13,.1-.21,.09l-2.73-.4c-.17-.02-.32-.06-.45-.1-.14-.04-.25-.1-.33-.18-.08-.07-.13-.12-.15-.15-.04-.04-.07-.09-.1-.13l-.4,2.71s.1-.07,.15-.09c.07-.04,.14-.07,.2-.1,.01,0,.03-.01,.04-.02Zm9.94-6.7h0s0,0,0,0Z"/></g><g><path class="cls-1" d="M154.54,80.92c-.18,.08-.39,.13-.63,.13l-3.98,.12-3.02-1.78c-.14-.08-.27-.16-.4-.25-.13-.1-.26-.2-.38-.31-.12-.11-.23-.24-.34-.38-.1-.14-.2-.3-.3-.48l-.36-.7,.12,3.93,.32-.56c.03-.05,.11-.15,.3-.29,.1-.08,.19-.12,.28-.14,.07-.01,.15-.01,.24,0,.09,.02,.19,.05,.29,.11l2.43,1.34-2.44,1.67c-.09,.07-.17,.12-.24,.16-.14,.08-.25,.12-.34,.12-.04,0-.07,0-.11-.02-.14-.06-.25-.16-.32-.3l-.37-.74,.17,5.68,.32-.8c.1-.24,.23-.47,.41-.69,.03-.04,.11-.13,.3-.27,.04-.03,.35-.26,.92-.67l2.97-2.11,3.8-.11c.17,0,.36,.04,.55,.14,.13,.08,.25,.19,.36,.31l.33,.39-.13-4.41-.32,.51c-.12,.19-.26,.32-.43,.4Z"/><path class="cls-1" d="M154.54,80.92h0s0,0,0,0Z"/></g></g><path class="cls-1" d="M27.17,112.71l.76-3.98-.04-.02c-1.25,1.46-2.76,2.36-5.18,2.22-3.11-.18-4.63-2.71-4.44-6.14,.19-3.45,2.22-5.51,5.38-5.34,1.72,.1,3.32,.86,4.16,2.35l.05-.02-.14-3.89c-1.28-.45-2.48-.7-3.91-.78-5.11-.29-8.6,2.68-8.88,7.72-.26,4.59,2.59,8.19,7.43,8.46"/><path class="cls-1" d="M32.95,99.2l1.55-.24c1.91-.29,3.12,.58,3.35,2.21,.28,1.98-.68,2.91-2.59,3.17l-1.07,.15,4.27,5.41c.6,.75,1.07,1.48,1.48,2.31l4.44-1.46v-.05c-1.12-.21-2.22-.96-3.26-2.2l-2.53-3.07c1.78-.86,2.74-2.47,2.41-4.82-.4-2.89-2.72-4.4-6.28-3.9l-6.31,.88v.04c.64,.3,1.41,1.28,1.65,3.03l1.24,8.87c.25,1.82-.22,3-.74,3.46v.04s5.36-.75,5.36-.75v-.04c-.55-.31-1.32-1.29-1.57-3.05l-1.4-10Z"/><path class="cls-1" d="M60.66,105.34c-.77-.27-2.15-1.25-3.31-2.67l-6.26-7.57c-.9-1.08-.79-2.1-.52-2.61l-.02-.04-5.59,2.03v.04c.54,.19,1.26,.93,1.29,2.33l.14,9.79c.02,1.83-.42,3.45-.81,4.16l.02,.04,4.43-1.61-.02-.04c-.39-.17-.92-.96-.9-2.61v-.58s5.45-1.98,5.45-1.98l.37,.44c1.06,1.26,1.2,2.19,.94,2.6l.02,.04,4.77-1.73-.02-.04Zm-11.58-1.65l-.03-2.52c-.01-1.55-.02-3.15-.42-4.84l.09-.03c.8,1.55,1.84,2.77,2.82,3.97l1.59,1.95-4.05,1.47Z"/><path class="cls-1" d="M61.67,104.88l8.19-3.95c1.52-.73,1.85-.87,2.79-1.15l-1.41-4.26h-.05c-.25,1.54-1.37,2.95-3.2,3.84l-3.09,1.49,1.1-15.33-.02-.04-6.65,3.21c-1.54,.74-2.25,1.06-3.07,1.33l1.13,3.74h.05c.22-1.35,1.24-2.29,2.79-3.04l2.53-1.22-1.1,15.33,.02,.04Z"/><path class="cls-1" d="M79.39,77.97l-.02-.04-3.93,2.22,.02,.04c.49,.42,.7,1.38,.7,2.24l-.02,3.44c0,.46-.03,.95,.09,1.62l-.08,.04c-.5-.44-.91-.7-1.32-.93l-2.97-1.75c-.74-.44-1.45-1.11-1.57-1.74l-.02-.04-4.16,2.35,.02,.04c.7,.09,1.77,.57,2.71,1.1l7.25,4.08,1.28,2.27c.94,1.66,.91,3.07,.53,3.72l.02,.04,5.06-2.86-.02-.04c-.83,.03-1.96-.7-2.91-2.38l-1.33-2.37,.25-8.18c.04-1.11,.16-2.23,.44-2.88Z"/><path class="cls-1" d="M84.91,81.19c-.95,.55-1.28,1.76-.73,2.71,.55,.95,1.75,1.26,2.72,.7,.95-.55,1.25-1.74,.69-2.69-.56-.97-1.73-1.28-2.68-.72Z"/><path class="cls-1" d="M102.36,83.1c1.66-.9,2.98-2.13,3.79-3.03l-1.44-3.79h-.05c-.3,1.9-1.11,3.46-3.24,4.62-2.74,1.49-5.37,.13-7.01-2.88-1.65-3.04-1.01-5.86,1.77-7.37,1.52-.83,3.28-1.02,4.77-.19l.03-.04-2.17-3.24c-1.33,.29-2.48,.71-3.74,1.39-4.5,2.44-5.91,6.81-3.49,11.25,2.2,4.04,6.52,5.6,10.78,3.29Z"/><path class="cls-1" d="M115.15,77.21c4.65-1.84,6.51-6.25,4.67-10.9-1.78-4.49-5.96-6.33-10.43-4.57-4.82,1.91-6.51,6.17-4.66,10.87,1.69,4.28,5.74,6.45,10.41,4.6Zm-5.11-13.21c2.84-1.12,5.35,.22,6.75,3.75,1.32,3.34,.28,6.19-2.29,7.21-2.98,1.18-5.38-.36-6.74-3.78-1.29-3.26-.48-6.09,2.28-7.18Z"/><path class="cls-1" d="M129.11,58.21c1.68-.41,3.43-.15,4.67,1.02l.04-.03-1.28-3.69c-1.36-.06-2.58,.06-3.97,.4-4.97,1.23-7.44,5.1-6.23,10,1.1,4.47,4.89,7.07,9.6,5.91,1.83-.45,3.42-1.31,4.44-1.97l-.44-4.03h-.05c-.77,1.75-1.95,3.06-4.3,3.64-3.03,.75-5.23-1.23-6.05-4.57-.83-3.36,.5-5.93,3.58-6.69Z"/><path class="cls-1" d="M149.75,53.38v-.04s-4.65,.41-4.65,.41c.06,.42-.09,1-.58,1.85l-3.3,5.68,5.11,6.3c.58,.71,1.1,1.52,1.28,2.03l4.42-1.16v-.04c-1.14-.35-1.82-.88-2.68-1.93l-4.8-5.84,2.77-4.55c.63-1.05,1.52-2.18,2.42-2.71Z"/><path class="cls-1" d="M140.64,57.53c-.16-1.83,.32-2.98,.8-3.4v-.05s-5.37,.48-5.37,.48v.04c.62,.33,1.34,1.35,1.5,3.11l.79,8.92c.16,1.83-.39,2.98-.91,3.41v.04s5.37-.47,5.37-.47v-.05c-.55-.33-1.23-1.35-1.39-3.19l-.78-8.85Z"/><g><path class="cls-1" d="M56.85,62.09l-4.04,7.88,4.17-5.1,2.44,7.49c.03,.1,.05,.18,.06,.26,0,.08,0,.17,0,.22-.01,.04-.02,.09-.04,.14-.02,.05-.03,.1-.05,.13-.05,.09-.15,.2-.29,.32-.16,.14-.33,.27-.5,.39-.11,.07-.22,.14-.32,.21-.09,.06-.19,.12-.29,.18l-1.28,.95,8.69-2.86-1.71,.06c-.11,0-.22,0-.35,0l-.36,.02c-.24,0-.46,0-.67,0-.24-.01-.37-.05-.42-.08-.05-.03-.09-.05-.13-.08-.04-.03-.07-.06-.11-.08-.07-.06-.12-.12-.16-.18-.04-.07-.08-.15-.11-.25l-3.3-10.03-1.25,.41Z"/><path class="cls-1" d="M71.02,66.11c-.05,.1-.11,.22-.18,.37-.15,.29-.37,.65-.66,1.07-.29,.42-.6,.85-.92,1.29-.04,.05-.08,.1-.12,.16-.04,.05-.08,.11-.11,.16-.11,.15-.22,.3-.32,.45-.1,.14-.2,.28-.3,.42l-.5,.59,2.09,.93s.99-2.11,1.36-2.83c.41-.8,.89-1.6,1.37-2.36,.47-.76,.87-1.51,1.18-2.24,.23-.6,.39-1.17,.48-1.69,.09-.55,.06-1.04-.08-1.48l-.1-.24c-.56-1.23-1.44-2.04-2.62-2.39-1.16-.35-2.42-.32-3.76,.08l-.05,.02,.06,.17-.13-.15-.06,.02c-1.51,.5-2.61,1.3-3.28,2.39-.69,1.11-.87,2.2-.54,3.23l.04,.13c.02,.05,.04,.1,.07,.15,.02,.05,.04,.1,.06,.13,.02,.04,.05,.09,.08,.14,.43,.78,1.1,1.33,2.01,1.64,.89,.3,1.79,.41,2.68,.3l.44-.08c.15-.03,.3-.06,.44-.11l.46-.15c.09-.03,.18-.06,.29-.1,.1-.04,.24-.1,.38-.17l.44-.16-.02,.05c-.05,.08-.1,.17-.14,.26Zm-.82-1.19l-.15,.08-.14,.05c-.84,.28-1.69,.29-2.54,.06-.84-.24-1.4-.7-1.72-1.39l-.04-.15-.04-.03-.02-.06c-.25-.77-.13-1.52,.37-2.32,.5-.8,1.24-1.36,2.18-1.66,.94-.3,1.85-.28,2.69,.05,.84,.34,1.37,.87,1.63,1.66l.02,.05c.2,.73,.09,1.42-.33,2.11-.43,.69-1.07,1.22-1.91,1.56Z"/><path class="cls-1" d="M85.59,52.63l-10.52,3.46,1.6,4.16,.11-1.88v-.06s0-.05-.01-.07c0-.17,.02-.34,.03-.49,.01-.14,.06-.26,.09-.32,.03-.02,.05-.05,.08-.08,.01-.02,.02-.03,.03-.04,.09-.06,.18-.12,.27-.16,.11-.05,.24-.1,.37-.15l5.85-1.92-3.45,11.77-.06,.19,2.09,.39,3.43-14.47,.07-.31Z"/><path class="cls-1" d="M94.86,49.58l-6.87,2.26,1.9,5.85,.69-.57c.15-.13,.32-.26,.52-.38,.21-.13,.43-.24,.64-.34,.09-.04,.18-.08,.27-.11,.09-.03,.17-.06,.25-.09l.12-.04s.07,0,.11-.02l.06-.02c.86-.21,1.66-.16,2.39,.14,.71,.29,1.21,.79,1.48,1.45l.05,.14c.24,.72,.15,1.43-.27,2.18-.42,.75-1.07,1.28-1.94,1.59l-.11,.04c-.33,.11-.66,.17-.98,.2-.32,.03-.64-.02-.98-.12l-3.3-1.15,.09,2.35,2.76,.17c.44,.08,.92,.09,1.42,.05,.5-.05,1.03-.16,1.59-.35,1.41-.48,2.46-1.28,3.14-2.4,.68-1.13,.8-2.34,.36-3.6-.36-.99-1.11-1.71-2.23-2.13-1.11-.41-2.29-.43-3.55-.03l-.06,.02c-.13,.04-.25,.09-.36,.14-.11,.05-.22,.1-.33,.16-.1,.06-.22,.12-.33,.2-.11,.07-.23,.14-.37,.22l-.37,.22-.7-2.67,3.53-1.16c.29-.09,.57-.18,.83-.24,.3-.07,.47-.08,.55-.06,.15,.02,2.45,1.19,2.45,1.19l-2.44-3.06Z"/></g><g><path class="cls-1" d="M85.83,128.26c.41,1.24,1.26,2.13,2.55,2.66,1.27,.53,2.64,.56,4.06,.1,.03,0,.05-.02,.08-.03,1.47-.48,2.63-1.31,3.46-2.46,.86-1.19,1.06-2.47,.59-3.82-.48-1.33-1.39-2.23-2.7-2.68-1.3-.44-2.67-.43-4.09,.03l-.19,.06-.23,.08c-1.3,.51-2.32,1.33-3.02,2.45-.74,1.18-.91,2.38-.51,3.59Zm3.91-5.11l.25-.07c1.11-.37,2.21-.32,3.22,.16,1.01,.48,1.68,1.21,1.99,2.16,.32,.98,.21,1.88-.34,2.75-.55,.87-1.36,1.48-2.39,1.82l-.19,.05-.06,.02c-1.12,.3-2.16,.21-3.1-.27-.94-.48-1.57-1.16-1.87-2.01-.3-.89-.23-1.8,.21-2.69,.43-.87,1.2-1.52,2.28-1.93Z"/><g><path class="cls-1" d="M98.26,128.98l6.99-2.3-1.53,.03c-.06,0-.12,0-.19,0-.07,0-.15,0-.23,.02h-.16c-.15,.03-.3,.05-.45,.05-.16,0-.22-.02-.25-.04-.08-.04-.13-.09-.16-.14-.04-.08-.08-.18-.12-.3l-.88-2.66,1.92-.63s.09-.02,.15-.03c.04,0,.08-.01,.12-.01,.04,0,.09,0,.15,0,.08,0,.14,.04,.2,.1,.08,.08,.16,.17,.25,.26,0,.02,.02,.03,.03,.04,.02,.04,.05,.08,.08,.12,.03,.04,.07,.08,.08,.08l.76,.82-1.34-4.07-.24,1.23s-.01,.04-.02,.06v.06s0,.02-.01,.02c-.01,.03-.03,.05-.06,.11-.02,.02-.04,.05-.04,.06-.05,.06-.1,.1-.17,.13-.09,.04-.18,.08-.28,.11l-1.89,.62-.91-2.73s0-.04,0-.1c0-.01,.04-.05,.12-.08,.1-.04,.19-.08,.3-.11l.07-.02s.05-.02,.08-.04l4.21-1.37s.05-.02,.1-.02c.1-.03,.2-.04,.3-.06,.09-.01,.17,0,.25,0,.09,.02,.17,.05,.22,.09,.07,.06,.14,.13,.23,.23,.02,.02,.04,.04,.05,.06,.03,.04,.07,.08,.09,.09l.92,1.07-.94-2.86-10.47,3.45,1.61-.05c.07,0,.16-.02,.26-.02l.29-.03c.1,0,.2,0,.3,0,.09,0,.17,0,.26,0,.04,0,.07,0,.09,.01,.03,0,.06,.02,.07,.02,.05,.02,.08,.05,.09,.07,.03,.05,.05,.1,.07,.17l2.08,6.31s.02,.06,.04,.09l.03,.08s.01,.05,.02,.08c0,.03,.01,.07,.01,.1,0,.02,0,.04,0,.06l-.02,.09s-.03,.04-.04,.06c-.02,.02-.04,.04-.08,.07-.06,.05-.12,.1-.2,.15-.08,.06-.16,.11-.26,.18l-.23,.14"/><path class="cls-1" d="M101.11,127.58l1.25-.41s-.09-.03-.13-.05c-.15-.08-.27-.19-.33-.33-.05-.09-.09-.21-.14-.35l-.88-2.66c-.07-.23,.05-.47,.28-.54l1.92-.63c.08-.03,.16-.04,.26-.05,.02,0,.09-.01,.16-.01,.06,0,.12,0,.19,.01,.12,0,.24,.05,.34,.12l-.24-.72c-.03,.05-.06,.12-.08,.14-.12,.16-.23,.24-.36,.3-.1,.05-.21,.09-.32,.13l-1.89,.62c-.23,.07-.47-.05-.54-.27l-.91-2.73c-.04-.12-.03-.24-.01-.32,.01-.06,.03-.11,.07-.16,.07-.1,.17-.18,.31-.24,.11-.04,.21-.08,.33-.12,.03-.02,.1-.04,.14-.06l4.21-1.37s.09-.03,.18-.04c.07-.02,.18-.04,.29-.06,.13-.02,.26-.02,.38,0,.16,.03,.29,.08,.39,.16l-.17-.51-7.28,2.39s.12,.04,.14,.05c.12,.06,.21,.14,.27,.24,.04,.07,.08,.15,.11,.25l2.08,6.31s.03,.04,.04,.09c.04,.12,.05,.17,.06,.21,0,.05,.02,.09,.02,.13,0,.06,0,.18-.02,.24v.06s-.03,.08-.05,.11c0,.02-.04,.06-.06,.08Zm-.3-.44h0s0,0,0,0Zm-.37-.03l.35-.07-.4,.05h.04Z"/></g><g><path class="cls-1" d="M91.5,127.41c.49-.16,.75-.69,.59-1.17-.16-.49-.69-.75-1.17-.59-.49,.16-.75,.69-.59,1.17,.16,.49,.69,.75,1.17,.59Z"/><path class="cls-1" d="M91.64,127.82c-.71,.23-1.48-.15-1.72-.87-.23-.71,.15-1.48,.87-1.72,.71-.23,1.48,.15,1.72,.87s-.15,1.48-.87,1.72Zm-.58-1.77c-.26,.09-.4,.37-.32,.63s.37,.4,.63,.32c.26-.09,.4-.37,.32-.63-.09-.26-.37-.4-.63-.32Z"/></g></g><g><g><path class="cls-1" d="M12.18,93.1c.08-.04,.14-.06,.2-.07,.08,0,.16-.02,.24-.02l6.63-.41c.41-.03,.77-.09,1.1-.2,.61-.2,1.08-.55,1.4-1.04,.42-.64,.59-1.59,.52-2.81-.08-1.35-.4-2.32-.95-2.91-.56-.59-1.36-.86-2.39-.8l-5.94,.5c-.24,.01-.52-.02-.82-.09-.22-.05-.39-.12-.51-.2-.12-.08-.23-.2-.34-.34l-.37-.52,.25,4.01,.3-.85c.04-.11,.11-.24,.21-.39,.1-.15,.2-.27,.28-.35,.12-.12,.29-.21,.48-.26,.22-.06,.57-.1,1.05-.13l5.2-.48c.81-.05,1.39,.1,1.74,.45,.32,.32,.51,.88,.56,1.65,.08,1.27-.46,1.9-1.71,1.97l-6.31,.39c-.2,.01-.38,.01-.56,0-.2-.02-.31-.05-.36-.08-.18-.09-.33-.22-.46-.39l-.37-.47,.28,4.55,.3-.43c.08-.12,.19-.21,.32-.28Z"/><path class="cls-1" d="M12.23,92.84s.09-.02,.13-.03c.09-.01,.17-.02,.26-.02l6.63-.41c1.1-.07,1.89-.45,2.34-1.14,.39-.6,.55-1.5,.48-2.68-.08-1.3-.38-2.23-.89-2.77-.51-.54-1.26-.79-2.22-.73l-5.93,.5c-.27,.02-.56-.02-.89-.09-.25-.06-.44-.14-.58-.23-.12-.08-.22-.18-.32-.31l.14,2.23c.05-.1,.11-.2,.18-.31,.11-.17,.22-.3,.31-.39,.15-.15,.35-.26,.58-.31,.23-.06,.59-.11,1.09-.13l5.19-.48c.88-.05,1.52,.12,1.92,.51,.36,.36,.57,.96,.62,1.79,.08,1.4-.54,2.12-1.91,2.2l-6.31,.39c-.21,.01-.4,.01-.59,0-.23-.02-.36-.06-.43-.1-.18-.1-.34-.22-.47-.37l.2,3.24c.09-.11,.21-.2,.35-.27,0,0,0,0,0,0,.05-.03,.1-.05,.15-.06Z"/></g><g><path class="cls-1" d="M11.71,80.12c.1-.1,.19-.16,.25-.2,.16-.1,.26-.12,.31-.13,.05,0,.19,0,.52,.03l7.09,.83c.27,.03,.52,.08,.75,.16,.21,.07,.4,.17,.54,.3,.15,.13,.29,.32,.41,.56l.28,.53,.41-3.48-.39,.45c-.16,.18-.35,.34-.56,.46-.11,.06-.27,.1-.48,.11-.21,.01-.59-.01-1.11-.07l-5.97-.7,9.93-4.82-9.3-1.09c-.42-.05-.76-.11-1.01-.18-.23-.07-.42-.18-.56-.32-.09-.11-.15-.2-.19-.26-.06-.11-.11-.22-.15-.33l-.26-.75-.5,4.31,.47-.92c.05-.11,.16-.23,.31-.37,.13-.12,.19-.16,.22-.17,.11-.05,.21-.09,.29-.09,.09,0,.23,0,.4,.02l3.5,.41-5.24,2.43-.09,.04-.5,4.23,.44-.72c.05-.09,.13-.18,.23-.27Z"/><path class="cls-1" d="M12.12,79.61s.09-.02,.13-.03c.11-.01,.3,0,.57,.03l7.09,.83c.28,.03,.55,.09,.79,.17,.24,.08,.45,.19,.62,.34,.15,.13,.29,.31,.41,.53l.25-2.09c-.16,.17-.35,.31-.55,.43-.14,.08-.32,.12-.57,.14-.23,.01-.62-.01-1.15-.07l-5.97-.7c-.1-.01-.17-.08-.19-.18s.03-.19,.12-.23l9.27-4.49-8.57-1c-.43-.05-.79-.12-1.05-.19-.27-.08-.5-.21-.66-.39-.1-.13-.17-.23-.21-.29-.05-.08-.09-.17-.13-.25l-.26,2.23c.07-.09,.16-.19,.27-.3,.14-.14,.22-.18,.26-.2,.14-.07,.26-.11,.37-.12,.11-.01,.25,0,.44,.02l3.5,.41c.1,.01,.17,.08,.19,.18,.01,.1-.03,.19-.12,.23l-5.23,2.42-.37,3.14c.05-.07,.11-.14,.19-.21h0c.11-.11,.21-.18,.29-.23,.1-.06,.18-.1,.26-.12Z"/></g><g><path class="cls-1" d="M13.83,67.47c.08-.03,.15-.04,.2-.03,.08,0,.19,.03,.33,.07l8.01,2.14c.11,.03,.23,.07,.37,.14,.17,.08,.25,.13,.27,.15,.02,.01,.07,.07,.17,.25,.05,.09,.08,.17,.11,.25l.2,.55,1.17-4.37-.46,.42s-.11,.09-.18,.14c-.06,.04-.13,.07-.2,.09-.1,.03-.2,.04-.31,.01-.15-.03-.3-.07-.46-.12l-7.6-2.03c-.16-.04-.33-.1-.48-.18-.14-.07-.26-.15-.33-.23-.05-.06-.09-.11-.13-.17-.04-.06-.07-.12-.09-.18l-.2-.57-1.12,4.18,.42-.31c.16-.12,.27-.17,.32-.19Z"/><path class="cls-1" d="M13.76,67.27c.11-.04,.21-.05,.29-.04,.08,0,.2,.03,.36,.08l8,2.14c.12,.03,.25,.08,.4,.15,.16,.07,.26,.13,.32,.18,.06,.05,.13,.15,.22,.3,.04,.07,.06,.13,.09,.19l.8-3.01s-.08,.06-.13,.09c-.09,.06-.17,.1-.27,.12-.12,.05-.26,.05-.41,.01-.15-.03-.3-.07-.47-.12l-7.6-2.04c-.17-.04-.35-.11-.52-.19-.17-.08-.3-.18-.39-.27-.06-.07-.1-.13-.15-.2-.03-.05-.06-.1-.08-.15l-.78,2.92c.12-.08,.22-.14,.31-.17Z"/></g><path class="cls-1" d="M20.37,62.06c1.19,.52,2.27,.72,3.21,.58,.51-.07,1.11-.3,1.85-.68,0,.15,.01,.29,.04,.41,.05,.2,.12,.38,.19,.55,.05,.1,.12,.23,.26,.26,.05,.01,.1,0,.14,0,.03,0,.05-.02,.07-.04,.07-.05,.19-.17,.14-.41-.05-.26,0-.55,.12-.85,.22-.51,.71-.98,1.45-1.39,.71-.37,1.41-.74,2.13-1.12,.84-.54,1.44-1.22,1.79-2.03,.29-.67,.41-1.41,.36-2.2-.06-.85-.26-1.34-.63-1.5l-.22-.1-.03,.24c-.01,.09-.03,.18-.04,.3,.03,.51-.04,.95-.19,1.31-.13,.28-.35,.61-.68,.97-.33,.37-.65,.66-.95,.88l-1.69,1.26c-.02-1.13-.25-2.1-.67-2.89-.56-1.05-1.51-1.87-2.81-2.44-1.37-.6-2.72-.76-4.03-.46-1.48,.32-2.52,1.17-3.1,2.49-.57,1.3-.49,2.65,.23,4.02,.67,1.28,1.69,2.23,3.04,2.82Zm-1.86-7.22c.15-.05,.31-.08,.49-.08,.5-.02,1.19,.13,2.06,.44,.36,.13,1.1,.44,2.19,.92h0c.86,.38,1.5,.68,1.91,.91,.69,.39,1.17,.78,1.43,1.17,.31,.47,.35,.98,.1,1.54-.2,.46-.51,.72-.97,.77-.55,.08-1.48-.17-2.76-.73l-2.27-1c-1.48-.65-2.43-1.25-2.81-1.8-.32-.45-.37-.92-.14-1.45,.16-.35,.41-.59,.76-.7Z"/><g><path class="cls-1" d="M22.16,47.24c.08,.01,.15,.04,.2,.07,.07,.04,.14,.09,.2,.13l5.48,3.76c.96,.66,1.87,.85,2.7,.57h.03c.72-.26,1.44-.9,2.14-1.91,.76-1.11,1.11-2.08,1.04-2.88-.08-.81-.54-1.52-1.39-2.1l-4.98-3.26c-.2-.14-.4-.33-.59-.58-.14-.17-.23-.33-.27-.47s-.06-.3-.05-.48l.03-.64-2.29,3.33,.77-.49c.18-.12,.62-.26,.85-.28,.17-.02,.35,.01,.54,.09,.2,.09,.51,.27,.91,.55l4.39,2.82c.67,.46,1.04,.94,1.1,1.43,.06,.45-.14,1.01-.58,1.65-.35,.52-.74,.82-1.17,.9-.42,.08-.89-.05-1.39-.4l-5.21-3.58c-.16-.11-.3-.22-.44-.35-.15-.14-.21-.23-.24-.28-.08-.18-.12-.38-.12-.59v-.59s-2.58,3.76-2.58,3.76l.51-.16c.14-.04,.27-.05,.42-.02Z"/><path class="cls-1" d="M22.19,47.03c.11,.02,.21,.05,.28,.1,.07,.04,.14,.09,.21,.13l5.48,3.77c.9,.62,1.74,.8,2.51,.55,.71-.24,1.39-.85,2.06-1.83,.73-1.07,1.07-1.99,1-2.73-.07-.74-.51-1.4-1.3-1.94l-4.98-3.26c-.22-.15-.44-.37-.65-.63-.16-.19-.26-.37-.31-.54-.04-.13-.06-.28-.06-.44l-1.27,1.84c.24-.11,.6-.23,.82-.25,.21-.02,.43,.02,.64,.11,.22,.1,.53,.28,.94,.56l4.39,2.82c.72,.5,1.12,1.03,1.19,1.58,.06,.51-.14,1.11-.61,1.8-.39,.57-.82,.89-1.3,.99-.48,.09-1-.05-1.56-.44l-5.21-3.58c-.17-.12-.32-.24-.46-.37-.13-.13-.23-.24-.28-.34-.09-.19-.13-.38-.14-.59l-1.84,2.68c.14-.03,.29-.03,.44,0Z"/></g><g><path class="cls-1" d="M30,36.37c.07,0,.14,0,.21,.02,.14,.02,.29,.11,.44,.26l5.39,5.37c.22,.22,.39,.42,.53,.61,.12,.17,.19,.33,.21,.47,.03,.26,0,.51-.1,.77l-.32,.82,4.51-4.53c.06-.06,.16-.16,.3-.28,.12-.11,.23-.19,.33-.22,.2-.06,.39-.1,.58-.08l.31,.03-.78-1.82c-.15-.36-.27-.68-.38-.97-.06-.16-.18-.49-.34-.96l-.43-1.26,.07,1.33c.02,.29,.03,.59,.04,.87-.01,.69-.1,1.33-.24,1.9-.2,.78-.53,1.4-.98,1.85-.32,.32-.55,.25-.7,.18-.05-.03-.23-.15-.77-.69l-2.31-2.3s0,0,.01-.01c.35-.35,.72-.69,1.1-1.01,.45-.38,.71-.5,.85-.53,.33-.07,.67-.08,.99-.03l.57,.1-2.58-2.57,.04,.49c.02,.23,.02,.43,0,.6-.02,.16-.07,.36-.15,.6-.05,.17-.15,.36-.3,.56-.15,.22-.41,.5-.75,.85-.12,.12-.22,.22-.3,.29-.03,.03-.06,.05-.08,.08l-2.22-2.21c-.13-.13-.2-.28-.21-.45,0-.16,.07-.32,.24-.48,.38-.38,.9-.68,1.54-.89h.02c.47-.16,.97-.25,1.48-.29l1.54-.04-.8-.33c-.28-.12-.52-.22-.72-.31-.2-.09-.42-.21-.67-.34-.25-.13-.46-.25-.63-.36-.17-.11-.36-.23-.57-.38l-.27-.19v.33c-.03,.29-.1,.57-.22,.83-.08,.16-.15,.3-.23,.4-.08,.11-.2,.24-.33,.37l-3.91,3.92,.8-.3c.06-.03,.15-.05,.23-.05Z"/><path class="cls-1" d="M29.82,36.18c.05-.01,.11-.02,.15-.02,0,0,0,0,0,0,.1,0,.19,0,.28,.02,.17,.03,.35,.13,.53,.31l5.39,5.37c.23,.23,.41,.44,.55,.63,.14,.2,.23,.4,.25,.57,.03,.25,0,.49-.07,.74l3.79-3.8c.07-.06,.17-.16,.31-.29,.14-.13,.27-.22,.4-.26,.25-.08,.44-.11,.61-.1l-.64-1.49c-.15-.37-.28-.69-.39-.98-.05-.14-.14-.39-.27-.75,.01,.22,.02,.43,.03,.64-.01,.72-.1,1.38-.25,1.96-.21,.82-.56,1.47-1.03,1.95-.31,.31-.63,.38-.95,.22-.18-.09-.55-.45-.83-.72l-2.31-2.3s-.06-.1-.06-.16c0-.06,.03-.11,.07-.15,.34-.34,.72-.69,1.12-1.03,.38-.32,.7-.52,.94-.58,.33-.07,.66-.09,.98-.04l-1.68-1.68c.01,.21,0,.4,0,.56-.02,.18-.07,.39-.16,.64-.06,.19-.17,.4-.33,.61-.16,.22-.42,.52-.77,.87-.12,.12-.22,.22-.31,.3l-.05,.04c-.09,.08-.25,.11-.33,.03l-2.22-2.21c-.17-.17-.26-.37-.27-.59,0-.22,.09-.43,.3-.64,.4-.41,.95-.72,1.62-.94,.5-.16,1.02-.26,1.56-.3h.53c-.23-.11-.42-.2-.59-.27-.2-.1-.43-.21-.68-.35-.25-.13-.46-.26-.64-.37-.16-.1-.34-.22-.53-.35-.02,.29-.09,.58-.22,.85-.08,.18-.17,.33-.25,.44-.09,.12-.21,.25-.35,.4l-3.21,3.23Z"/></g><g><path class="cls-1" d="M39.49,27.55c.08,.01,.18,.04,.28,.08,.1,.04,.18,.09,.25,.17,.09,.09,.18,.21,.28,.35l4.53,6.51c.08,.12,.16,.24,.22,.36,.07,.13,.09,.2,.09,.24,0,.04,0,.12-.02,.31-.02,.13-.05,.25-.11,.35l-.42,.72,4.62-3.21c.2-.14,.35-.24,.45-.29,.08-.04,.16-.07,.26-.08,.22-.03,.42,0,.6,.12l.43,.27-.15-.48c-.18-.59-.34-1.19-.47-1.8-.11-.45-.22-1.04-.33-1.76-.02-.09-.03-.21-.05-.34,0-.17-.03-.21-.09-.25l-.34-.23,.05,.41s0,.07,.01,.1c0,.09-.04,.32-.15,.84-.16,.76-.36,1.42-.59,1.96-.32,.75-.68,1.26-1.07,1.54-.1,.07-.17,.09-.24,.09-.06,0-.13-.07-.2-.17l-4.67-6.72-.17-.24c-.09-.14-.16-.25-.2-.34-.03-.08-.05-.17-.05-.27,0-.07,.02-.19,.1-.39l.25-.59-4.01,2.79,.65-.04c.08,0,.17,0,.25,0Z"/><path class="cls-1" d="M39.33,27.33c.06,0,.12,0,.18,.01,0,0,0,0,0,0,.1,.01,.2,.04,.33,.09,.12,.05,.23,.12,.33,.22,.1,.1,.2,.23,.31,.38l4.53,6.51c.09,.13,.17,.25,.23,.38,.07,.12,.1,.23,.12,.31,0,.05,.01,.14-.02,.36-.01,.12-.04,.22-.08,.31l3.83-2.67c.21-.14,.36-.24,.46-.3,.1-.06,.21-.09,.34-.11,.24-.04,.47,0,.67,.11-.17-.57-.33-1.16-.45-1.74-.11-.45-.22-1.04-.33-1.77,0-.03-.01-.07-.02-.11-.03,.16-.07,.38-.13,.65-.16,.78-.36,1.45-.6,2-.33,.78-.72,1.33-1.15,1.63-.14,.1-.27,.14-.39,.12-.13-.02-.24-.1-.35-.26l-4.84-6.96c-.1-.14-.17-.26-.22-.37-.05-.12-.07-.23-.07-.36,0-.1,.03-.22,.08-.37l-2.78,1.93Z"/></g><g><path class="cls-1" d="M48.32,22.02c.06,.01,.18,.05,.41,.18,.06,.03,.6,.34,1.07,.6l3.4,1.99,1.8,3.7c.08,.17,.12,.38,.11,.61-.03,.17-.08,.34-.15,.5l-.22,.47,4.21-2.05-.6-.08c-.24-.03-.44-.12-.59-.24-.16-.14-.3-.33-.41-.57l-1.88-3.88,.41-3.77c.02-.17,.04-.34,.07-.51,.03-.17,.08-.34,.14-.51,.06-.17,.13-.34,.22-.5,.09-.16,.2-.33,.34-.5l.5-.63-3.73,1.81,.65,.06c.07,0,.2,.04,.42,.16,.12,.07,.21,.14,.26,.22,.05,.06,.08,.14,.1,.24,.03,.1,.03,.22,.02,.34l-.24,3.01-2.75-1.68c-.11-.06-.2-.11-.26-.17-.14-.1-.24-.2-.28-.29-.02-.04-.03-.08-.03-.12,0-.17,.05-.32,.16-.45l.54-.65-5.42,2.63,.87-.03c.29-.01,.58,.02,.87,.1Z"/><path class="cls-1" d="M48.37,21.81c.1,.02,.25,.09,.46,.19,.05,.03,.42,.23,1.07,.61l3.41,1.99s.07,.05,.08,.09l1.8,3.7c.1,.2,.14,.45,.13,.71-.03,.18-.07,.34-.14,.5l3.03-1.47c-.24-.05-.44-.14-.6-.28-.18-.16-.34-.37-.47-.64l-1.88-3.87s-.03-.08-.02-.12l.41-3.77c.02-.17,.04-.35,.08-.52,.03-.18,.08-.36,.14-.54,.06-.18,.14-.36,.24-.54,.07-.14,.17-.28,.28-.43l-2.21,1.08c.11,.03,.25,.08,.41,.17,.16,.09,.27,.18,.34,.28,.06,.08,.1,.18,.13,.31,.03,.12,.04,.26,.03,.41l-.24,3.01c0,.07-.05,.14-.12,.17-.07,.03-.15,.03-.21,0l-2.75-1.68c-.12-.06-.21-.12-.29-.18-.17-.12-.28-.24-.34-.36-.03-.06-.05-.13-.05-.2,0-.18,.04-.35,.13-.49l-3.63,1.76c.26,0,.52,.04,.79,.1Z"/></g><g><path class="cls-1" d="M73.34,23.89c.26-.05,.5-.11,.74-.18,.7-.23,1.29-.6,1.74-1.11,.61-.67,.96-1.5,1.05-2.46l.06-.63-.38,.5c-.59,.76-1.31,1.22-2.14,1.37-1.05,.19-1.99-.12-2.85-.95-.81-.77-1.33-1.77-1.54-2.98-.16-.88-.15-1.63,.02-2.21,.2-.71,.61-1.12,1.28-1.23,.46-.08,1,.19,1.58,.8,.2,.21,.45,.55,.77,1l.22,.31,.11-.37c.06-.19,.12-.39,.19-.6,.07-.21,.14-.41,.21-.62,.15-.44,.32-.86,.48-1.24l.08-.19-.2-.06c-.89-.28-1.82-.33-2.77-.17-.76,.14-1.41,.4-1.93,.78-.78,.58-1.36,1.42-1.74,2.5-.37,1.08-.46,2.19-.27,3.32,.23,1.33,.86,2.45,1.86,3.33,1.05,.92,2.2,1.28,3.42,1.07Z"/><path class="cls-1" d="M73.3,23.67c.99-.17,1.78-.59,2.36-1.22,.55-.61,.88-1.36,.98-2.23-.61,.76-1.35,1.22-2.2,1.37-1.13,.2-2.12-.13-3.04-1.01-.84-.81-1.38-1.85-1.6-3.09-.16-.92-.15-1.69,.02-2.31,.22-.79,.71-1.26,1.46-1.38,.54-.09,1.13,.2,1.78,.87,.19,.21,.45,.54,.75,.97,.05-.17,.11-.35,.17-.54,.07-.21,.14-.42,.22-.63,.15-.42,.31-.84,.47-1.22-.85-.26-1.73-.31-2.63-.15-.73,.13-1.35,.38-1.84,.74-.74,.55-1.3,1.36-1.66,2.4-.36,1.05-.45,2.12-.26,3.21,.23,1.28,.83,2.36,1.79,3.21,1,.88,2.09,1.22,3.24,1.02h0Z"/></g><path class="cls-1" d="M83.66,22.52c-.08-.04-.15-.1-.21-.17-.09-.09-.15-.17-.19-.25-.03-.07-.05-.16-.06-.26,0-.13-.01-.29,0-.48l.04-3.52h.27s1.5,3.52,1.5,3.52c.08,.19,.14,.35,.17,.48,.02,.11,.03,.2,.02,.27-.03,.16-.12,.31-.28,.45l-.33,.31,5.13,.05-.58-.35c-.12-.07-.22-.14-.31-.2-.09-.06-.17-.12-.25-.19-.14-.13-.26-.26-.36-.39-.11-.14-.2-.3-.29-.48l-1.85-3.81c.42-.12,.73-.24,.95-.38,.8-.47,1.21-1.18,1.21-2.1,.01-.95-.38-1.71-1.16-2.25-.76-.53-1.78-.81-3.05-.82-.85,0-1.66,.01-2.4,.06-.71,.05-1.19,.11-1.45,.2-.02,0-.03,.01-.04,.02l-.43,.16,.42,.18c.1,.04,.19,.11,.29,.2,.08,.07,.13,.14,.18,.2,.04,.06,.06,.11,.07,.16,.01,.06,.01,.14,.01,.24l-.09,8.01c0,.15-.02,.29-.05,.41-.03,.12-.07,.21-.11,.28-.09,.17-.23,.3-.43,.4l-.64,.34,4.92,.05-.62-.35Zm1.88-7.59c0,.73-.17,1.28-.49,1.64-.31,.35-.83,.52-1.54,.51l-.28-.02,.04-3.77c0-.18,.07-.32,.2-.44,.13-.13,.3-.18,.5-.18,.57,0,.98,.26,1.26,.77,.21,.4,.32,.9,.31,1.49Z"/><g><path class="cls-1" d="M94.15,23.72l-.36-.41c-.19-.21-.3-.43-.34-.67-.02-.14-.02-.25,0-.35,.02-.11,.06-.21,.12-.31,.06-.12,.13-.24,.2-.35l.57-.95,2.74,.55,.22,1.7c.01,.14,.01,.25,0,.32-.03,.12-.08,.24-.18,.36-.1,.11-.24,.21-.41,.28l-.58,.23,5.05,1.02-.42-.43c-.11-.12-.19-.2-.22-.25-.09-.11-.17-.23-.23-.35-.12-.23-.22-.59-.29-1.06l-1.63-10.06-5.49,8.36c-.3,.47-.65,.84-1.06,1.09-.21,.14-.42,.25-.65,.33l-.61,.22,3.59,.72Zm2.43-6.44l.39,2.97-2.08-.42,1.69-2.55Z"/><path class="cls-1" d="M96.87,24.05l3.66,.74c-.08-.09-.14-.15-.17-.19-.09-.12-.18-.24-.25-.37-.13-.26-.24-.64-.32-1.13l-1.54-9.51-5.19,7.89c-.31,.5-.69,.89-1.12,1.16-.18,.12-.38,.23-.59,.31l2.22,.45c-.18-.22-.29-.46-.33-.71-.02-.16-.02-.3,0-.43,.03-.13,.07-.25,.14-.37,.07-.12,.13-.24,.2-.36l.57-.96c.05-.08,.14-.12,.23-.1l2.74,.55c.09,.02,.16,.09,.17,.18l.22,1.7c.02,.16,.01,.29,0,.39-.03,.16-.11,.31-.23,.46-.1,.12-.24,.23-.41,.3Zm.16-3.59s-.07,.01-.11,0l-2.08-.42c-.07-.01-.13-.06-.16-.13-.03-.07-.02-.14,.02-.2l1.69-2.55c.05-.08,.14-.11,.23-.09,.09,.02,.15,.09,.17,.18l.39,2.97c0,.07-.02,.14-.07,.19-.02,.02-.05,.04-.08,.05Z"/></g><g><path class="cls-1" d="M107.05,27.07c-.05-.08-.1-.17-.14-.28-.05-.13-.06-.18-.06-.18,0-.12,.02-.24,.05-.35,.03-.12,.08-.25,.13-.4l1.54-3.8,.44,.18c.29,.12,.57,.25,.84,.4,.25,.14,.43,.27,.52,.39,.27,.33,.43,.71,.47,1.13l.08,.72,1.57-3.88-.55,.43c-.3,.24-.66,.39-1.06,.44-.16,.03-.37,0-.61-.06-.26-.07-.57-.18-.94-.33l-.46-.19,1.21-2.98c.06-.16,.14-.26,.24-.3,.05-.02,.19-.04,.55,.1,.63,.25,1.2,.83,1.72,1.71,.17,.29,.36,.71,.58,1.26l.3,.76,.05-.81c.02-.37,.04-.64,.06-.83,0-.05,.03-.32,.09-.82l.18-1.78-.31,.18c-.23,.13-.49,.2-.77,.19-.13,0-.23-.02-.29-.03-.07-.02-.17-.06-.3-.11l-5.38-2.18,.66,.65c.06,.06,.11,.13,.15,.24,.03,.06,.05,.13,.07,.21,.02,.11,.01,.14,.01,.16,0,0,0,.05-.05,.15-.01,.03-.03,.07-.05,.13l-2.99,7.37c-.09,.22-.18,.41-.26,.58-.09,.18-.16,.24-.2,.26-.07,.05-.17,.1-.29,.14-.11,.05-.22,.08-.34,.1l-.66,.1,4.52,1.81-.33-.49Z"/><path class="cls-1" d="M103.66,25.84l3.16,1.27c-.04-.07-.07-.15-.11-.24-.03-.09-.05-.15-.06-.18h0s-.02-.06-.02-.09c0-.13,.02-.27,.05-.4,.03-.13,.08-.27,.14-.43l1.54-3.8c.02-.05,.06-.1,.12-.12,.05-.02,.11-.02,.17,0l.44,.18c.3,.12,.59,.26,.87,.41,.28,.15,.47,.3,.59,.45,.26,.33,.43,.71,.5,1.12l.94-2.33c-.31,.22-.67,.36-1.07,.41-.18,.03-.42,0-.7-.07-.26-.07-.57-.18-.96-.34l-.46-.19c-.05-.02-.1-.06-.12-.12-.02-.05-.02-.11,0-.17l1.21-2.98c.09-.21,.21-.35,.36-.42,.14-.07,.38-.03,.71,.1,.67,.27,1.29,.88,1.82,1.8,.16,.28,.34,.67,.54,1.16,.02-.3,.04-.53,.05-.69,0-.03,.01-.16,.09-.82l.13-1.36c-.26,.13-.54,.2-.83,.19-.15,0-.26-.02-.35-.04-.08-.02-.18-.06-.3-.11l-4.41-1.79c.04,.06,.08,.13,.11,.21,.03,.07,.06,.16,.08,.25,.02,.11,.02,.17,.02,.21,0,.02,0,.04-.01,.06,0,0-.01,.06-.06,.16,0,.02-.03,.07-.05,.13l-2.99,7.37c-.09,.23-.18,.43-.27,.6-.09,.17-.18,.28-.27,.34-.09,.06-.2,.11-.33,.16-.09,.03-.17,.06-.27,.09Z"/></g><g><path class="cls-1" d="M117.48,22.58c.92-.37,1.63-.4,2.12-.11,.13,.08,.14,.15,.13,.22-.01,.14-.07,.29-.16,.45l-3.82,6.28c-.23,.38-.4,.64-.51,.8-.09,.13-.19,.22-.29,.26-.19,.07-.36,.11-.52,.11h-.63s4.2,2.57,4.2,2.57l-.25-.54c-.06-.14-.1-.28-.11-.41-.01-.13,0-.24,.04-.34,.05-.11,.12-.25,.22-.42l4.16-6.84c.08-.13,.17-.24,.27-.32,.07-.05,.14-.08,.21-.06,.11,.02,.2,.05,.26,.09,.38,.23,.62,.85,.69,1.84,.03,.34,.03,.83,0,1.46l-.06,1.11,1.96-4.86-.38,.13c-.13,.05-.25,.08-.34,.08-.1,0-.22,0-.37-.02-.15-.02-.28-.05-.4-.09-.12-.04-.25-.11-.4-.2l-3.67-2.23c-.19-.12-.35-.22-.47-.32-.11-.08-.2-.18-.27-.3-.07-.12-.13-.23-.16-.32-.03-.1-.05-.21-.06-.33l-.03-.43-2.69,2.94c-.22,.15-.26,.26-.23,.38l.09,.31,.38-.41c.14-.09,.45-.24,1.09-.49Z"/><path class="cls-1" d="M114.53,30.79l2.98,1.81c-.05-.14-.08-.27-.09-.39-.02-.16,0-.31,.06-.44,.05-.13,.13-.28,.23-.45l4.16-6.84c.09-.15,.19-.28,.32-.38,.13-.1,.26-.13,.39-.11,.14,.03,.25,.07,.34,.12,.45,.27,.71,.93,.8,2.01,.03,.31,.03,.75,0,1.3l1.29-3.21c-.13,.04-.24,.07-.33,.07-.11,0-.25,0-.41-.02-.17-.02-.31-.06-.45-.1-.13-.04-.28-.12-.44-.22l-3.67-2.23c-.21-.13-.37-.24-.49-.34-.12-.1-.23-.21-.31-.35-.09-.14-.15-.26-.18-.36-.03-.1-.05-.2-.06-.31l-2.23,2.43c.22-.12,.55-.26,.97-.42,.99-.39,1.76-.42,2.31-.09,.17,.1,.25,.25,.23,.43-.02,.17-.08,.35-.19,.53l-3.82,6.28c-.23,.38-.4,.65-.52,.81-.12,.17-.25,.28-.39,.33-.16,.06-.32,.1-.48,.12Zm2.95-8.21h0s0,0,0,0Z"/></g><g><path class="cls-1" d="M123.03,35.13c-.16,.13-.32,.21-.46,.24-.26,.05-.52,.03-.77-.06l-.84-.27,4.66,4.14,.11,.1c.06,.06,.17,.15,.3,.28,.12,.11,.2,.22,.24,.31,.08,.2,.12,.39,.12,.57v.31s1.76-.89,1.76-.89c.35-.17,.67-.31,.94-.43,.16-.07,.48-.21,.95-.4l1.22-.49-1.31,.14c-.29,.03-.59,.06-.86,.09-.69,.02-1.34-.02-1.92-.13-.79-.16-1.43-.45-1.9-.87-.34-.3-.28-.54-.22-.69,.02-.05,.13-.24,.64-.81l2.17-2.44h.01c.36,.33,.72,.68,1.08,1.05,.41,.43,.54,.68,.58,.82,.09,.32,.12,.66,.08,.99l-.06,.57,2.41-2.71-.49,.06c-.24,.03-.44,.04-.6,.03-.16,0-.36-.05-.61-.11-.17-.04-.36-.13-.57-.26-.22-.14-.52-.38-.89-.7-.13-.11-.23-.2-.31-.28-.03-.03-.06-.05-.08-.08l2.08-2.34c.13-.14,.27-.22,.43-.24,.16-.02,.32,.05,.5,.21,.41,.36,.74,.87,.99,1.5,.18,.45,.3,.95,.37,1.47l.12,1.53,.29-.81c.1-.29,.19-.54,.27-.74,.08-.2,.18-.43,.3-.69,.12-.26,.23-.47,.33-.65,.1-.18,.21-.37,.35-.59l.17-.28h-.33c-.29,0-.57-.04-.84-.15-.16-.06-.3-.13-.41-.21-.12-.08-.25-.18-.39-.31l-4.12-3.66,.32,.76c.03,.08,.06,.15,.07,.23,.01,.07,0,.13,0,.2-.01,.14-.09,.29-.23,.45l-5.05,5.68c-.21,.23-.4,.42-.58,.56Z"/><path class="cls-1" d="M123.03,35.13h0s0,0,0,0Z"/></g><path class="cls-1" d="M130.51,42.75c-.09,0-.19-.02-.3-.06-.1-.03-.2-.08-.29-.14l-.48-.33,.2,.54c.11,.3,.36,.73,.76,1.31,.38,.56,.74,1.06,1.07,1.47,1.25,1.59,2.61,2.48,4.04,2.65,.65,.08,1.3,0,1.94-.2s1.29-.57,1.92-1.07h0c1.29-1.02,2.08-2.16,2.33-3.41,.31-1.51-.19-3.11-1.49-4.76l-.09-.11c-.27-.35-.6-.73-.98-1.14-.37-.41-.76-.74-1.13-.98l-.4-.26,.12,.46c.03,.12,.04,.24,.02,.35-.01,.11-.04,.19-.08,.24-.05,.06-.14,.14-.26,.24l-6.23,4.88c-.26,.2-.49,.31-.69,.31Zm6.94,1.98c-.67,.52-1.2,.9-1.64,1.15-.63,.36-1.2,.56-1.68,.59-.56,.03-1-.17-1.35-.62-.25-.32-.32-.6-.19-.85,.05-.11,.22-.32,.69-.69l5.5-4.31c.32-.25,.5-.35,.6-.38,.02,0,.03,0,.04-.01,.18-.04,.38,.08,.59,.34,.06,.07,.1,.13,.13,.19,.39,.6,.27,1.35-.38,2.29-.5,.73-1.29,1.51-2.33,2.33h0Z"/></g><g><path class="cls-1" d="M50.2,57.38c-1.33,.44-2.16,.14-2.71-.06-.11-.04-.21-.08-.3-.1l-.14-.04-.63,1.19,.23,.11c.61,.3,1.87,.92,3.93,.25,1.7-.56,3.17-1.84,2.64-3.44-.5-1.51-1.86-1.91-4.05-1.19l-.9,.3c-.88,.29-1.11,0-1.2-.29-.23-.7,.75-1.3,1.46-1.54,.97-.32,1.53-.18,2.12-.04l.41,.09,.35-1.14,.05-.17-.17-.05c-1.08-.35-2.16-.36-3.22,0-1.49,.49-2.82,1.81-2.33,3.3,.44,1.32,1.78,1.55,2.84,1.2l1.02-.34c1.04-.34,2-.58,2.29,.3,.24,.73-.91,1.4-1.68,1.66Z"/><rect class="cls-1" x="58.22" y="48.05" width="1.4" height="7.58" transform="translate(-13.25 21.01) rotate(-18.21)"/><polygon class="cls-1" points="72.46 51.37 73.71 50.96 71.34 43.76 70.01 44.2 71.62 49.11 66.24 45.51 66.17 45.46 64.93 45.87 67.29 53.07 68.62 52.63 67.01 47.73 72.39 51.32 72.46 51.37"/><path class="cls-1" d="M80.93,41.92c1.28-.42,2.31-.01,2.75,.16l.2,.08,.72-1.17-.18-.09c-1.62-.79-3.03-.61-3.93-.31-2.11,.69-3.22,2.91-2.52,5.04,.76,2.31,3.14,3.06,5,2.45,2.07-.68,2.68-1.7,3.09-2.6l.07-.15-1.22-.68-.08,.19c-.24,.6-.8,1.41-2.06,1.83-1.75,.57-3.09-.33-3.47-1.48-.53-1.6,.45-2.88,1.63-3.27Z"/><polygon class="cls-1" points="97.37 41.7 92.57 43.28 91.99 41.53 94.32 40.77 93.89 39.43 91.55 40.2 91.08 38.74 95.7 37.22 95.26 35.89 89.31 37.85 91.67 45.05 97.81 43.03 97.37 41.7"/></g><g><g><g><path class="cls-1" d="M40.15,59.17c.65-.21,.99-.89,.77-1.53-.21-.65-.89-.99-1.53-.77-.65,.21-.99,.89-.77,1.53s.89,.99,1.53,.77Z"/><path class="cls-1" d="M40.29,59.58c-.88,.29-1.79-.17-2.08-1.05-.29-.88,.17-1.79,1.05-2.08,.88-.29,1.79,.17,2.08,1.05,.29,.88-.17,1.79-1.05,2.08Zm-.76-2.31c-.42,.14-.64,.57-.5,.99,.14,.42,.57,.64,.99,.5,.42-.14,.64-.57,.5-.99-.14-.42-.56-.64-.99-.5Z"/></g><g><path class="cls-1" d="M40.22,59.37c-.76,.25-1.55-.15-1.81-.91-.25-.76,.15-1.56,.91-1.81s1.56,.15,1.81,.91c.25,.76-.15,1.55-.91,1.81Zm-.76-2.31c-.53,.17-.81,.73-.64,1.26s.73,.81,1.26,.64c.53-.17,.81-.73,.64-1.26-.17-.53-.73-.81-1.26-.64Z"/><path class="cls-1" d="M40.35,59.78c-.99,.33-2.02-.2-2.35-1.19s.19-2.02,1.19-2.35c.99-.33,2.02,.2,2.35,1.19,.33,.99-.2,2.02-1.19,2.35Zm-.76-2.31c-.31,.1-.46,.41-.36,.72,.1,.31,.41,.46,.72,.36s.46-.41,.36-.72-.41-.46-.72-.36Z"/></g></g><g><g><circle class="cls-1" cx="102.92" cy="37.24" r="1.21"/><path class="cls-1" d="M103.44,38.8c-.88,.29-1.79-.17-2.08-1.05-.29-.88,.17-1.79,1.05-2.08,.88-.29,1.79,.17,2.08,1.05,.29,.88-.17,1.79-1.05,2.08Zm-.76-2.31c-.42,.14-.64,.57-.5,.99s.57,.64,.99,.5c.42-.14,.64-.57,.5-.99-.14-.42-.57-.64-.99-.5Z"/></g><g><path class="cls-1" d="M103.37,38.6c-.76,.25-1.55-.15-1.81-.91s.15-1.56,.91-1.81c.76-.25,1.55,.15,1.81,.91,.25,.76-.15,1.55-.91,1.81Zm-.76-2.31c-.53,.17-.81,.73-.64,1.26,.17,.53,.73,.81,1.26,.64,.53-.17,.81-.73,.64-1.26-.17-.53-.73-.81-1.26-.64Z"/><path class="cls-1" d="M103.5,39.01c-.99,.33-2.02-.2-2.35-1.19-.33-.99,.19-2.02,1.19-2.35,.99-.33,2.02,.2,2.35,1.19,.33,.99-.2,2.02-1.19,2.35Zm-.76-2.31c-.31,.1-.46,.41-.36,.72,.1,.31,.41,.46,.72,.36s.46-.41,.36-.72c-.1-.31-.41-.46-.72-.36Z"/></g></g><g><g><path class="cls-1" d="M79.9,129.07c-.65,.21-.99,.89-.77,1.53,.21,.65,.89,.99,1.53,.77s.99-.89,.77-1.53-.89-.99-1.53-.77Z"/><path class="cls-1" d="M80.79,131.79c-.88,.29-1.79-.17-2.08-1.05s.17-1.79,1.05-2.08c.88-.29,1.79,.17,2.08,1.05,.29,.88-.17,1.79-1.05,2.08Zm-.76-2.31c-.42,.14-.64,.56-.5,.99,.14,.42,.57,.64,.99,.5,.42-.14,.64-.57,.5-.99-.14-.42-.57-.64-.99-.5Z"/></g><g><path class="cls-1" d="M80.73,131.58c-.76,.25-1.55-.15-1.81-.91-.25-.76,.15-1.55,.91-1.81,.76-.25,1.56,.15,1.81,.91,.25,.76-.15,1.55-.91,1.81Zm-.76-2.31c-.53,.17-.81,.73-.64,1.26s.73,.81,1.26,.64c.53-.17,.81-.73,.64-1.26s-.73-.81-1.26-.64Z"/><path class="cls-1" d="M80.86,131.99c-.99,.33-2.02-.2-2.35-1.19-.33-.99,.2-2.02,1.19-2.35,.99-.33,2.02,.2,2.35,1.19,.33,.99-.2,2.02-1.19,2.35Zm-.76-2.31c-.31,.1-.46,.41-.36,.72s.41,.46,.72,.36,.46-.41,.36-.72-.41-.46-.72-.36Z"/></g></g><g><g><path class="cls-1" d="M112.81,118.24c-.65,.21-.99,.89-.77,1.53,.21,.65,.89,.99,1.53,.77,.65-.21,.99-.89,.77-1.53-.21-.65-.89-.99-1.53-.77Z"/><path class="cls-1" d="M113.71,120.96c-.88,.29-1.79-.17-2.08-1.05-.29-.88,.17-1.79,1.05-2.08,.88-.29,1.79,.17,2.08,1.05,.29,.88-.17,1.79-1.05,2.08Zm-.76-2.31c-.42,.14-.64,.57-.5,.99,.14,.42,.57,.64,.99,.5,.42-.14,.64-.57,.5-.99s-.57-.64-.99-.5Z"/></g><g><path class="cls-1" d="M113.64,120.75c-.76,.25-1.55-.15-1.81-.91-.25-.76,.15-1.55,.91-1.81,.76-.25,1.56,.15,1.81,.91,.25,.76-.15,1.55-.91,1.81Zm-.76-2.31c-.53,.17-.81,.73-.64,1.26,.17,.53,.73,.81,1.26,.64,.53-.17,.81-.73,.64-1.26-.17-.53-.73-.81-1.26-.64Z"/><path class="cls-1" d="M113.78,121.16c-.99,.33-2.02-.2-2.35-1.19-.33-.99,.2-2.02,1.19-2.35s2.02,.19,2.35,1.19c.33,.99-.2,2.02-1.19,2.35Zm-.76-2.31c-.31,.1-.46,.41-.36,.72,.1,.31,.41,.46,.72,.36,.31-.1,.46-.41,.36-.72-.1-.31-.41-.46-.72-.36Z"/></g></g><g><path class="cls-1" d="M40.34,49.4c.32-.08,.63-.18,.92-.29l.21-.07c.69-.24,1.39-.48,2.08-.72,1.48-.51,2.97-1.03,4.46-1.52,.68-.23,1.38-.43,2.05-.63,.67-.2,1.35-.4,2.01-.62,.67-.22,1.34-.47,1.99-.71,.62-.23,1.23-.45,1.86-.66,.86-.28,1.71-.56,2.57-.83,.83-.26,1.66-.52,2.49-.8,1.68-.56,3.36-1.13,5.03-1.7,1.15-.39,2.29-.78,3.44-1.16,1.7-.57,3.41-1.12,5.11-1.7,1.12-.38,2.23-.76,3.35-1.15,.94-.33,1.89-.65,2.83-.97,.72-.24,1.44-.48,2.18-.72l1.05-.34c.11-.04,.19-.12,.23-.23,.04-.11,.02-.23-.05-.32-.04-.06-.08-.11-.1-.16-.07-.1-.13-.2-.23-.29-.41-.36-.85-.27-1.17-.2-.07,.01-.14,.03-.21,.04-.35,.06-.72,.04-1.11,.03-.26-.01-.52-.02-.78,0-1.15,.04-2.3,.12-3.38,.19-.82,.05-1.65,.11-2.47,.17-.88,.06-1.75,.12-2.63,.18-.77,.05-1.54,.09-2.31,.14-1.49,.08-3.04,.17-4.56,.3-1.64,.15-3.27,.44-4.5,.67-.85,.16-1.4,.83-1.34,1.63,.07,.9,.75,1.59,1.65,1.67,.22,.02,.42-.05,.6-.1,.06-.02,.12-.04,.18-.06,.13-.03,.23-.13,.26-.27,.03-.13-.01-.27-.12-.36l-.48-.41c-.09-.31,.02-.51,.36-.64,.3-.12,.7-.27,1.09-.33,.28-.05,.56-.06,.86-.08,.24-.02,.48-.03,.72-.06,.58-.07,1.17-.15,1.75-.24,1.02-.14,2.07-.29,3.11-.39,2.82-.26,5.69-.48,8.46-.69l.55-.04c.3-.02,.6-.04,.9-.05l-27.2,9.32c-.03-.08-.06-.17-.09-.25-.49-1.37-.99-2.77-2.28-3.71,.17-.12,.33-.25,.5-.37,.7-.52,1.36-1.02,2.05-1.48,.53-.35,1.1-.67,1.65-.98,.27-.15,.55-.31,.82-.47,2.61-1.53,5.25-2.8,7.85-3.76l.45-.17c1.51-.56,3.07-1.14,4.63-1.61,1.38-.42,2.83-.71,4.2-.97,1.86-.35,3.72-.63,5.46-.89l.27-.04c.96-.14,1.96-.29,2.92-.31,2.22-.04,4.48,.01,6.48,.06h.72c1.3,.04,2.64,.07,3.94,.22,1.38,.17,2.78,.47,4.14,.76l.72,.15c.65,.14,1.31,.31,1.95,.47,.52,.13,1.03,.27,1.55,.39,2.4,.55,4.61,1.56,6.25,2.37l.15,.07c1.38,.68,2.81,1.38,4.19,2.12,1.41,.75,2.89,1.58,4.52,2.53,1.95,1.14,3.83,2.49,5.58,4.02,.34,.29,.69,.57,1.04,.85,.59,.47,1.15,.91,1.64,1.42,.67,.7,1.3,1.46,1.92,2.2,.44,.53,.9,1.08,1.37,1.61,.61,.68,.68,1.12,.27,1.68-.08,.11-.15,.16-.16,.16-.18,.05-.36,.08-.54,.11-.19,.03-.38,.07-.57,.12-.68,.18-1.37,.36-2.06,.54-1.69,.44-3.43,.89-5.12,1.44h-.01c-2.5,.83-4.98,1.83-7.38,2.8l-.1,.04c-1.05,.43-2.08,.93-3.08,1.43-.31,.15-.62,.3-.93,.45-.17,.08-.42,.08-.64-.02-.21-.09-.37-.26-.42-.43-.09-.3-.17-.61-.26-.91-.16-.59-.33-1.19-.52-1.78-.41-1.29-.84-2.58-1.27-3.9l-.18-.54s.07,.06,.1,.09c1.54,1.43,2.96,2.25,4.48,2.58,2.96,.65,5.34-.02,7.29-2.05,1.19-1.24,1.65-2.64,1.51-4.55-.07-.92-.3-1.74-.71-2.57-.53-1.05-1.26-2.21-2.7-2.82-1.26-.54-2.52-.53-3.83,.01-1.29,.54-2.77,1.4-2.76,3.32,0,1.51,.36,2.56,1.07,3.19,.62,.55,1.49,.76,2.61,.64,.67-.08,1.33-.59,1.67-1.03,.39-.52,.53-1.38-.11-2.01-.21-.21-.57-.4-.87-.33-.34,.08-.55,.52-.57,.8-.04,.47-.19,.67-.63,.76-.71,.15-1.29-.08-1.49-.59-.27-.69-.31-1.53-.1-2.05,.42-1.03,1.4-1.57,3.06-1.7,1.08-.09,1.86,.22,2.46,.96,.71,.87,1.46,1.95,1.64,3.33,.36,2.74-1.43,4.65-3.36,5.32-1.53,.54-3.07,.36-4.5,.09-.04,0-.13-.07-.18-.1-.21-.14-.41-.28-.61-.42-.4-.28-.82-.56-1.25-.81-1.4-.8-2.48-1.79-3.32-3.01-.09-.13-.19-.23-.33-.35-.07-.06-.15-.13-.24-.22-.1-.1-.26-.14-.39-.08-.13,.06-.22,.19-.22,.34,0,.16,0,.29,0,.41-.01,.25-.02,.46,.05,.68,.22,.7,.46,1.39,.7,2.09,.18,.52,.36,1.04,.53,1.56,.35,1.06,.7,2.13,1.05,3.19,.42,1.27,.83,2.55,1.26,3.82,.08,.25,.2,.49,.32,.71,.05,.09,.1,.19,.14,.28,.04,.09,.12,.16,.22,.19,.07,.02,.15,.02,.22,0,.02,0,.04-.02,.07-.03,6.66-3.8,14.21-6.48,23.09-8.21,.1-.02,.18-.07,.23-.15,.05-.08,.07-.18,.05-.27-.02-.09-.03-.17-.04-.25-.02-.18-.05-.35-.15-.52-.15-.24-.29-.49-.43-.74-.39-.68-.8-1.39-1.33-1.99-1.29-1.48-2.68-2.86-3.99-4.14-1.74-1.69-3.84-3.62-6.3-5.1-1.42-.86-3.04-1.83-4.67-2.7-1.23-.66-2.5-1.28-3.73-1.88l-1.15-.56c-.31-.15-.62-.31-.92-.47-.82-.42-1.66-.86-2.54-1.16-1.71-.59-3.53-1.12-5.58-1.63-1.72-.42-3.56-.79-5.62-1.12-.81-.13-1.65-.16-2.45-.19-.31-.01-.61-.02-.91-.04-.66-.04-1.33-.08-1.99-.12-1.7-.1-3.45-.21-5.18-.23-1.4-.01-2.94,.1-4.84,.36-2.24,.31-4.5,.72-6.68,1.11l-.1,.02c-1.05,.19-2.09,.44-3.11,.68l-.55,.13c-.63,.15-1.26,.31-1.89,.48l-.86,.22-.69,.3c-.4,.18-.8,.37-1.2,.55-.52,.24-1.05,.46-1.58,.69-1.16,.5-2.35,1.02-3.49,1.61-1.82,.94-3.67,2.01-5.5,3.16h0c-1.48,.94-2.87,1.98-4.27,3.06-1.47,1.13-2.65,2.11-3.73,3.08-.96,.87-1.93,1.86-3.16,3.2-.4,.44-.71,.94-1.01,1.43-.08,.13-.17,.27-.25,.4-.12,.19-.15,.51-.11,.69,.02,.1,.11,.22,.2,.27,.22,.12,.53,.17,.79,.11Zm10.47-4.78l-.08,.03c-.2-1.22-.86-2.15-1.6-2.96,1.09,1,1.59,1.89,1.68,2.93Zm-4.44-1.83c.15-.13,.31-.27,.46-.4,.48-.43,.79-.43,1.22-.02,.17,.16,.32,.35,.48,.55,.14,.17,.29,.35,.45,.51,.4,.41,.46,.92,.54,1.52,0,.03,0,.06,.01,.1l-7.33,2.41-.14-.42,.83-.84c.85-.86,1.74-1.75,2.63-2.63,.27-.26,.56-.52,.84-.76Z"/><path class="cls-1" d="M61.72,38.05h0Zm-12.05,7.42l-7.33,2.41c-.23,.07-.47-.05-.54-.28l-.14-.42c-.05-.15-.01-.32,.1-.44l.83-.84c.86-.86,1.74-1.75,2.63-2.64,.27-.27,.57-.52,.85-.77l.3,.31-.28-.33,.06-.05c.13-.12,.27-.23,.4-.35,.65-.58,1.21-.59,1.81,0,.18,.17,.35,.37,.52,.58,.14,.17,.27,.33,.42,.49,.5,.51,.58,1.15,.66,1.76v.09c.04,.21-.08,.4-.28,.47Zm-6.72,1.3l6.11-2.01c-.06-.43-.14-.76-.39-1.02-.17-.17-.32-.35-.47-.54-.15-.18-.29-.36-.45-.51-.24-.23-.29-.28-.63,.03-.13,.12-.27,.24-.41,.36l-.34-.28,.28,.33h-.01c-.27,.25-.55,.49-.81,.74-.89,.88-1.77,1.77-2.62,2.63l-.26,.26Z"/></g><g><path class="cls-1" d="M139.35,73.36c-1.32,.2-2.73,.43-4.1,.79l-.9,.23c-2.04,.53-4.15,1.08-6.17,1.8-1.94,.69-3.86,1.52-5.72,2.31-.77,.33-1.55,.66-2.32,.99l-1.36,.56c-1.44,.59-2.92,1.21-4.37,1.85-1.64,.72-3.09,1.42-4.43,2.11-.73,.38-1.45,.81-2.14,1.22-.48,.29-.97,.58-1.46,.86-1.63,.92-2.9,1.6-4.11,2.23-.81,.42-1.63,.82-2.45,1.23-.89,.44-1.78,.88-2.66,1.33-2.06,1.07-4.27,2.23-6.45,3.45-2.53,1.41-5.07,2.9-7.25,4.18-.8,.47-1.59,.96-2.36,1.45-.52,.33-1.05,.66-1.58,.98-.2,.12-.41,.23-.64,.34-.16,.08-.32,.16-.48,.24-.65,.35-1.29,.7-1.94,1.05-1.15,.63-2.31,1.26-3.47,1.87-.92,.49-1.84,.96-2.77,1.43-.64,.33-1.29,.66-1.93,.99l-.68,.35c-1.36,.71-2.77,1.44-4.14,2.19-.1,.06-.22,.11-.33,.16-.46,.21-1.1,.49-1.24,1.31-.02,.1,0,.2,.07,.28,.06,.08,.15,.13,.25,.14,.04,0,.07,0,.1,.02,.1,.02,.22,.04,.35,0l.81-.23c.8-.22,1.62-.45,2.43-.72,.72-.24,1.43-.5,2.14-.76,.64-.23,1.28-.47,1.93-.69,1.42-.48,2.85-.95,4.27-1.42,1.32-.43,2.64-.87,3.95-1.31,.94-.31,1.87-.64,2.8-.97,.67-.24,1.34-.47,2.01-.7l1.32-.45c2.57-.88,5.14-1.77,7.72-2.63,.69-.23,1.4-.44,2.09-.64,.55-.16,1.11-.32,1.66-.5,1.26-.4,2.52-.81,3.78-1.22,1.2-.39,2.41-.78,3.61-1.17,.64-.2,1.28-.4,1.92-.59,.86-.26,1.74-.53,2.61-.82,.8-.27,1.6-.55,2.39-.84,.79-.28,1.6-.58,2.41-.85,3.01-1,6.01-1.99,9.02-2.97,2.58-.85,5.17-1.7,7.75-2.55,.57-.19,1.14-.4,1.71-.6,.65-.24,1.32-.48,1.99-.7,.64-.2,1.31-.39,1.95-.56,.59-.16,1.18-.33,1.77-.51,.32-.1,.61-.52,.65-.83,.04-.3,.03-.59,.02-.87,0-.16-.01-.32,0-.47,.06-2.21-.12-4.05-.56-5.78-.06-.23-.17-.55-.44-.71-.28-.16-.58-.08-.89,.01-.52,.15-1.04,.28-1.56,.41-.36,.09-.71,.18-1.07,.28l-.74,.2c-.76,.2-1.54,.4-2.3,.65-.88,.28-1.76,.61-2.6,.92l-.92,.34c-.94,.35-1.92,.71-2.86,1.12-.81,.34-1.61,.72-2.39,1.08-.58,.27-1.15,.53-1.73,.79-.49,.22-.98,.42-1.48,.63-.6,.25-1.21,.5-1.8,.77-1.77,.81-3.34,1.55-4.79,2.26-1.34,.66-2.79,1.41-4.57,2.35-.51,.27-1.01,.57-1.49,.86-.28,.17-.56,.33-.84,.5-.17,.1-.34,.2-.51,.3-.49,.29-.99,.58-1.5,.83-.98,.46-1.91,.96-2.57,1.99-.07,.11-.08,.24-.02,.36,.06,.11,.17,.19,.3,.2h.06c.53,.04,1.07,.07,1.59-.09,.58-.19,1.15-.42,1.7-.64,.44-.18,.87-.35,1.32-.51,.58-.2,1.18-.39,1.76-.57,.44-.14,.88-.27,1.32-.42,2.58-.86,5.16-1.72,7.74-2.6,2.18-.74,4.36-1.5,6.54-2.27,1.27-.44,2.75-.96,4.21-1.51l.11-.04c.55-.2,1.12-.41,1.61-.76,.63-.44,.86-1.1,.61-1.76-.14-.38-.49-.68-.94-.82-.46-.14-.95-.07-1.29,.18-.3,.22-.46,.52-.43,.82,.02,.29,.2,.54,.5,.7,0,0,.02,0,.02,.01-.04,.03-.08,.06-.1,.08-.25,.18-.58,.31-.83,.4-1.04,.36-2.07,.72-3.11,1.08-1.24,.43-2.48,.86-3.72,1.29-1.08,.38-2.15,.78-3.22,1.18l-.83,.31c-.39,.15-.78,.3-1.17,.45-.66,.26-1.35,.52-2.03,.75-1.01,.35-2.02,.68-3.04,1.01-.47,.15-.95,.31-1.42,.46l-2.43,.8c.98-.55,1.97-1.1,2.95-1.65,.34-.19,.68-.38,1.02-.57,.99-.56,2.01-1.14,3.05-1.62,1.52-.71,3.08-1.39,4.6-2.05,.79-.34,1.57-.68,2.36-1.03,.51-.23,1.02-.46,1.52-.69,.74-.34,1.5-.69,2.26-1.01,1.81-.76,3.73-1.57,5.71-2.33,1.16-.44,2.42-.85,3.86-1.26,.66-.19,1.36-.32,2.03-.45,.3-.06,.6-.11,.9-.18,.22-.02,.9,.4,.96,.59,.16,1.17,.29,2.35,.43,3.53l.1,.87s-.02,.01-.03,.02c-.04,.03-.08,.06-.12,.09-.13,.09-.29,.19-.39,.37-.24,.41-.55,.66-1,.81h0c-.99,.32-1.99,.67-2.95,1.01-.6,.21-1.2,.42-1.8,.62l-.18,.06c-1.58,.54-3.21,1.09-4.82,1.61-.89,.29-1.78,.56-2.67,.83-1.17,.36-2.38,.73-3.56,1.12-2.01,.67-4.02,1.36-6.03,2.04-1.43,.49-2.85,.97-4.28,1.46-1.19,.4-2.39,.79-3.58,1.18-1.1,.36-2.21,.73-3.31,1.1-.45,.15-.9,.32-1.35,.49-.49,.18-1,.37-1.49,.53-1.12,.36-2.25,.72-3.37,1.07-.81,.25-1.63,.51-2.44,.77-.92,.29-1.84,.6-2.77,.91l-.96,.32-1.51-3.61,1.28-.72c1.25-.71,2.53-1.44,3.82-2.14,.82-.45,1.67-.89,2.49-1.32,.45-.23,.9-.47,1.35-.7,.7-.37,1.4-.74,2.1-1.11,1.09-.58,2.18-1.15,3.27-1.72,.72-.38,1.44-.75,2.16-1.12,.95-.49,1.91-.98,2.85-1.48,.39-.2,.76-.43,1.12-.66,.26-.16,.53-.33,.8-.48,.59-.34,1.21-.66,1.8-.97l.99-.52c.95-.5,1.93-1.01,2.9-1.48,.67-.32,1.37-.62,2.05-.9,.4-.17,.81-.34,1.21-.52,.49-.22,.98-.44,1.47-.66,.77-.35,1.53-.69,2.31-1.02,.67-.29,1.37-.55,2.05-.81,.34-.13,.68-.26,1.01-.39,.45-.18,.9-.36,1.35-.54,.97-.39,1.97-.79,2.97-1.14,1.22-.43,2.45-.78,3.93-1.18,1.71-.46,3.46-.88,5.09-1.27,.04,0,.13,.03,.14,.03,.31,.5,.71,.74,1.23,.72,.09,.36,.18,.71,.28,1.07,.27,1,.52,1.95,.61,2.92v.15c.34,3.35,.68,6.82,.1,10.22-.11,.68-.2,1.36-.29,2.03-.11,.88-.23,1.78-.41,2.66-.35,1.73-.71,3.51-1.32,5.17-.77,2.1-1.73,4.36-3.03,7.11-.45,.96-1.03,1.9-1.59,2.8-.26,.42-.52,.84-.77,1.26-.27,.46-.54,.93-.8,1.4-.86,1.51-1.75,3.08-2.89,4.43-.47,.56-.94,1.11-1.4,1.67-.48,.57-.95,1.14-1.43,1.7-.16,.19-.32,.37-.48,.55-.24,.27-.48,.54-.71,.83-.29,.36-.56,.73-.82,1.08l-.15,.2c-.45-.2-.63-.3-.73-.64-.46-1.5-.96-3.02-1.46-4.48-.25-.75-.5-1.5-.75-2.25-.42-1.29-.83-2.59-1.24-3.89l-.1-.32c-.05-.14-.05-.19-.06-.17,.47-.92,.97-1.36,1.74-1.53,1.08-.24,2.15-.59,3.18-.92,.29-.1,.59-.19,.88-.28,.69-.22,1.38-.45,2.07-.67,.75-.25,1.5-.49,2.24-.73,.03,0,.1,.01,.1,0,.02,.03,.03,.13,.02,.15l-.17,.34c-.27,.57-.56,1.16-.91,1.67-1.07,1.54-2,2.78-2.93,3.91-.12,.14-.49,.21-.81,.25-.02-.04-.04-.08-.05-.11-.06-.13-.13-.27-.2-.37-.09-.13-.21-.2-.3-.26-.03-.02-.05-.03-.07-.05-.08-.06-.19-.08-.29-.06-.1,.02-.19,.08-.24,.17-.08,.13-.16,.26-.25,.38-.21,.32-.43,.64-.55,1.03-.11,.35-.02,.6,.07,.75,.21,.35,.63,.48,.95,.53,.81,.13,1.61-.16,2.24-.82l.2-.21c.53-.55,1.07-1.11,1.47-1.84,.44-.8,.97-1.59,1.47-2.35,.34-.52,.69-1.03,1.02-1.56,.36-.58,.7-1.25,1.06-2.1,.1-.24,.06-.51,.02-.74-.01-.08-.03-.17-.03-.26,0-.12-.07-.22-.17-.28-.1-.06-.22-.07-.33-.03-.19,.08-.35,.15-.5,.21-.27,.12-.49,.21-.7,.28l-1.03,.33c-2.14,.69-4.36,1.4-6.55,2.07-.7,.22-1.43,.4-2.13,.59-.51,.13-1.02,.26-1.53,.41-.27,.07-.59,.37-.62,.67-.02,.3,.03,.64,.14,.97,.15,.44,.32,.88,.48,1.32,.24,.64,.49,1.31,.7,1.97,.21,.68,.4,1.38,.59,2.06,.18,.68,.38,1.39,.59,2.07,.48,1.54,.99,3.05,1.52,4.65,.23,.68,.45,1.36,.68,2.06,.03,.1,.11,.19,.21,.22,.08,.03,.16,.03,.24,0,.02,0,.05-.02,.07-.03,.1-.06,.2-.1,.3-.15,.26-.12,.53-.25,.7-.5,.28-.42,.65-.76,1.04-1.13,.51-.48,1.04-.98,1.39-1.67,.2-.39,.52-.73,.87-1.08,.21-.22,.42-.44,.61-.68,1.06-1.33,2.11-2.68,3.16-4.02l.81-1.03c.2-.25,.41-.52,.58-.82,.64-1.17,1.25-2.34,1.83-3.48,.24-.48,.49-.96,.73-1.44,.76-1.49,1.55-3.02,2.24-4.58,.78-1.76,1.41-3.6,1.93-5.18,.49-1.48,1.05-3.16,1.38-4.88,.39-2.04,.6-3.84,.63-5.51,.06-3.2-.01-5.84-.23-8.31-.14-1.61-.51-3.22-.86-4.77-.1-.46-.21-.92-.31-1.38-.08-.37-.63-.93-1.07-.86Zm-58.69,30.65c-.81,.29-1.62,.57-2.43,.84-.05-.02-.12-.07-.13-.09-.21-.38-.38-.77-.55-1.14-.02-.04-.03-.07-.05-.11l8.17-4.85c.67,1.02,1.29,1.99,1.4,3.2l-1.18,.39c-1.1,.36-2.2,.72-3.29,1.09-.65,.22-1.29,.45-1.94,.68Zm-5.54,.61c.1-.06,.2-.12,.3-.17,.13,.05,.39,.31,.46,.56,.11,.43,.09,.55-.41,.68h0c-.63,.17-1.24,.42-1.83,.65-.43,.17-.87,.34-1.31,.49-.71,.24-1.46,.45-2.17,.66-.4,.12-.79,.23-1.19,.35,.05-.02,.09-.05,.14-.07,.47-.24,.93-.48,1.4-.72,1.41-.73,2.81-1.47,4.22-2.22,.13-.07,.25-.14,.38-.21Z"/><path class="cls-1" d="M119.11,109.25c-.13,.04-.28,.21-.29,.29-.02,.24,.02,.53,.12,.79,.15,.44,.32,.87,.48,1.31,.25,.65,.5,1.33,.71,2,.21,.68,.41,1.39,.59,2.07,.19,.7,.38,1.38,.59,2.06,.48,1.54,.99,3.05,1.52,4.65l.66,1.98c.08-.04,.17-.08,.25-.12,.23-.11,.43-.2,.54-.35,.31-.45,.69-.81,1.09-1.19,.52-.49,.99-.94,1.31-1.56,.23-.45,.59-.82,.94-1.19,.2-.21,.41-.42,.59-.65,.99-1.25,1.98-2.5,2.96-3.76l1.01-1.29c.19-.24,.39-.49,.54-.76,.63-1.15,1.24-2.31,1.82-3.46,.24-.48,.49-.96,.73-1.44,.76-1.49,1.54-3.02,2.23-4.56,.78-1.75,1.4-3.57,1.92-5.15,.49-1.48,1.04-3.14,1.36-4.82,.39-2.02,.59-3.79,.62-5.43,.06-3.18-.01-5.81-.23-8.26-.14-1.58-.5-3.17-.85-4.71-.11-.46-.21-.92-.31-1.38-.05-.21-.42-.55-.59-.52-1.3,.2-2.7,.43-4.06,.78l-.9,.23c-2.02,.52-4.11,1.06-6.13,1.79-1.94,.69-3.85,1.51-5.69,2.3-.77,.33-1.55,.66-2.33,.99l-1.36,.56c-1.48,.61-2.94,1.22-4.36,1.85-1.64,.72-3.08,1.41-4.4,2.1-.72,.38-1.43,.8-2.12,1.21-.49,.29-.98,.58-1.47,.86-1.64,.92-2.91,1.61-4.13,2.24-.77,.4-1.55,.78-2.33,1.17l-.13,.06c-.89,.44-1.77,.87-2.65,1.33-2.05,1.07-4.25,2.22-6.44,3.44-2.54,1.42-5.07,2.9-7.24,4.18-.79,.46-1.57,.95-2.33,1.43-.54,.34-1.07,.67-1.6,.99-.21,.13-.43,.23-.66,.35-.17,.08-.33,.16-.48,.24l-2.13,1.16c-1.09,.59-2.18,1.19-3.28,1.77-.92,.49-1.85,.96-2.78,1.43-.64,.33-1.28,.65-1.92,.99l-.68,.35c-1.28,.66-2.73,1.42-4.13,2.18-.11,.06-.22,.11-.34,.16-.52,.23-.88,.43-1,.93,.01,0,.03,0,.04,0,.09,.02,.13,.02,.17,.01l1.1-.31c.7-.2,1.41-.4,2.12-.64,.72-.24,1.42-.5,2.13-.75,.65-.24,1.29-.47,1.94-.69,1.31-.44,2.61-.87,3.92-1.3l.36-.12c1.32-.43,2.63-.87,3.95-1.31,.89-.3,1.77-.61,2.65-.92l.14-.05c.67-.24,1.34-.47,2.01-.7l1.32-.45c2.57-.89,5.15-1.77,7.73-2.64,.73-.23,1.42-.44,2.11-.65l.09-.03c.52-.15,1.04-.3,1.55-.47,1.26-.4,2.52-.81,3.78-1.22,1.2-.39,2.41-.78,3.61-1.17,.64-.2,1.28-.4,1.92-.59l.22-.07c.79-.24,1.59-.48,2.38-.75,.8-.27,1.59-.55,2.38-.84,.79-.29,1.61-.58,2.42-.85,3.01-1,6.01-1.98,9.02-2.97l.97-.32c2.26-.74,4.52-1.49,6.78-2.23,.57-.19,1.13-.39,1.69-.6,.7-.25,1.36-.49,2.01-.7,.65-.21,1.32-.39,1.97-.57,.64-.18,1.2-.33,1.76-.5,.16-.04,.33-.3,.35-.47,.04-.26,.03-.53,.02-.8,0-.18-.01-.34,0-.5,.06-2.17-.11-3.97-.55-5.67-.02-.09-.09-.35-.24-.44-.12-.07-.28-.03-.56,.05-.52,.15-1.05,.28-1.57,.42-.35,.09-.71,.18-1.06,.28l-.74,.2c-.71,.19-1.51,.4-2.28,.64-.87,.27-1.74,.6-2.58,.92l-.92,.34c-.94,.35-1.9,.71-2.84,1.11-.8,.34-1.6,.71-2.38,1.07-.58,.27-1.16,.54-1.74,.79-.49,.22-.99,.42-1.49,.63-.6,.25-1.2,.5-1.79,.77-1.76,.8-3.33,1.54-4.77,2.26-1.35,.67-2.8,1.41-4.56,2.35-.48,.26-.96,.54-1.42,.82-.35,.21-.62,.37-.9,.53l-.5,.3c-.5,.3-1.01,.6-1.54,.85-.92,.43-1.73,.87-2.33,1.73,.5,.03,.96,.05,1.37-.08,.53-.17,1.1-.4,1.63-.61,.49-.2,.93-.37,1.38-.53,.58-.2,1.19-.39,1.77-.57l.09-.03c.41-.13,.82-.26,1.22-.39,2.58-.86,5.16-1.72,7.74-2.6,2.18-.74,4.36-1.5,6.54-2.26,1.27-.44,2.75-.96,4.2-1.51l.11-.04c.52-.19,1.06-.39,1.51-.71,.47-.33,.63-.78,.46-1.25-.09-.25-.34-.46-.66-.56-.34-.1-.68-.05-.91,.12-.18,.13-.27,.29-.26,.45,.01,.18,.18,.3,.27,.35,.13,.07,.23,.21,.24,.35s-.04,.3-.16,.38l-.12,.09c-.29,.21-.66,.35-.94,.45-1.04,.36-2.08,.72-3.11,1.08l-.31,.11c-1.14,.39-2.27,.78-3.41,1.18-1.08,.38-2.15,.78-3.22,1.18l-.83,.31c-.34,.12-.67,.25-1,.38l-.17,.06c-.67,.26-1.36,.52-2.04,.76-1.01,.35-2.03,.68-3.05,1.01l-3.85,1.26c-.21,.07-.44-.03-.53-.24-.09-.2-.01-.44,.18-.55,.98-.55,1.97-1.11,2.95-1.65,.34-.19,.68-.38,1.01-.57,1-.56,2.02-1.14,3.07-1.64,1.52-.71,3.08-1.39,4.59-2.05,.8-.35,1.59-.69,2.37-1.04,.51-.23,1.01-.46,1.52-.69l.09-.04c.72-.33,1.45-.67,2.19-.98,1.82-.77,3.76-1.58,5.72-2.33,1.17-.45,2.44-.86,3.9-1.27,.68-.19,1.38-.32,2.06-.45l.15-.03c.25-.05,.51-.1,.76-.15,.47-.05,1.33,.49,1.45,.88,.17,1.26,.31,2.43,.45,3.61l.1,.87c.02,.17-.06,.33-.2,.42-.03,.02-.07,.05-.12,.08-.12,.08-.22,.15-.27,.24-.29,.5-.68,.82-1.24,1-.99,.32-1.98,.67-2.94,1-.62,.22-1.22,.43-1.82,.63l-.18,.06c-1.61,.55-3.23,1.1-4.82,1.61-.89,.29-1.79,.56-2.68,.83l-.18,.06c-1.11,.34-2.25,.68-3.37,1.06-2.01,.67-4.02,1.36-6.03,2.04-1.43,.49-2.86,.98-4.28,1.46-1.19,.4-2.39,.79-3.58,1.19l-.37,.12c-.98,.32-1.96,.65-2.94,.97-.43,.14-.85,.3-1.27,.46-.56,.21-1.08,.4-1.58,.57-1.12,.37-2.25,.72-3.37,1.07-.82,.25-1.63,.51-2.44,.77-.85,.27-1.7,.55-2.56,.84l-1.17,.39h0c-.21,.07-.45-.03-.53-.24l-1.51-3.62c-.08-.2,0-.43,.19-.54l1.41-.8c1.21-.69,2.45-1.39,3.69-2.07,.8-.44,1.62-.87,2.42-1.28l.08-.04c.45-.23,.9-.47,1.35-.7l2.1-1.11c1.09-.58,2.18-1.15,3.27-1.73,.72-.38,1.44-.75,2.17-1.12,.95-.49,1.9-.98,2.85-1.48,.37-.19,.72-.41,1.07-.63l.3,.32-.23-.37c.25-.16,.51-.31,.76-.46,.6-.34,1.22-.66,1.82-.97l.99-.51c.9-.47,1.91-1,2.92-1.49,.67-.32,1.37-.62,2.05-.9,.42-.18,.82-.35,1.22-.52,.49-.21,.97-.44,1.46-.66,.78-.35,1.54-.7,2.32-1.03,.68-.29,1.38-.56,2.06-.82,.34-.13,.67-.26,1.01-.39,.45-.18,.9-.36,1.35-.54,.98-.4,1.99-.8,2.99-1.15,1.24-.43,2.48-.79,3.96-1.19,1.77-.48,3.56-.91,5.1-1.28,.17-.01,.26,0,.33,.03,.15,0,.2,.07,.28,.2,.29,.47,.6,.52,.84,.51,.2,0,.39,.13,.44,.33,.09,.35,.18,.69,.27,1.04,.28,1.05,.53,2.01,.63,3.01v.15c.34,3.39,.68,6.88,.1,10.34-.11,.65-.2,1.32-.28,1.96-.12,.93-.23,1.84-.42,2.74-.35,1.74-.72,3.54-1.34,5.23-.77,2.11-1.74,4.38-3.04,7.15-.47,.99-1.05,1.93-1.62,2.84-.26,.42-.51,.83-.76,1.25-.25,.43-.5,.86-.74,1.29l-.06,.1c-.87,1.53-1.76,3.12-2.93,4.5l-2.84,3.37c-.16,.19-.32,.37-.49,.56-.24,.27-.47,.53-.7,.81-.28,.35-.55,.72-.81,1.06l-.15,.2c-.12,.16-.34,.22-.52,.14-.43-.19-.81-.36-.97-.9-.46-1.51-.96-3.01-1.45-4.47l-.09-.28c-.22-.66-.44-1.31-.66-1.97-.42-1.3-.83-2.6-1.24-3.9l-.12-.4c-.07-.12-.08-.27,0-.41,.52-1.03,1.13-1.55,2.03-1.76,1.06-.24,2.12-.58,3.14-.91l.89-.29c.63-.2,1.25-.41,1.87-.61l.35-.11c.69-.23,1.4-.46,2.09-.68,.04-.01,.1-.02,.16-.02,.17-.03,.35,.05,.44,.21,.07,.13,.1,.34,.07,.48l-.2,.43c-.28,.58-.57,1.19-.95,1.73-1.08,1.55-2.02,2.8-2.96,3.93-.2,.24-.58,.34-1.09,.4-.18,.03-.36-.07-.44-.24,0,0-.06-.12-.06-.12-.05-.11-.11-.23-.17-.32-.04-.05-.1-.09-.17-.14-.01,0-.03-.02-.04-.02-.06,.1-.12,.19-.19,.29-.24,.36-.43,.64-.53,.96-.05,.15-.04,.29,.03,.39,.14,.22,.47,.3,.65,.33,.67,.11,1.32-.14,1.85-.69l.21-.22c.51-.52,1.03-1.07,1.41-1.75,.44-.8,.96-1.58,1.46-2.33l.06-.09c.33-.5,.66-1,.98-1.51,.35-.57,.68-1.22,1.03-2.04,.05-.13,.03-.31,0-.49-.01-.08-.02-.14-.03-.2-.15,.06-.28,.12-.4,.17-.28,.12-.51,.22-.73,.29l-1.14,.37c-2.11,.68-4.3,1.38-6.46,2.05-.71,.22-1.44,.41-2.15,.59l-.1,.03c-.47,.12-.95,.25-1.42,.38,0,0,0,0-.01,0Zm5.4,3.41h0Zm11.77-27.9h.02s-.02,0-.02,0Zm-63.91,22.51c-.65,.21-1.33,.41-1.98,.6l-.31,.09c-.33,.1-.66,.19-.98,.29-.21,.07-.44-.04-.53-.25-.08-.21,0-.44,.2-.55l.14-.07c.47-.24,.93-.48,1.4-.72,1.39-.72,2.77-1.45,4.15-2.18,.19-.1,.31-.17,.42-.24,.1-.06,.2-.12,.31-.18,.11-.06,.25-.07,.37-.02,.26,.11,.61,.48,.71,.85,.16,.58,.08,1-.71,1.21-.6,.17-1.2,.4-1.77,.63-.5,.2-.97,.38-1.43,.53Zm2.74-2.65h0s0,0,0,0Zm3.24,.64c-.1,.03-.21,.03-.31-.02-.02,0-.21-.09-.31-.23-.24-.43-.42-.83-.59-1.22l-.05-.11c-.09-.2-.02-.44,.17-.55l8.17-4.85c.2-.12,.45-.06,.58,.13,.66,1.01,1.35,2.06,1.47,3.4,.02,.2-.1,.39-.3,.45h0s-1.18,.39-1.18,.39c-1.1,.36-2.19,.72-3.28,1.09-.65,.22-1.29,.45-1.93,.67l-.15-.41,.14,.41c-.81,.29-1.62,.57-2.44,.84h0Z"/></g><path class="cls-1" d="M32.05,92.08c1.15-.06,2.38-.22,3.67-.48,.86-.17,1.73-.39,2.56-.61,.56-.14,1.11-.29,1.68-.41,.33-.08,.68-.13,1.02-.19,.51-.08,1.05-.17,1.56-.33,.9-.28,1.78-.56,2.63-.84,1.31-.43,2.57-.86,3.8-1.31,.75-.27,1.48-.62,2.18-.95,.32-.15,.63-.3,.95-.44,.21-.1,.42-.19,.63-.29,.44-.21,.89-.41,1.34-.6,.39-.16,.78-.31,1.17-.45,.63-.24,1.29-.48,1.91-.78,.9-.42,1.79-.89,2.65-1.34,.6-.31,1.2-.62,1.8-.93,.73-.37,1.47-.72,2.21-1.07,1.4-.66,2.84-1.35,4.21-2.12,1.51-.85,2.99-1.81,4.41-2.74,.69-.45,1.38-.9,2.08-1.34,.53-.34,1.07-.67,1.61-1,.82-.5,1.63-1.01,2.44-1.53,.21-.14,.34-.34,.45-.53,.04-.06,.08-.13,.12-.19,.07-.1,.09-.24,.04-.35s-.16-.2-.28-.22c-.07,0-.14-.03-.21-.05-.21-.05-.45-.11-.7-.03-.52,.17-1.04,.35-1.55,.54-.52,.19-1.05,.38-1.58,.55-1.19,.37-2.38,.74-3.58,1.1-1.26,.39-2.53,.77-3.79,1.17-.85,.27-1.7,.57-2.53,.87-.42,.15-.84,.3-1.26,.44l-.38,.13c-.59,.21-1.19,.41-1.78,.6-1.01,.32-2.01,.64-3.02,.96-1.75,.55-3.51,1.11-5.25,1.68-.32,.11-.66,.26-.98,.4-.44,.2-.86,.39-1.29,.47-1.12,.21-1.65,.95-2.1,1.68-.36,.59-.14,1.74,.4,2.12,.28,.2,.72,.26,1.17,.18,.45-.08,.82-.29,1.01-.58,.13-.19,.17-.4,.19-.54,0-.03,0-.06,.02-.08,.03-.09,.02-.19-.03-.27s-.12-.15-.21-.17c-.14-.04-.27-.07-.39-.09-.04,0-.09-.02-.14-.03,0-.11,.04-.23,.09-.31,.36-.55,.96-.76,1.59-.98,.24-.08,.48-.17,.7-.26,.58-.26,1.22-.44,1.83-.63,.35-.1,.7-.21,1.05-.33,.68-.23,1.35-.46,2.02-.7,.94-.33,1.89-.66,2.83-.96,.79-.26,1.59-.5,2.39-.75,.82-.25,1.64-.5,2.45-.77,1.6-.53,3.19-1.06,4.79-1.59,1.11-.37,2.21-.74,3.32-1.11,0,0-.02,.01-.03,.02-.75,.5-1.51,.99-2.27,1.47-.43,.27-.86,.55-1.29,.82-1.9,1.22-3.87,2.47-5.98,3.39-.51,.22-1.01,.49-1.49,.74-.4,.21-.82,.43-1.23,.62-.71,.32-1.44,.63-2.15,.93-.52,.22-1.04,.44-1.55,.67-.91,.4-1.82,.81-2.74,1.22-.95,.42-1.89,.85-2.84,1.27-.37,.16-.75,.31-1.13,.46-.28,.11-.55,.22-.83,.33-.43,.18-.86,.37-1.29,.56-.86,.38-1.74,.77-2.63,1.07-2.02,.68-4.07,1.3-6.11,1.83-1.92,.5-4.16,1.07-6.42,1.44-1.02,.17-2.09,.16-3.13,.15-.38,0-.77,0-1.12,0-.03,0-.11-.06-.11-.06h0c-.07-.26-.27-1-1.08-1.09-.03-.27-.05-.54-.08-.81-.09-.83-.17-1.61-.19-2.4v-.52c-.06-2.09-.11-4.25-.01-6.36,.1-1.96,.41-3.88,.94-5.69,.38-1.29,1.01-2.47,1.62-3.62,.23-.43,.45-.85,.67-1.29,.32-.64,.82-1.16,1.63-1.69,.38-.25,.74-.53,1.1-.8,.62-.47,1.2-.92,1.86-1.22,.69-.32,1.56-.38,2.4-.44l.37-.03c.71-.06,1.45-.08,2.03,.13,1.91,.68,3.37,1.47,4.25,3.07,1.15,2.09,1.39,3.79,.77,5.52-.55,1.54-1.44,2.68-2.65,3.4-1.13,.68-2.14,.9-3.18,.72-1.59-.29-2.54-.85-3.16-1.88-.6-.99-.83-1.92-.73-2.84,.1-.87,.65-1.69,1.48-2.17,.77-.45,1.62-.54,2.33-.25,.57,.23,1.06,.78,.89,1.46-.04,.16-.11,.28-.18,.32-.01,0-.06,.03-.15,.02-.03-.04-.07-.11-.1-.16-.05-.09-.1-.18-.16-.26-.07-.1-.18-.15-.3-.15-.12,0-.23,.07-.29,.17-.04,.07-.07,.13-.1,.18-.01,.02-.02,.04-.03,.06-.34,.22-.45,.49-.48,.68-.04,.29,.06,.58,.28,.83,.12,.14,.76,.81,1.34,.7,1-.18,1.7-.81,1.92-1.72,.2-.82,0-1.65-.55-2.34-.65-.8-1.72-1.33-2.68-1.31-.65,.01-1.36,.21-2.24,.62-1.39,.65-2.17,1.88-2.27,3.58-.13,2.28,1.18,3.85,2.28,4.87-.03,.07-.06,.15-.09,.22-.13,.32-.24,.62-.41,.89-.35,.57-.66,1.17-.96,1.75-.67,1.3-1.31,2.53-2.39,3.48-.28,.24-.35,.5-.36,.68-.01,.27,.1,.54,.32,.78,.47,.51,1.12,.58,1.63,.19,.21-.17,.78-.61,.37-1.38-.08-.14-.09-.42-.02-.57,.12-.3,.3-.59,.49-.89,.09-.15,.19-.3,.27-.45l.38-.67c.45-.79,.9-1.57,1.34-2.37,.17-.31,.3-.63,.43-.94,0-.02,.02-.04,.02-.06,.05,.02,.1,.04,.14,.07,.35,.16,.71,.33,1.09,.35,.41,.02,.81-.04,1.2-.1,.34-.05,.67-.1,.98-.1,1.47,.02,2.56-.75,3.35-1.42,1.1-.93,1.9-2.25,2.38-3.95,.34-1.18,.42-2.33,.23-3.25-.21-1-.68-2.05-1.48-3.32-1.34-2.11-3.32-3.32-5.74-3.48-1.85-.12-4.15-.28-6.07,1.2-.26,.2-.52,.39-.79,.58-.83,.6-1.69,1.22-2.32,2.03-1.12,1.44-2.33,3.19-2.89,5.3-.1,.39-.21,.77-.32,1.15-.27,.97-.56,1.97-.73,2.98-.17,.99-.22,2.01-.27,3-.02,.34-.03,.67-.05,1.01-.05,.85-.11,1.84-.11,2.81,0,1.09,0,2.22,.09,3.33,.12,1.31,.33,2.61,.53,3.88,.05,.32,.16,.61,.27,.89,.04,.12,.09,.24,.13,.35,.06,.19,.27,.29,.45,.23h0c.08-.03,.16-.06,.23-.09,.07-.03,.16-.07,.19-.07,.38,0,.77,.03,1.15,.05,.71,.04,1.44,.08,2.17,.04Z"/><g><path class="cls-1" d="M72.49,126.3c-.1-.35-.28-.6-.53-.73-.26-.14-.58-.15-.97-.02-.49,.16-.98,.31-1.48,.46-.72,.22-1.45,.44-2.17,.68-.84,.28-1.67,.56-2.5,.84-.98,.33-1.96,.67-2.95,.99-.59,.19-1.2,.36-1.79,.53-.4,.11-.79,.22-1.18,.34-.16,.05-.3,.13-.45,.21-.07,.04-.14,.08-.23,.13-.11,.06-.18,.17-.19,.29-.01,.12,.04,.24,.14,.32,.1,.07,.18,.15,.26,.21,.17,.14,.33,.27,.52,.36l.79,.39c1.11,.55,2.26,1.12,3.42,1.63,2.05,.9,3.81,1.2,5.52,.94,.57-.09,1.01-.32,1.27-.67,.21-.29,.29-.65,.23-1.04-.12-.78-.77-.86-1.2-.91-.11-.01-.22-.03-.33-.05-.12-.02-.24,.01-.32,.1-.09,.08-.12,.21-.1,.32l.11,.54c-1.03,.51-2.13,.59-3.2,.22-.97-.34-1.93-.78-2.85-1.21-.43-.2-.87-.4-1.32-.6-.28-.12-.28-.13-.27-.27,.03-.19,.09-.24,.44-.35l.28-.09c.82-.25,1.66-.5,2.49-.78,.4-.14,.8-.3,1.2-.46,.5-.2,1.02-.4,1.53-.56,.61-.19,1.26-.36,1.87-.51,.51-.13,1.02-.26,1.53-.41,.57-.17,1.32-.16,1.65,.82,.04,.1,.06,.21,.09,.32,.02,.09,.05,.19,.08,.28,.23,.72,.45,1.45,.68,2.17,.58,1.83,1.17,3.73,1.72,5.6,.05,.18,.12,.36,.19,.53,.19,.47,.35,.87,.14,1.35-.3,.68-.39,.76-1.12,.55-.16-.04-.32-.09-.49-.12-.37-.05-.75-.09-1.12-.13-.75-.08-1.53-.16-2.26-.35-2.86-.74-5.22-1.43-7.41-2.15-1.64-.54-3.17-1.19-4.54-1.91-1.29-.69-2.56-1.5-3.78-2.28-.47-.3-.94-.6-1.41-.9l-.54-.33c-.66-.41-1.35-.83-1.96-1.3-.94-.72-1.87-1.51-2.76-2.35-.89-.84-1.76-1.75-2.59-2.63l-.44-.46s0-.04,0-.07c-.01-.1-.02-.23-.09-.36l-.05-.1c-.12-.24-.28-.54-.56-.68-.28-.14-.65-.01-.73,.01-.21,.08-.35,.19-.41,.33-.15,.33,0,.83,.21,1.08,.72,.82,1.47,1.67,2.29,2.43,.99,.93,2.31,2.14,3.74,3.28,.75,.6,1.58,1.13,2.38,1.64,.21,.13,.42,.27,.63,.4,.34,.22,.69,.45,1.03,.67,1.21,.79,2.46,1.61,3.74,2.35,1,.58,2.08,1.04,3.13,1.49l.45,.19c1.18,.51,2.51,1.08,3.87,1.54,1.24,.42,2.53,.71,3.52,.91,2.16,.45,3.95,.78,5.64,1.05,.71,.11,1.43,.15,2.18,.19,.35,.02,.71,.04,1.09,.07,.05,0,.09,0,.14-.02,.06-.02,.12-.06,.17-.11,.07-.09,.1-.21,.07-.32l-.13-.47c-.09-.33-.18-.64-.27-.95l-.25-.84c-.3-1.02-.61-2.05-.93-3.07-.13-.42-.28-.83-.43-1.24-.16-.44-.32-.9-.46-1.36-.59-1.92-1.15-3.89-1.66-5.63Z"/><path class="cls-1" d="M76.51,140.71c-.1,.03-.2,.04-.3,.04-.38-.03-.74-.05-1.08-.07-.77-.04-1.49-.08-2.23-.2-1.7-.27-3.5-.6-5.66-1.05-1-.21-2.31-.5-3.57-.93-1.37-.46-2.71-1.04-3.9-1.55l-.45-.19c-1.05-.45-2.15-.92-3.17-1.51-1.28-.74-2.53-1.55-3.73-2.35l-1.68-1.09c-.81-.52-1.64-1.05-2.41-1.67-1.44-1.15-2.77-2.37-3.77-3.3-.83-.78-1.59-1.64-2.32-2.46-.31-.36-.51-1.03-.29-1.54,.08-.18,.25-.42,.66-.57,.18-.06,.66-.19,1.07,0,.41,.2,.62,.6,.75,.87l.05,.1c.08,.16,.11,.31,.13,.43l.34,.36c.84,.88,1.7,1.78,2.58,2.61,.88,.83,1.8,1.62,2.73,2.32,.6,.46,1.28,.87,1.93,1.28l.54,.33c.46,.29,.92,.58,1.37,.87,1.26,.81,2.51,1.61,3.79,2.29,1.34,.72,2.85,1.35,4.47,1.88,2.18,.72,4.53,1.4,7.39,2.14,.69,.18,1.44,.26,2.17,.34,.41,.04,.78,.08,1.16,.14,.2,.03,.38,.08,.55,.13,.3,.08,.39,.09,.41,.08,.03-.04,.15-.3,.19-.4,.14-.3,.04-.56-.14-1.02-.08-.19-.15-.38-.21-.58-.54-1.87-1.14-3.76-1.71-5.59-.23-.72-.46-1.45-.68-2.17-.03-.1-.06-.2-.08-.3-.03-.1-.05-.19-.08-.29-.14-.39-.38-.76-1.12-.55-.49,.14-.98,.27-1.47,.39-.69,.18-1.31,.33-1.92,.52-.51,.16-1.04,.37-1.5,.55-.44,.17-.83,.33-1.22,.46-.83,.28-1.68,.54-2.5,.79l-.1,.03c.33,.15,.65,.3,.98,.44,.96,.44,1.91,.88,2.86,1.21,.84,.29,1.73,.27,2.56-.06l-.04-.21c-.05-.26,.03-.53,.22-.71,.19-.19,.45-.27,.71-.21,.09,.02,.18,.03,.27,.04,.44,.05,1.42,.17,1.6,1.28,.08,.51-.03,.98-.31,1.37-.33,.45-.86,.74-1.55,.84-1.8,.27-3.63-.04-5.76-.97-1.15-.5-2.28-1.06-3.38-1.61l-.84-.42c-.24-.12-.42-.27-.6-.42-.1-.08-.17-.14-.25-.2-.22-.17-.33-.43-.31-.7,.02-.27,.18-.51,.43-.64l.18-.1c.2-.11,.37-.2,.57-.27,.4-.12,.79-.23,1.19-.34,.59-.17,1.19-.34,1.78-.53,.98-.32,1.96-.65,2.94-.99,.84-.28,1.67-.57,2.51-.85,.59-.2,1.19-.38,1.79-.57l.38-.12c.49-.15,.98-.3,1.47-.46,.5-.16,.94-.14,1.3,.05,.35,.19,.6,.52,.74,.99v.02c.51,1.73,1.07,3.7,1.66,5.61,.14,.45,.3,.9,.46,1.34,.15,.42,.3,.84,.43,1.26,.32,1.02,.62,2.04,.93,3.07l.25,.85c.09,.31,.18,.62,.27,.95l.13,.48c.07,.25,.01,.52-.15,.71-.09,.11-.22,.2-.36,.25Zm-.24-.82h0Z"/></g><g><path class="cls-1" d="M45.61,118.07c.38-.12,.77-.26,1.17-.42,.98-.38,1.97-.74,2.96-1.1l.39-.14c.41-.15,.83-.3,1.24-.45,.8-.29,1.59-.58,2.39-.88,.41-.16,.82-.35,1.21-.54,.17-.08,.35-.17,.52-.25,.17-.08,.25-.28,.18-.46l-.05-.12c-.06-.16-.24-.25-.41-.22l-.1,.02c-.11,.02-.22,.04-.31,.07-.46,.16-.92,.33-1.37,.49-.71,.26-1.42,.51-2.14,.76-2.96,1.03-5.88,1.99-8.95,2.45-.59,.09-1.29,.04-2.18-.15-.23-.05-.32-.22-.35-.31-.06-.16-.03-.34,.07-.46,.13-.16,.21-.34,.28-.5,.03-.06,.05-.12,.08-.18,.05-.1,.05-.21,0-.31-.04-.1-.13-.17-.23-.2-.07-.02-.14-.04-.21-.06-.19-.06-.39-.12-.61-.14-.26-.02-.5,.13-.68,.24-.57,.35-.82,.92-.73,1.69,.1,.85,.56,1.47,1.28,1.71,.77,.26,1.47,.37,2.09,.34,1.42-.07,2.86-.35,4.47-.88Z"/><path class="cls-1" d="M45.75,118.48c-1.63,.54-3.13,.83-4.58,.9-.67,.03-1.43-.09-2.25-.36-.88-.29-1.45-1.05-1.57-2.07-.14-1.19,.43-1.8,.93-2.11,.22-.13,.54-.32,.93-.3,.27,.02,.51,.09,.71,.15,.06,.02,.12,.04,.19,.06,.23,.06,.42,.22,.52,.44,.1,.22,.09,.47-.01,.68l-.06,.13c-.09,.21-.19,.43-.36,.64,.88,.25,1.53,.3,2.07,.21,3.04-.45,5.93-1.41,8.87-2.43,.65-.23,1.3-.46,1.95-.7l1.55-.56c.12-.04,.26-.07,.39-.09l.1-.02c.37-.07,.74,.13,.88,.49l.05,.12c.16,.39-.02,.84-.4,1.01-.17,.08-.34,.16-.51,.24-.41,.2-.82,.39-1.25,.56-.79,.31-1.59,.6-2.39,.89l-1.81,.66c-.93,.34-1.85,.68-2.77,1.04-.41,.16-.8,.3-1.19,.42Zm-6.72-3.06c-.1,.03-.2,.1-.3,.15-.28,.17-.62,.48-.53,1.28,.08,.69,.43,1.16,.98,1.35,.72,.24,1.37,.35,1.94,.32,1.7-.08,3.47-.49,5.5-1.27,.92-.35,1.85-.7,2.78-1.04l1.81-.66c.79-.29,1.59-.58,2.38-.88,.4-.16,.8-.34,1.17-.53,.16-.08,.32-.15,.47-.22h0s-.06,0-.06,0c-.09,.01-.17,.03-.24,.05l-1.55,.56c-.65,.24-1.31,.47-1.96,.7-2.98,1.04-5.92,2-9.03,2.47-.65,.1-1.39,.05-2.33-.16-.32-.07-.56-.29-.67-.6-.1-.31-.05-.64,.15-.87,.09-.11,.15-.25,.21-.39,.02-.05,.04-.09,.05-.12-.05-.01-.09-.03-.14-.04-.17-.06-.34-.11-.51-.12-.04,0-.08,0-.13,.02Zm16.26-1.52h0s0,0,0,0Z"/></g><g><g><path class="cls-1" d="M114.29,127.64c-.33-.1-.67,.06-.87,.24-.46,.42-1.04,.57-1.65,.74-.18,.05-.37,.1-.55,.16-2.99,.93-5.98,1.87-8.96,2.82-.92,.29-1.84,.6-2.76,.9-.67,.22-1.35,.44-2.02,.66-3.41,1.1-6.81,2.2-10.23,3.29-.37,.12-.74,.21-1.12,.31-.33,.08-.65,.17-.98,.27-.39,.12-.67,.28-.82,.5-.1,.14-.11,.34-.03,.59,.06,.19,.19,.43,.41,.51,.34,.11,.72,.02,.99-.07,.17-.06,.29-.16,.4-.26,.06-.05,.14-.12,.18-.13l.65-.22c3.33-1.1,6.78-2.24,10.18-3.32l.22-.07c.53-.18,.98-.33,1.52-.07,.25,.12,.63,.26,.98,.15,.02,0,.04-.01,.06-.02,.38-.15,.58-.54,.76-1.05,0-.01,.05-.04,.12-.08,.34-.15,.65-.29,.98-.4,1.4-.43,2.81-.85,4.21-1.27,1.32-.4,2.64-.8,3.96-1.2,.42-.13,.83-.27,1.24-.4,.36-.12,.73-.24,1.09-.36,.41-.13,.82-.24,1.23-.35l.38-.1,.09,.08c.1,.08,.23,.11,.35,.07h0c.12-.04,.21-.14,.24-.26,.02-.09,.05-.17,.08-.26,.08-.25,.18-.54,.11-.83-.09-.37-.33-.5-.47-.55Z"/><path class="cls-1" d="M97.4,134.08c.48-.16,1.03-.29,1.65,0,.18,.09,.45,.2,.66,.13,.22-.09,.37-.32,.55-.81,.01-.03,.03-.06,.04-.09,.06-.1,.16-.17,.31-.24,.31-.14,.67-.31,1.03-.41,1.4-.43,2.81-.85,4.21-1.27l3.96-1.2c.39-.12,.77-.25,1.16-.38l.17-.06c.34-.11,.67-.22,1-.33,.41-.13,.83-.24,1.25-.36l.38-.1c.14-.04,.29,0,.4,.09h0c.02-.06,.03-.11,.05-.17,.08-.23,.15-.44,.11-.61-.03-.13-.09-.2-.18-.23h0c-.14-.04-.33,.04-.45,.15-.54,.48-1.19,.66-1.83,.83-.18,.05-.36,.1-.53,.15-2.99,.93-5.98,1.87-8.96,2.82-.92,.29-1.84,.59-2.75,.9-.68,.22-1.35,.45-2.03,.66-3.41,1.1-6.82,2.2-10.23,3.29-.35,.11-.71,.2-1.06,.3,0,0-.13,.03-.13,.03-.3,.08-.61,.16-.91,.25-.29,.08-.5,.2-.59,.34,0,0-.02,.07,.03,.21,.06,.17,.12,.23,.14,.23,.17,.06,.43,.04,.71-.07,.09-.03,.18-.1,.27-.18,.11-.09,.21-.17,.33-.21l.65-.22c3.32-1.1,6.76-2.24,10.18-3.32l.22-.07c.06-.02,.12-.04,.18-.06Zm16.87-4.94h0Z"/></g><path class="cls-1" d="M97.55,133.81c.49-.14,1.01-.19,1.59,.09,.29,.14,.43,.14,.5,.12,.14-.06,.26-.24,.41-.68,.01-.04,.06-.12,.08-.15,.08-.12,.21-.22,.39-.3,.13-.06,.26-.12,.38-.17-.4,.13-.8,.26-1.2,.4l-2.03,.66s-.08,.03-.12,.04Zm14-4.41c.18-.06,.36-.12,.54-.17,.41-.13,.83-.24,1.25-.36l.38-.1c.11-.03,.22-.03,.33,0,.06-.17,.1-.33,.08-.43-.06-.08-.18-.05-.27,.03-.57,.52-1.25,.7-1.91,.88-.18,.05-.36,.1-.53,.15-2.58,.8-5.17,1.62-7.75,2.44,.51-.15,1.02-.31,1.53-.46l.59-.18c1.32-.4,2.64-.8,3.96-1.2,.36-.11,.72-.23,1.09-.35l.14-.05c.19-.06,.38-.13,.57-.19Zm-26.64,8.45s0,.04,.02,.06c.03,.08,.05,.12,.06,.13,.07,0,.28-.02,.5-.1,.06-.02,.14-.09,.21-.15,.13-.11,.24-.2,.4-.25l.65-.22c1.44-.48,2.97-.98,4.54-1.5-1.28,.41-2.56,.82-3.84,1.23-.38,.12-.77,.22-1.15,.32-.32,.08-.64,.17-.95,.26-.25,.08-.38,.15-.44,.21Z"/></g><g><path class="cls-1" d="M101.49,136.78c-.07-.16-.15-.31-.23-.46l-.1-.18c-.08-.16-.28-.23-.44-.17l-.17,.06c-.17,.06-.26,.24-.23,.41l.06,.29c.04,.2,.09,.39,.12,.59,.04,.25,.07,.51,.1,.76,.06,.48,.11,.97,.21,1.45,.07,.34,.35,.59,.57,.79l.04,.04c.13,.12,.33,.14,.59,.06,.08-.04,.33-.11,.38-.36l-.35-.07,.36,.04c.05-.29,.12-.64,.01-.96-.23-.66-.5-1.31-.76-1.94l-.15-.37Z"/><path class="cls-1" d="M100.76,136.42l.05,.22c.05,.2,.09,.41,.12,.62,.03,.24,.06,.48,.09,.72,.06,.53,.12,1,.21,1.47,.04,.18,.21,.35,.37,.5h0c.03-.22,.21-.37,.42-.38,0-.13,0-.25-.03-.35-.22-.65-.49-1.29-.76-1.91l-.15-.37h0c-.06-.14-.13-.28-.21-.41l-.07-.13-.05,.02Zm.11-.04h0s0,0,0,0Zm-.09-.03s0,0,0,0h0Z"/></g><g><path class="cls-1" d="M106.15,134.92c-.29-.09-.58-.14-.86-.18-.17-.03-.33-.05-.5-.09-.32-.07-.64-.15-.96-.24l-.42-.11c-.18-.05-.36,.05-.43,.23l-.07,.21c-.06,.17,.01,.36,.17,.44,.23,.12,.46,.24,.69,.37,.63,.33,1.28,.68,1.94,.98,.31,.15,.68,.08,1.03,0,.01,0,.03,0,.04-.01,.22-.07,.28-.3,.31-.38,.06-.2,.09-.48-.08-.66-.29-.28-.57-.47-.86-.56Z"/><path class="cls-1" d="M103.34,134.82l.64,.34c.65,.34,1.28,.68,1.92,.97,.19,.09,.48,.04,.75-.02-.01,0,0-.02,.02-.09,.04-.15,.03-.22,.02-.24-.23-.23-.46-.38-.68-.45-.26-.08-.53-.13-.8-.17-.19-.03-.36-.06-.52-.1-.33-.07-.65-.16-.97-.24l-.35-.09-.03,.09Zm-.06-.03h0Z"/></g><g><path class="cls-1" d="M97.82,135.55c-.17-.08-.37-.03-.47,.13l-1.85,3.03c-.05,.09-.07,.2-.04,.29,.03,.1,.1,.18,.2,.22,.05,.02,.1,.05,.15,.08,.16,.09,.36,.19,.59,.2,.06,0,.13,0,.19-.03,.25-.08,.48-.31,.56-.53h0c.27-.71,.52-1.44,.78-2.16l.25-.71c.06-.17-.02-.36-.18-.44l-.19-.09Z"/><path class="cls-1" d="M97.77,135.94h0s0,0,0,0Z"/></g></g><g><g><polygon class="cls-1" points="63.98 123.52 61.71 116.61 60.49 117.01 59.63 121.61 56.21 118.42 54.99 118.82 57.26 125.73 58.56 125.31 57.2 121.19 60.5 124.26 61.33 119.82 62.69 123.95 63.98 123.52"/><path class="cls-1" d="M62.83,123.68l.88-.29-2.14-6.51-.9,.29-.83,4.47c-.03,.16-.24,.23-.36,.12l-3.32-3.1-.9,.3,2.14,6.51,.88-.29-1.29-3.92c-.03-.09,0-.2,.09-.25,.08-.05,.19-.04,.26,.02l3.01,2.8,.76-4.05c.02-.1,.1-.17,.2-.18,.1,0,.19,.05,.22,.15l1.29,3.92Z"/></g><path class="cls-1" d="M74.88,117.54l1.65,1.85,1.45-.48-5.35-5.9-1.28,.42-.82,7.66-.03,.28,1.42-.47,.26-2.48,2.7-.89Zm-1.01-1.1l-1.53,.5,.21-1.94,1.32,1.43Z"/><polygon class="cls-1" points="81.66 109.84 83.94 116.76 85.23 116.33 84.62 114.48 85.6 112.4 88.61 115.13 88.68 115.2 90.19 114.7 86.2 111.12 87.72 107.85 85.93 108.44 84 112.59 82.96 109.42 81.66 109.84"/><polygon class="cls-1" points="101.86 104.64 101.44 103.35 95.71 105.23 97.99 112.14 103.88 110.21 103.45 108.91 98.86 110.42 98.31 108.77 100.55 108.03 100.12 106.74 97.89 107.47 97.44 106.1 101.86 104.64"/><path class="cls-1" d="M115.73,103.38c.57-.35,1.19-1.16,.75-2.52-.5-1.51-1.88-1.65-2.91-1.31l-4.04,1.33,2.27,6.92,1.3-.43-.9-2.74,2.16-.71,2.14,2.22,.08,.08,1.47-.48-2.3-2.36Zm-4.48-1.63l2.75-.9c.94-.31,1.12,.26,1.19,.45,.23,.69-.24,1-.66,1.14l-2.75,.9-.52-1.59Z"/><path class="cls-1" d="M126.8,101.58c-1.27,.42-2.06,.13-2.59-.05-.11-.04-.21-.07-.29-.1l-.14-.04-.61,1.16,.23,.11c.58,.29,1.8,.89,3.77,.24,1.63-.54,3.05-1.77,2.54-3.31-.48-1.45-1.79-1.84-3.89-1.15l-.87,.28c-.84,.28-1.05,0-1.14-.27-.22-.66,.71-1.23,1.39-1.46,.92-.3,1.46-.18,2.03-.04l.41,.09,.33-1.1,.05-.17-.17-.06c-1.04-.34-2.08-.34-3.09,0-1.43,.47-2.7,1.74-2.24,3.17,.42,1.27,1.71,1.49,2.73,1.16l.98-.32c.99-.33,1.91-.55,2.18,.28,.23,.69-.87,1.33-1.61,1.58Z"/></g></g></g></svg>