<?xml version="1.0" encoding="UTF-8"?><svg id="Layer_1" xmlns="http://www.w3.org/2000/svg" viewBox="0 0 271.8 138.86"><defs><style>.cls-1{fill:#ceb3a2;}.cls-2{opacity:.63;}</style></defs><g class="cls-2"><g><path class="cls-1" d="M45.97,129.02c1.46-.1,2.93-.2,4.39-.31,.17-.01,.36-.03,.5,.07,.31,.21,.65,.18,.99,.16,.57-.02,1.14-.05,1.7-.07,.15,0,.31-.03,.39,.14,.08,.16,.02,.31-.06,.45-.11,.19-.3,.26-.51,.3-.38,.06-.76,.13-1.14,.2-.44,.08-.88,.13-1.26,.43-.31,.25-.76,.19-1.15,.25-1.89,.28-3.78,.52-5.66,.84-2.7,.46-5.14,1.54-7.4,3.08-.94,.64-1.9,1.24-2.86,1.86-.45,.29-.85,.25-1.12-.11-.26-.35-.18-.75,.24-1.1,1.48-1.22,3.04-2.35,4.46-3.65,1.68-1.54,2.99-3.35,4-5.39,.81-1.63,1.62-3.25,2.43-4.88,.06-.12,.12-.27,.24-.32,.44-.21,.58-.64,.8-1.02,.23-.42,.45-.84,.68-1.26,.12-.23,.28-.4,.57-.27,.28,.13,.31,.36,.21,.63-.24,.63-.47,1.26-.71,1.88-.07,.17-.11,.34-.05,.53,.08,.24-.02,.47-.11,.69-.58,1.42-1.16,2.84-1.73,4.26-.05,.13-.21,.29-.08,.4,.15,.12,.28-.08,.41-.16,2.26-1.5,4.52-3.01,6.78-4.52,.24-.16,.49-.29,.79-.26,.15,.01,.26-.06,.38-.14,.52-.33,1.04-.65,1.56-.98,.18-.11,.36-.15,.55-.11,.16,.04,.3,.13,.35,.29,.06,.18-.07,.27-.18,.37-.45,.37-.89,.74-1.34,1.11-.26,.22-.53,.42-.62,.78-.04,.16-.2,.27-.34,.37-2.18,1.7-4.35,3.4-6.53,5.1-.03,.02-.06,.04-.08,.06-.07,.07-.21,.11-.18,.23,.04,.15,.19,.08,.29,.08,.14,0,.27-.02,.41-.03,0,0,0,0,0,0Z"/><path class="cls-1" d="M60.8,93.68c.58-.23,1.33-.53,2.08-.83,.14-.06,.29-.12,.43-.07,.35,.11,.64-.03,.95-.15,.54-.21,1.09-.4,1.63-.6,.13-.05,.28-.14,.41,0,.13,.15,.14,.33,.08,.51-.06,.19-.2,.29-.37,.38-.41,.22-.82,.44-1.24,.65-.32,.17-.61,.34-.84,.66-.27,.4-.78,.49-1.19,.7-1.94,1.01-3.95,1.86-5.83,2.98-1.94,1.16-3.59,2.66-4.99,4.44-.79,1-1.6,1.98-2.39,2.97-.2,.25-.44,.4-.76,.35-.57-.09-.8-.68-.45-1.21,.52-.8,1.04-1.6,1.57-2.4,1.12-1.67,2.15-3.37,2.82-5.28,.56-1.6,.83-3.25,1.07-4.92,.19-1.36,.41-2.72,.61-4.08,.02-.14,.03-.29,.13-.38,.31-.29,.34-.68,.4-1.06,.09-.51,.19-1.03,.27-1.54,.05-.26,.17-.47,.46-.44,.31,.03,.41,.23,.39,.53-.03,.56-.04,1.11-.07,1.67-.02,.35-.06,.7,.16,1.02,.12,.18,.06,.4,.05,.6-.11,1.55-.22,3.1-.33,4.66,0,.1-.07,.22,.05,.28,.15,.07,.19-.09,.25-.17,1.72-2.19,3.45-4.38,5.16-6.57,.16-.2,.33-.37,.59-.43,.18-.04,.28-.18,.39-.31,.38-.45,.76-.91,1.13-1.36,.12-.15,.27-.25,.46-.27,.18-.02,.35,.01,.46,.16,.12,.16,.02,.3-.07,.43-.37,.59-.74,1.17-1.11,1.76-.09,.14-.15,.27-.14,.44,.02,.23-.08,.44-.21,.63-1.54,2.29-3.08,4.59-4.62,6.88-.02,.03-.05,.05-.06,.08-.04,.1-.19,.18-.09,.29,.1,.11,.21,0,.31-.04,.75-.3,1.5-.61,2.41-.98Z"/><path class="cls-1" d="M12.64,126.84c.58-.23,1.33-.53,2.08-.83,.14-.06,.29-.12,.43-.07,.35,.11,.64-.03,.95-.15,.54-.21,1.09-.4,1.63-.6,.13-.05,.28-.14,.41,0,.13,.15,.14,.33,.08,.51-.06,.19-.2,.29-.37,.38-.41,.22-.82,.44-1.24,.65-.32,.17-.61,.34-.84,.66-.27,.4-.78,.49-1.19,.7-1.94,1.01-3.95,1.86-5.83,2.98-1.94,1.16-3.59,2.66-4.99,4.44-.79,1-1.6,1.98-2.39,2.97-.2,.25-.44,.4-.76,.35-.57-.09-.8-.68-.45-1.21,.52-.8,1.04-1.6,1.57-2.4,1.12-1.67,2.15-3.37,2.82-5.28,.56-1.6,.83-3.25,1.07-4.92,.19-1.36,.41-2.72,.61-4.08,.02-.14,.03-.29,.13-.38,.31-.29,.34-.68,.4-1.06,.09-.51,.19-1.03,.27-1.54,.05-.26,.17-.47,.46-.44,.31,.03,.41,.23,.39,.53-.03,.56-.04,1.11-.07,1.67-.02,.35-.06,.7,.16,1.02,.12,.18,.06,.4,.05,.6-.11,1.55-.22,3.1-.33,4.66,0,.1-.07,.22,.05,.28,.15,.07,.19-.09,.25-.17,1.72-2.19,3.45-4.38,5.16-6.57,.16-.2,.33-.37,.59-.43,.18-.04,.28-.18,.39-.31,.38-.45,.76-.91,1.13-1.36,.12-.15,.27-.25,.46-.27,.18-.02,.35,.01,.46,.16,.12,.16,.02,.3-.07,.43-.37,.59-.74,1.17-1.11,1.76-.09,.14-.15,.27-.14,.44,.02,.23-.08,.44-.21,.63-1.54,2.29-3.08,4.59-4.62,6.88-.02,.03-.05,.05-.06,.08-.04,.1-.19,.18-.09,.29,.1,.11,.21,0,.31-.04,.75-.3,1.5-.61,2.41-.98Z"/><path class="cls-1" d="M123.25,75.63c.62,.06,1.42,.15,2.23,.23,.15,.02,.31,.03,.41,.13,.26,.26,.58,.27,.91,.31,.58,.07,1.15,.15,1.72,.23,.14,.02,.32,0,.36,.19,.05,.19-.03,.36-.17,.49-.14,.14-.32,.17-.5,.16-.47,0-.93,0-1.4,0-.36,0-.7,.01-1.05,.2-.42,.23-.92,.07-1.38,.07-2.18,0-4.36-.19-6.54-.08-2.26,.12-4.42,.69-6.48,1.61-1.16,.52-2.34,1.01-3.5,1.52-.29,.13-.57,.15-.84-.04-.47-.34-.39-.97,.16-1.28,.83-.47,1.66-.94,2.5-1.39,1.76-.95,3.47-1.98,4.95-3.36,1.24-1.16,2.25-2.49,3.23-3.86,.8-1.12,1.62-2.22,2.44-3.33,.08-.11,.16-.24,.29-.28,.41-.11,.61-.44,.85-.75,.32-.41,.64-.82,.96-1.24,.16-.21,.36-.33,.61-.17,.26,.17,.26,.39,.1,.65-.29,.48-.56,.96-.84,1.45-.18,.3-.37,.59-.34,.98,.02,.21-.13,.38-.24,.55-.82,1.32-1.64,2.65-2.46,3.97-.05,.08-.16,.17-.08,.27,.1,.13,.21,0,.3-.03,2.54-1.13,5.09-2.27,7.63-3.41,.24-.11,.47-.17,.72-.11,.18,.05,.34-.03,.49-.09,.55-.22,1.09-.45,1.64-.68,.18-.08,.35-.09,.53-.03,.17,.06,.3,.17,.33,.36,.03,.2-.12,.27-.26,.35-.6,.35-1.2,.7-1.8,1.04-.14,.08-.26,.17-.33,.33-.09,.22-.28,.35-.48,.46-2.43,1.31-4.86,2.63-7.29,3.94-.03,.02-.07,.03-.09,.05-.08,.07-.25,.07-.21,.22,.04,.14,.19,.1,.3,.11,.8,.08,1.61,.16,2.59,.25Z"/><path class="cls-1" d="M186.61,41.62c.62,.06,1.42,.15,2.23,.23,.15,.02,.31,.03,.41,.13,.26,.26,.58,.27,.91,.31,.58,.07,1.15,.15,1.72,.23,.14,.02,.32,0,.36,.19,.05,.19-.03,.36-.17,.49-.14,.14-.32,.17-.5,.16-.47,0-.93,0-1.4,0-.36,0-.7,.01-1.05,.2-.42,.23-.92,.07-1.38,.07-2.18,0-4.36-.19-6.54-.08-2.26,.12-4.42,.69-6.48,1.61-1.16,.52-2.34,1.01-3.5,1.52-.29,.13-.57,.15-.84-.04-.47-.34-.39-.97,.16-1.28,.83-.47,1.66-.94,2.5-1.39,1.76-.95,3.47-1.98,4.95-3.36,1.24-1.16,2.25-2.49,3.23-3.86,.8-1.12,1.62-2.22,2.44-3.33,.08-.11,.16-.24,.29-.28,.41-.11,.61-.44,.85-.75,.32-.41,.64-.82,.96-1.24,.16-.21,.36-.33,.61-.17,.26,.17,.26,.39,.1,.65-.29,.48-.56,.96-.84,1.45-.18,.3-.37,.59-.34,.98,.02,.21-.13,.38-.24,.55-.82,1.32-1.64,2.65-2.46,3.97-.05,.08-.16,.17-.08,.27,.1,.13,.21,0,.3-.03,2.54-1.13,5.09-2.27,7.63-3.41,.24-.11,.47-.17,.72-.11,.18,.05,.34-.03,.49-.09,.55-.22,1.09-.45,1.64-.68,.18-.08,.35-.09,.53-.03,.17,.06,.3,.17,.33,.36,.03,.2-.12,.27-.26,.35-.6,.35-1.2,.7-1.8,1.04-.14,.08-.26,.17-.33,.33-.09,.22-.28,.35-.48,.46-2.43,1.31-4.86,2.63-7.29,3.94-.03,.02-.07,.03-.09,.05-.08,.07-.25,.07-.21,.22,.04,.14,.19,.1,.3,.11,.8,.08,1.61,.16,2.59,.25Z"/><path class="cls-1" d="M218.11,48.78c.62,.06,1.42,.15,2.23,.23,.15,.02,.31,.03,.41,.13,.26,.26,.58,.27,.91,.31,.58,.07,1.15,.15,1.72,.23,.14,.02,.32,0,.36,.19,.05,.19-.03,.36-.17,.49-.14,.14-.32,.17-.5,.16-.47,0-.93,0-1.4,0-.36,0-.7,.01-1.05,.2-.42,.23-.92,.07-1.38,.07-2.18,0-4.36-.19-6.54-.08-2.26,.12-4.42,.69-6.48,1.61-1.16,.52-2.34,1.01-3.5,1.52-.29,.13-.57,.15-.84-.04-.47-.34-.39-.97,.16-1.28,.83-.47,1.66-.94,2.5-1.39,1.76-.95,3.47-1.98,4.95-3.36,1.24-1.16,2.25-2.49,3.23-3.86,.8-1.12,1.62-2.22,2.44-3.33,.08-.11,.16-.24,.29-.28,.41-.11,.61-.44,.85-.75,.32-.41,.64-.82,.96-1.24,.16-.21,.36-.33,.61-.17,.26,.17,.26,.39,.1,.65-.29,.48-.56,.96-.84,1.45-.18,.3-.37,.59-.34,.98,.02,.21-.13,.38-.24,.55-.82,1.32-1.64,2.65-2.46,3.97-.05,.08-.16,.17-.08,.27,.1,.13,.21,0,.3-.03,2.54-1.13,5.09-2.27,7.63-3.41,.24-.11,.47-.17,.72-.11,.18,.05,.34-.03,.49-.09,.55-.22,1.09-.45,1.64-.68,.18-.08,.35-.09,.53-.03,.17,.06,.3,.17,.33,.36,.03,.2-.12,.27-.26,.35-.6,.35-1.2,.7-1.8,1.04-.14,.08-.26,.17-.33,.33-.09,.22-.28,.35-.48,.46-2.43,1.31-4.86,2.63-7.29,3.94-.03,.02-.07,.03-.09,.05-.08,.07-.25,.07-.21,.22,.04,.14,.19,.1,.3,.11,.8,.08,1.61,.16,2.59,.25Z"/><path class="cls-1" d="M230.03,10.71c.62,.06,1.42,.15,2.23,.23,.15,.02,.31,.03,.41,.13,.26,.26,.58,.27,.91,.31,.58,.07,1.15,.15,1.72,.23,.14,.02,.32,0,.36,.19,.05,.19-.03,.36-.17,.49-.14,.14-.32,.17-.5,.16-.47,0-.93,0-1.4,0-.36,0-.7,.01-1.05,.2-.42,.23-.92,.07-1.38,.07-2.18,0-4.36-.19-6.54-.08-2.26,.12-4.42,.69-6.48,1.61-1.16,.52-2.34,1.01-3.5,1.52-.29,.13-.57,.15-.84-.04-.47-.34-.39-.97,.16-1.28,.83-.47,1.66-.94,2.5-1.39,1.76-.95,3.47-1.98,4.95-3.36,1.24-1.16,2.25-2.49,3.23-3.86,.8-1.12,1.62-2.22,2.44-3.33,.08-.11,.16-.24,.29-.28,.41-.11,.61-.44,.85-.75,.32-.41,.64-.82,.96-1.24,.16-.21,.36-.33,.61-.17,.26,.17,.26,.39,.1,.65-.29,.48-.56,.96-.84,1.45-.18,.3-.37,.59-.34,.98,.02,.21-.13,.38-.24,.55-.82,1.32-1.64,2.65-2.46,3.97-.05,.08-.16,.17-.08,.27,.1,.13,.21,0,.3-.03,2.54-1.13,5.09-2.27,7.63-3.41,.24-.11,.47-.17,.72-.11,.18,.05,.34-.03,.49-.09,.55-.22,1.09-.45,1.64-.68,.18-.08,.35-.09,.53-.03,.17,.06,.3,.17,.33,.36,.03,.2-.12,.27-.26,.35-.6,.35-1.2,.7-1.8,1.04-.14,.08-.26,.17-.33,.33-.09,.22-.28,.35-.48,.46-2.43,1.31-4.86,2.63-7.29,3.94-.03,.02-.07,.03-.09,.05-.08,.07-.25,.07-.21,.22,.04,.14,.19,.1,.3,.11,.8,.08,1.61,.16,2.59,.25Z"/><path class="cls-1" d="M262.1,25.89c.54,.31,1.24,.72,1.94,1.12,.13,.08,.27,.16,.32,.29,.13,.34,.42,.49,.7,.66,.5,.3,.99,.61,1.48,.92,.12,.08,.29,.13,.25,.32-.04,.19-.17,.31-.36,.38-.19,.07-.36,.02-.53-.06-.42-.19-.85-.38-1.28-.57-.33-.15-.64-.28-1.04-.25-.48,.03-.86-.31-1.28-.5-1.99-.9-3.9-1.97-5.94-2.75-2.11-.82-4.31-1.18-6.57-1.19-1.27,0-2.55-.04-3.82-.05-.32,0-.59-.1-.75-.38-.28-.5,.04-1.04,.68-1.1,.95-.09,1.9-.17,2.85-.24,2-.15,3.98-.38,5.89-1.04,1.6-.55,3.08-1.35,4.53-2.19,1.19-.69,2.39-1.36,3.59-2.04,.12-.07,.24-.16,.38-.13,.42,.07,.74-.15,1.08-.33,.46-.25,.92-.49,1.38-.74,.24-.13,.47-.16,.63,.09,.17,.26,.07,.46-.17,.64-.46,.32-.9,.65-1.36,.98-.29,.2-.58,.39-.71,.75-.07,.2-.28,.29-.45,.41-1.29,.87-2.58,1.74-3.87,2.61-.08,.05-.22,.09-.19,.21,.04,.16,.19,.09,.29,.09,2.78,0,5.57,.02,8.35,.02,.26,0,.5,.03,.7,.2,.14,.12,.32,.11,.49,.12,.59,.02,1.18,.04,1.77,.05,.19,0,.36,.06,.5,.19,.13,.13,.2,.28,.16,.46-.05,.19-.22,.2-.38,.22-.69,.07-1.38,.14-2.07,.21-.16,.02-.3,.05-.43,.17-.17,.16-.4,.21-.63,.22-2.75,.2-5.51,.4-8.26,.61-.03,0-.07,0-.1,0-.1,.03-.26-.04-.29,.11-.02,.14,.13,.17,.22,.22,.7,.4,1.4,.8,2.26,1.3Z"/><path class="cls-1" d="M166.06,76.81c.62,.06,1.42,.15,2.23,.23,.15,.02,.31,.03,.41,.13,.26,.26,.58,.27,.91,.31,.58,.07,1.15,.15,1.72,.23,.14,.02,.32,0,.36,.19,.05,.19-.03,.36-.17,.49-.14,.14-.32,.17-.5,.16-.47,0-.93,0-1.4,0-.36,0-.7,.01-1.05,.2-.42,.23-.92,.07-1.38,.07-2.18,0-4.36-.19-6.54-.08-2.26,.12-4.42,.69-6.48,1.61-1.16,.52-2.34,1.01-3.5,1.52-.29,.13-.57,.15-.84-.04-.47-.34-.39-.97,.16-1.28,.83-.47,1.66-.94,2.5-1.39,1.76-.95,3.47-1.98,4.95-3.36,1.24-1.16,2.25-2.49,3.23-3.86,.8-1.12,1.62-2.22,2.44-3.33,.08-.11,.16-.24,.29-.28,.41-.11,.61-.44,.85-.75,.32-.41,.64-.82,.96-1.24,.16-.21,.36-.33,.61-.17,.26,.17,.26,.39,.1,.65-.29,.48-.56,.96-.84,1.45-.18,.3-.37,.59-.34,.98,.02,.21-.13,.38-.24,.55-.82,1.32-1.64,2.65-2.46,3.97-.05,.08-.16,.17-.08,.27,.1,.13,.21,0,.3-.03,2.54-1.13,5.09-2.27,7.63-3.41,.24-.11,.47-.17,.72-.11,.18,.05,.34-.03,.49-.09,.55-.22,1.09-.45,1.64-.68,.18-.08,.35-.09,.53-.03,.17,.06,.3,.17,.33,.36,.03,.2-.12,.27-.26,.35-.6,.35-1.2,.7-1.8,1.04-.14,.08-.26,.17-.33,.33-.09,.22-.28,.35-.48,.46-2.43,1.31-4.86,2.63-7.29,3.94-.03,.02-.07,.03-.09,.05-.08,.07-.25,.07-.21,.22,.04,.14,.19,.1,.3,.11,.8,.08,1.61,.16,2.59,.25Z"/><path class="cls-1" d="M100.6,105.32c.6,.18,1.37,.42,2.14,.66,.14,.04,.3,.09,.38,.21,.2,.3,.52,.38,.83,.48,.55,.18,1.1,.37,1.65,.56,.13,.05,.31,.07,.32,.26,0,.2-.1,.34-.26,.45-.17,.1-.34,.1-.53,.06-.46-.09-.91-.18-1.37-.27-.35-.07-.69-.12-1.07,0-.46,.14-.91-.11-1.36-.2-2.14-.43-4.24-1.04-6.4-1.35-2.24-.32-4.46-.18-6.67,.32-1.24,.28-2.49,.54-3.73,.81-.31,.07-.59,.04-.81-.21-.39-.43-.19-1.03,.41-1.23,.91-.3,1.81-.6,2.73-.88,1.92-.59,3.79-1.27,5.51-2.33,1.44-.89,2.69-2.01,3.92-3.16,1.01-.94,2.03-1.86,3.04-2.79,.1-.09,.2-.21,.34-.22,.42-.03,.69-.32,.98-.57,.39-.34,.79-.68,1.18-1.03,.2-.18,.42-.26,.64-.05,.22,.21,.18,.44-.03,.66-.37,.41-.73,.84-1.1,1.25-.23,.26-.48,.51-.52,.89-.02,.21-.2,.35-.34,.5-1.06,1.14-2.12,2.28-3.18,3.41-.07,.07-.19,.13-.13,.25,.07,.14,.21,.05,.3,.03,2.72-.62,5.43-1.23,8.14-1.86,.25-.06,.49-.08,.73,.04,.17,.08,.33,.04,.5,0,.58-.11,1.16-.23,1.74-.35,.19-.04,.36-.02,.53,.08,.15,.09,.26,.23,.26,.41,0,.2-.17,.24-.33,.3-.66,.22-1.31,.45-1.97,.67-.15,.05-.29,.12-.38,.26-.13,.19-.34,.29-.56,.36-2.64,.81-5.28,1.63-7.92,2.45-.03,.01-.07,.01-.1,.03-.09,.05-.26,.02-.25,.17,0,.14,.17,.13,.27,.16,.77,.24,1.54,.47,2.49,.75Z"/></g></g></svg>