<?xml version="1.0" encoding="UTF-8"?><svg id="Layer_1" xmlns="http://www.w3.org/2000/svg" viewBox="0 0 202.51 202.51"><defs><style>.cls-1{fill:#c6ab99;}</style></defs><path class="cls-1" d="M62.68,7.64C11.06,28.91-13.63,88.21,7.64,139.83c21.27,51.62,80.57,76.32,132.19,55.05,51.62-21.27,76.32-80.57,55.05-132.19C173.61,11.06,114.31-13.63,62.68,7.64Zm75.82,184.02c-49.84,20.54-107.1-3.31-127.64-53.15C-9.68,88.66,14.17,31.4,64.01,10.86c49.84-20.54,107.1,3.31,127.64,53.15s-3.31,107.1-53.15,127.64Z"/><path class="cls-1" d="M65.31,14C17.19,33.83-5.82,89.09,14,137.21c19.82,48.11,75.09,71.13,123.2,51.3,48.11-19.82,71.13-75.09,51.3-123.21C168.69,17.19,113.42-5.82,65.31,14Zm71.57,173.7c-47.67,19.64-102.43-3.16-122.07-50.83C-4.83,89.21,17.97,34.45,65.64,14.81c47.67-19.64,102.43,3.16,122.07,50.83,19.64,47.67-3.16,102.43-50.83,122.07Z"/><g><g><path class="cls-1" d="M42.15,161.27l1.51-.43h-1.57c-.33,0-.65,0-.96,0-.77-.06-1.48-.18-2.1-.37-.86-.27-1.53-.67-2-1.19-.33-.36-.25-.62-.15-.78,.04-.07,.19-.26,.8-.82l2.68-2.43h0c.37,.41,.73,.84,1.07,1.28,.4,.52,.52,.82,.54,.97,.06,.37,.05,.74-.03,1.1l-.15,.67,3.05-2.77h-.59c-.26,.02-.48,0-.66-.02-.18-.03-.4-.1-.66-.2-.18-.06-.38-.18-.6-.36-.23-.18-.53-.48-.9-.88-.13-.14-.23-.25-.31-.35-.03-.03-.05-.06-.07-.09l2.58-2.34c.16-.14,.32-.21,.5-.21,.17,0,.35,.1,.52,.29,.4,.44,.71,1.04,.91,1.78,.14,.52,.22,1.08,.23,1.66l-.05,1.78,.45-.93c.15-.31,.28-.57,.39-.79,.11-.22,.25-.46,.41-.72,.16-.27,.31-.49,.44-.68,.13-.18,.28-.39,.45-.61l.24-.31-.39-.04c-.32-.03-.63-.12-.91-.27-.18-.09-.32-.19-.43-.28-.12-.09-.25-.22-.4-.39l-4.17-4.59,.29,.93c.03,.09,.04,.18,.04,.26,0,.07,0,.14-.03,.22-.03,.15-.13,.31-.3,.46l-6.27,5.7c-.25,.23-.49,.41-.7,.55-.2,.12-.38,.19-.53,.21-.28,.02-.57-.03-.84-.15l-.95-.42,4.82,5.31c.06,.07,.16,.19,.3,.35,.12,.14,.19,.26,.22,.37,.07,.22,.09,.44,.06,.64l-.05,.36,2.08-.78c.41-.14,.77-.27,1.1-.37,.19-.06,.55-.17,1.09-.33Z"/><path class="cls-1" d="M43.76,161.08s-.02,0-.03,0l-1.51,.43c-.54,.16-.9,.26-1.08,.32-.33,.1-.69,.23-1.1,.37l-2.08,.78c-.09,.03-.18,.02-.25-.04-.07-.06-.11-.15-.1-.24l.05-.36c.02-.16,0-.34-.05-.53-.01-.04-.05-.13-.17-.28-.13-.16-.23-.27-.29-.34l-4.82-5.31c-.08-.09-.09-.23-.02-.33,.07-.1,.2-.14,.32-.09l.95,.42c.23,.11,.48,.15,.72,.13,.11,0,.25-.07,.41-.17,.21-.13,.43-.31,.67-.52l6.27-5.7c.16-.15,.21-.25,.22-.32,.03-.09,.03-.12,.03-.16,0-.06-.01-.13-.04-.2l-.29-.93c-.04-.12,.01-.24,.12-.3,.11-.06,.24-.04,.32,.05l4.17,4.59c.14,.15,.26,.27,.37,.36,.1,.08,.23,.16,.39,.25,.25,.13,.53,.21,.81,.24l.39,.04c.09,0,.18,.07,.21,.15,.04,.09,.03,.19-.03,.26l-.24,.31c-.17,.22-.32,.42-.45,.6-.13,.18-.27,.4-.43,.66-.16,.26-.29,.5-.41,.71-.11,.22-.24,.48-.39,.78l-.45,.93c-.05,.11-.18,.17-.3,.14-.12-.03-.2-.14-.2-.26l.05-1.78c-.01-.56-.09-1.09-.22-1.59-.19-.7-.48-1.26-.85-1.67-.08-.09-.21-.2-.33-.2-.11,0-.21,.04-.32,.14l-2.39,2.17c.06,.07,.13,.15,.21,.24,.36,.39,.65,.68,.87,.85,.2,.15,.38,.26,.53,.32,.25,.1,.45,.16,.61,.19,.16,.03,.37,.04,.62,.03h.58c.11-.02,.21,.05,.25,.15s.01,.22-.07,.29l-3.05,2.77c-.08,.08-.21,.09-.31,.03-.1-.06-.15-.17-.12-.28l.15-.67c.07-.33,.08-.66,.02-1-.01-.09-.09-.33-.49-.86-.28-.36-.58-.72-.89-1.07l-2.49,2.26c-.65,.59-.74,.74-.75,.75-.05,.08-.12,.21,.12,.48,.44,.48,1.07,.86,1.88,1.12,.6,.18,1.29,.31,2.04,.36,.29,0,.62,0,.94,0h1.57c.13,0,.24,.09,.26,.22,.02,.12-.05,.23-.16,.28Zm-5.57,1.27l1.68-.63c.42-.14,.78-.27,1.11-.37,.15-.05,.42-.13,.81-.25-.23,0-.45,0-.66,0-.81-.06-1.54-.19-2.18-.38-.9-.29-1.61-.71-2.11-1.26-.33-.36-.39-.73-.19-1.08,.03-.05,.12-.21,.85-.88l2.68-2.43c.09-.08,.23-.09,.33-.01,.42,.45,.78,.89,1.12,1.33,.35,.46,.55,.82,.59,1.09,.06,.36,.06,.72,0,1.07l1.93-1.76c-.23,0-.43-.01-.6-.04-.2-.03-.43-.1-.71-.22-.2-.07-.42-.2-.67-.4-.24-.19-.55-.49-.93-.91-.13-.14-.23-.26-.31-.35l-.08-.09c-.09-.11-.07-.26,.03-.36l2.58-2.34c.21-.18,.43-.28,.68-.27,.25,0,.48,.13,.71,.37,.43,.47,.76,1.11,.97,1.88,.15,.53,.23,1.12,.24,1.73l-.02,.57c.11-.24,.22-.44,.31-.62,.12-.22,.26-.46,.42-.74,.17-.27,.32-.5,.45-.69,.12-.17,.26-.36,.42-.56-.33-.04-.64-.14-.93-.29-.2-.1-.36-.21-.48-.31-.12-.1-.26-.23-.42-.41l-3.4-3.75c.01,.06,.02,.11,.02,.16,0,.11,0,.21-.05,.32-.03,.17-.16,.38-.38,.57l-6.27,5.7c-.26,.23-.5,.43-.74,.58-.24,.15-.45,.23-.65,.25-.27,.02-.54-.02-.8-.11l4,4.41c.07,.08,.17,.19,.3,.36,.14,.17,.23,.32,.27,.46,.07,.23,.09,.46,.08,.68Z"/></g><g><path class="cls-1" d="M56.16,163.69c.19-.05,.38-.09,.58-.11,.19-.02,.4-.03,.61-.02,.21,0,.43,.04,.67,.09l.94,.21-3.46-2.7,.35,.79c.09,.2,.1,.38,.04,.58,0,0,0,.03-.06,.09-.06,.08-.14,.14-.24,.19-.12,.06-.28,.13-.47,.21l-2.58,.95,.26-2.85c.01-.18,.04-.35,.07-.49,.03-.12,.07-.21,.12-.28,.05-.07,.08-.09,.08-.09,.17-.09,.34-.11,.52-.06l.97,.23-5.39-4.21,.49,.91c.15,.28,.26,.59,.33,.91,.01,.07,.03,.2,.03,.49,0,.05-.02,.32-.05,.8l-.38,5.71-3.68,1.38c-.24,.09-.42,.15-.54,.18-.12,.03-.31,.07-.55,.11-.18,.02-.39,.03-.63,.02-.23,0-.46-.04-.68-.09l-.97-.22,3.65,2.82-.46-.88c-.09-.18-.11-.35-.06-.53,.02-.06,.03-.09,.04-.1,.05-.07,.14-.13,.27-.19,.16-.07,.31-.14,.46-.2l3.1-1.19-.53,3.19c-.02,.08-.04,.23-.07,.43-.02,.16-.07,.29-.13,.36-.01,.02-.04,.05-.11,.08-.15,.1-.32,.12-.51,.07l-1.05-.29,5.42,4.23-.43-.87c-.11-.22-.18-.38-.22-.47-.04-.1-.07-.25-.12-.45-.02-.09-.05-.29-.06-.74,0-.44,.01-.8,.05-1.09l.69-5.58,3.14-1.18c.18-.07,.36-.12,.54-.18Z"/><path class="cls-1" d="M52.66,174.49c-.08,.03-.18,.02-.26-.04l-5.42-4.23c-.1-.08-.13-.21-.07-.32,.06-.11,.18-.17,.3-.14l1.05,.29c.12,.03,.21,.02,.3-.03,.06-.04,.09-.11,.12-.27,.03-.21,.05-.35,.07-.44l.46-2.74-2.67,1.03c-.13,.06-.29,.13-.44,.2-.12,.05-.16,.1-.17,.11-.03,.12-.02,.22,.04,.34l.46,.88c.06,.11,.03,.24-.06,.32-.1,.08-.23,.08-.33,0l-3.65-2.82c-.1-.08-.13-.21-.08-.32,.05-.11,.17-.17,.29-.14l.97,.22c.21,.05,.42,.08,.64,.09,.22,0,.42,0,.58-.02,.22-.04,.4-.07,.52-.1,.11-.03,.28-.09,.51-.18l3.53-1.33,.37-5.54c.03-.48,.05-.74,.05-.79,0-.26,0-.38-.02-.43-.06-.3-.16-.58-.3-.85l-.49-.91c-.06-.11-.03-.24,.06-.32,.09-.08,.23-.08,.33,0l5.39,4.21c.1,.07,.13,.21,.07,.32-.05,.11-.18,.17-.3,.14l-.97-.23c-.13-.03-.23-.02-.34,.04-.01,.04-.05,.09-.07,.2-.03,.13-.05,.28-.07,.45l-.22,2.45,2.19-.81c.17-.07,.32-.14,.44-.2,.06-.03,.11-.07,.15-.12,.06-.15,.05-.26-.01-.4l-.35-.79c-.05-.11-.02-.24,.08-.31,.09-.07,.23-.07,.32,0l3.46,2.7c.1,.07,.13,.21,.07,.32-.05,.11-.17,.17-.29,.14l-.94-.21c-.22-.05-.43-.08-.62-.09-.2,0-.39,0-.57,.02-.19,.02-.37,.06-.54,.11-.18,.05-.35,.1-.52,.17l-2.99,1.12-.67,5.42c-.04,.29-.06,.63-.05,1.05,0,.47,.03,.63,.05,.68,.04,.2,.08,.34,.11,.43,.03,.09,.1,.24,.21,.44l.43,.87c.05,.11,.03,.24-.07,.32-.02,.02-.04,.03-.07,.04Zm-4.36-3.9l3.51,2.74c-.07-.15-.12-.26-.15-.33-.04-.11-.08-.27-.13-.49-.04-.14-.06-.4-.06-.79,0-.45,.01-.82,.06-1.13l.69-5.57c.01-.1,.08-.18,.17-.21l3.14-1.18c.18-.07,.37-.13,.57-.18h0c.2-.05,.4-.09,.61-.12,.21-.03,.43-.04,.65-.03,.17,0,.35,.03,.54,.06l-1.75-1.37c.06,.21,.06,.41,0,.62,0,.03-.04,.09-.1,.17-.08,.11-.19,.19-.32,.26-.13,.07-.29,.14-.49,.22l-2.59,.96c-.08,.03-.18,.02-.25-.04-.07-.05-.11-.14-.1-.23l.26-2.85c.02-.2,.04-.37,.08-.53,.04-.16,.1-.29,.17-.38,.05-.06,.09-.1,.13-.13,.2-.11,.39-.15,.58-.14l-3.51-2.74c.12,.26,.21,.53,.27,.82,.03,.12,.04,.31,.03,.55,0,.05-.02,.32-.05,.81l-.39,5.71c0,.1-.08,.18-.17,.23l-3.68,1.38c-.26,.1-.45,.16-.57,.19-.12,.03-.32,.07-.57,.11-.2,.02-.42,.03-.68,.02-.19,0-.37-.03-.55-.06l1.81,1.4c-.07-.19-.07-.38,0-.57,.02-.06,.04-.13,.08-.18,.08-.1,.21-.19,.37-.27,.16-.07,.32-.14,.46-.2l3.11-1.19c.09-.03,.19-.02,.26,.04,.07,.06,.11,.15,.09,.24l-.53,3.19c-.02,.09-.04,.23-.07,.43-.03,.21-.09,.37-.18,.48-.03,.04-.09,.1-.18,.15-.16,.1-.34,.14-.53,.12Z"/></g><path class="cls-1" d="M68.18,170.97c-.24-1.64-1.07-2.85-2.48-3.6-1.37-.73-2.85-.75-4.39-.05-1.41,.64-2.52,1.69-3.28,3.12-.8,1.49-1.07,3-.83,4.49,.26,1.61,1.1,2.8,2.48,3.54,1.36,.72,2.76,.8,4.18,.21,.07-.03,.14-.06,.21-.09,1.36-.62,2.46-1.71,3.27-3.23,.77-1.45,1.06-2.92,.84-4.38Zm-2.15-1.69c.04,.47-.1,1.1-.39,1.85-.21,.54-.54,1.23-.98,2.06l-1.28,2.4c-.51,.96-1,1.61-1.45,1.96-.57,.44-1.19,.48-1.88,.1-.54-.29-.8-.73-.8-1.36,0-.51,.2-1.2,.57-2.04,.08-.18,.34-.7,1.11-2.14l.57-1.07c.66-1.24,1.23-2.09,1.7-2.54,.24-.23,.48-.4,.72-.49,.44-.18,.88-.15,1.34,.1,.47,.25,.71,.64,.75,1.18Z"/><g><path class="cls-1" d="M74.74,182.84l2.88-8.44c.06-.16,.13-.3,.21-.41,.06-.08,.12-.11,.21-.11,.12,0,.23,.01,.31,.04,.47,.16,.87,.77,1.19,1.83,.11,.35,.23,.89,.34,1.59l.21,1.3,.98-5.87-.41,.26c-.13,.08-.25,.14-.35,.17-.1,.03-.24,.06-.4,.07-.17,.01-.32,.01-.45,0-.13-.02-.29-.05-.48-.12l-4.53-1.55c-.24-.08-.43-.16-.58-.23-.13-.06-.25-.15-.36-.26-.11-.11-.19-.21-.24-.3-.06-.1-.1-.21-.14-.34l-.14-.49-2.24,3.87c-.22,.22-.23,.36-.16,.48l.19,.34,.32-.56c.13-.13,.43-.37,1.06-.79,.91-.61,1.67-.82,2.27-.62,.15,.05,.18,.13,.18,.2,.02,.15,0,.33-.07,.52l-2.64,7.75c-.16,.46-.28,.79-.36,.99-.07,.16-.15,.28-.25,.34-.18,.12-.36,.2-.53,.24l-.72,.18,5.26,1.79-.42-.56c-.1-.14-.17-.28-.22-.42-.04-.13-.05-.26-.04-.37,.02-.14,.07-.3,.13-.5Z"/><path class="cls-1" d="M70.94,182.94l3.64,1.24c-.08-.13-.14-.26-.19-.39-.06-.17-.07-.34-.05-.5,.02-.15,.07-.32,.15-.54h0s2.88-8.45,2.88-8.45c.06-.19,.15-.36,.26-.49,.11-.14,.25-.21,.41-.21,.15,0,.28,.01,.39,.05,.56,.19,1,.85,1.36,2,.1,.31,.21,.78,.31,1.37l.63-3.75c-.12,.07-.23,.12-.33,.15-.11,.04-.27,.06-.45,.08-.19,.02-.36,.01-.51,0-.15-.02-.33-.06-.53-.13l-4.53-1.54c-.26-.09-.46-.17-.61-.25-.15-.07-.3-.18-.43-.31-.13-.13-.22-.25-.29-.36-.05-.09-.1-.19-.14-.3l-1.82,3.15c.21-.18,.53-.4,.93-.67,.98-.66,1.82-.88,2.49-.65,.21,.07,.33,.21,.36,.41,.02,.2,0,.41-.08,.63l-2.64,7.75c-.16,.47-.28,.8-.37,1.01-.09,.21-.2,.37-.35,.46-.16,.1-.32,.19-.48,.24Z"/></g><g><path class="cls-1" d="M84.77,185.4l1.78-8.59c.04-.19,.1-.38,.17-.55,.07-.16,.15-.29,.22-.37,.06-.06,.12-.11,.19-.16,.06-.04,.12-.08,.19-.11l.66-.27-4.8-1,.39,.48c.12,.14,.19,.26,.22,.34,.03,.08,.05,.15,.04,.22,0,.08-.02,.21-.06,.37l-1.88,9.04c-.03,.12-.07,.26-.13,.42-.07,.19-.12,.27-.15,.3-.02,.02-.07,.08-.26,.2-.1,.06-.18,.1-.27,.14l-.64,.27,5.02,1.04-.52-.52c-.05-.05-.1-.12-.16-.19-.05-.07-.08-.13-.11-.21-.04-.1-.06-.21-.03-.34,.03-.16,.06-.34,.1-.52Z"/><path class="cls-1" d="M81.34,186.05l3.36,.7s-.06-.08-.1-.12c-.07-.09-.11-.18-.15-.29-.06-.13-.07-.29-.04-.46,.03-.17,.06-.34,.1-.53l1.78-8.59c.05-.22,.11-.42,.19-.6,.08-.19,.17-.34,.28-.45,.08-.07,.14-.13,.22-.19,.04-.03,.09-.06,.14-.09l-3.26-.68c.1,.13,.16,.23,.19,.33,.04,.11,.06,.22,.06,.32,0,.1-.02,.23-.06,.41l-1.88,9.04c-.03,.13-.08,.29-.14,.46-.06,.16-.12,.28-.17,.36-.07,.09-.18,.17-.33,.28-.07,.04-.13,.07-.19,.1Zm3.43-.65h0s0,0,0,0Z"/></g><g><path class="cls-1" d="M95.25,176.07c-.86-.07-1.63,.02-2.31,.29l-.06,.02c-.98,.4-1.83,1.14-2.53,2.18-.71,1.06-1.13,2.23-1.24,3.5-.13,1.5,.23,2.89,1.05,4.13,.87,1.3,2.01,2.02,3.39,2.14,.87,.07,1.66-.03,2.36-.32,.24-.1,.47-.22,.69-.36,.85-.55,1.47-1.35,1.84-2.36l.26-.7-.59,.45c-.85,.65-1.76,.95-2.68,.86-1.18-.1-2.09-.7-2.79-1.83-.65-1.06-.92-2.28-.81-3.64,.08-.99,.3-1.79,.65-2.37,.41-.7,.98-1.01,1.72-.95,.52,.04,1.01,.49,1.47,1.31,.15,.29,.33,.72,.54,1.29l.15,.43,.24-.39c.12-.19,.24-.39,.37-.6,.13-.2,.26-.41,.4-.6,.3-.44,.59-.84,.88-1.2l.15-.19-.21-.13c-.89-.56-1.88-.88-2.94-.97Z"/><path class="cls-1" d="M93.04,176.6c-.99,.41-1.8,1.11-2.47,2.11-.69,1.02-1.09,2.16-1.19,3.38-.12,1.44,.22,2.78,1.01,3.96,.83,1.23,1.9,1.91,3.2,2.02,1.11,.09,2.07-.11,2.88-.64,.76-.5,1.33-1.2,1.68-2.1-.88,.63-1.8,.91-2.75,.83-1.27-.11-2.25-.75-2.99-1.96-.68-1.11-.96-2.39-.84-3.8,.09-1.03,.32-1.87,.68-2.48,.46-.78,1.12-1.15,1.97-1.08,.61,.05,1.17,.54,1.67,1.44,.15,.29,.33,.71,.52,1.25,.1-.17,.21-.34,.33-.53,.13-.21,.27-.41,.41-.61,.3-.44,.59-.83,.86-1.18-.84-.52-1.78-.82-2.78-.91,0,0,0,0,0,0-.81-.07-1.55,.02-2.19,.27Z"/></g><g><path class="cls-1" d="M113.49,180.95l-2.4-5.32-3.93,.64,.6,.3c.19,.09,.35,.21,.48,.36,.12,.13,.21,.34,.25,.61,0,.05,.02,.11,.03,.21,0,.09,.01,.25,.01,.49l.17,7.72c0,.2-.02,.42-.06,.65-.04,.24-.11,.46-.19,.67-.12,.27-.27,.53-.46,.76l-.35,.44,3.56-.58-.53-.31c-.22-.12-.4-.27-.55-.42-.07-.07-.13-.17-.17-.3-.05-.16-.1-.38-.15-.68-.06-.38-.1-.75-.1-1.11l-.12-5.56,4.06,8.66,1.26-9.78,2.12,7.08c.04,.11,.06,.18,.06,.21,.01,.09,.01,.18,0,.28-.02,.1-.06,.21-.14,.33-.08,.12-.17,.22-.29,.29l-.98,.59,5.97-.97-.65-.3c-.19-.09-.36-.2-.52-.34-.15-.13-.28-.28-.36-.44-.09-.17-.18-.38-.26-.64l-2.48-8.06c-.05-.15-.09-.28-.11-.4-.03-.2-.01-.38,.06-.56,.07-.18,.19-.35,.36-.5l.58-.5-3.98,.65-.79,5.84Z"/><path class="cls-1" d="M116.93,186.7l3.82-.62c-.17-.09-.32-.19-.46-.32-.18-.15-.32-.33-.42-.51-.1-.18-.19-.41-.28-.69l-2.48-8.06c-.05-.15-.09-.3-.11-.44-.04-.25-.02-.48,.08-.7,.07-.18,.18-.35,.33-.5l-2.9,.47-.77,5.65c-.02,.12-.1,.21-.22,.22-.11,.02-.23-.04-.27-.15l-2.32-5.14-2.95,.48c.17,.1,.32,.22,.45,.36,.16,.17,.27,.42,.32,.74,0,.05,.02,.12,.03,.22,.01,.1,.02,.27,.02,.52l.17,7.71c0,.21-.02,.45-.06,.7-.05,.25-.12,.5-.21,.72-.12,.27-.26,.51-.43,.74l2.18-.36c-.19-.12-.37-.26-.51-.41-.1-.1-.18-.24-.23-.41-.05-.17-.11-.41-.15-.71-.06-.38-.1-.77-.1-1.15l-.12-5.56c0-.12,.08-.23,.2-.26,.12-.03,.24,.03,.29,.14l3.68,7.85,1.14-8.89c.02-.12,.11-.21,.24-.23,.12,0,.24,.07,.27,.19l2.12,7.08c.04,.11,.06,.2,.07,.24,.02,.13,.02,.26,0,.37-.02,.13-.08,.26-.17,.42-.07,.1-.14,.19-.23,.26Z"/></g><g><path class="cls-1" d="M134.69,180.98c-.17-.06-.31-.13-.42-.19-.25-.15-.54-.43-.89-.84l-7.4-8.66-.39,11.17c0,.62-.13,1.17-.37,1.64-.12,.26-.26,.48-.42,.69l-.49,.61,3.93-1.42-.63-.19c-.3-.09-.53-.24-.7-.44-.09-.11-.16-.22-.2-.33-.04-.11-.06-.23-.07-.36,0-.15-.01-.3-.02-.45v-1.23s2.91-1.05,2.91-1.05l1.19,1.49c.11,.14,.16,.24,.18,.3,.05,.13,.06,.27,.03,.44-.02,.16-.1,.33-.23,.5l-.44,.59,5.48-1.98-.68-.18c-.17-.04-.29-.08-.35-.1Zm-7.91-4.5l2.06,2.56-2.19,.79,.13-3.35Z"/><path class="cls-1" d="M130.97,182.7l3.87-1.4c-.12-.03-.2-.06-.25-.08-.18-.07-.33-.14-.46-.21-.28-.17-.59-.46-.96-.89l-6.97-8.15-.37,10.5c0,.65-.14,1.24-.4,1.75-.1,.23-.23,.43-.36,.62l2.33-.84c-.29-.11-.53-.27-.71-.48-.12-.14-.2-.27-.25-.41-.05-.13-.08-.28-.08-.44,0-.15-.01-.3-.02-.45v-1.24c0-.11,.06-.21,.17-.25l2.91-1.06c.11-.04,.22,0,.29,.08l1.19,1.49c.11,.14,.18,.27,.22,.38,.06,.16,.08,.35,.05,.56-.03,.17-.09,.34-.2,.51Zm-2.04-3.42h-.01s-2.19,.8-2.19,.8c-.08,.03-.17,.02-.24-.03-.07-.05-.11-.13-.11-.22l.13-3.35c0-.11,.06-.22,.18-.24,.1-.03,.22,0,.28,.08l2.06,2.56c.05,.07,.07,.15,.05,.23-.02,.08-.08,.14-.15,.17Z"/></g><g><path class="cls-1" d="M144.39,172.24s0,.07,0,.11c-.02,.1-.08,.35-.26,.92-.26,.82-.56,1.53-.87,2.1-.44,.79-.89,1.32-1.36,1.58-.1,.06-.2,.08-.27,.06-.06-.01-.13-.09-.19-.2l-4.57-8.27c-.09-.16-.15-.29-.18-.39-.03-.09-.04-.19-.03-.3,0-.07,.04-.21,.16-.42l.37-.67-4.85,2.68,.77,.03c.09,0,.18,.02,.27,.04,.09,.02,.19,.06,.3,.12,.1,.05,.19,.12,.26,.21,.09,.11,.18,.25,.27,.42l4.27,7.74c.08,.14,.15,.28,.2,.42,.06,.16,.07,.24,.07,.27,0,.05,0,.14-.05,.33-.03,.14-.09,.27-.16,.37l-.59,.8,5.55-3.07c.24-.13,.41-.22,.53-.27,.09-.02,.19-.06,.29-.06,.25-.01,.46,.05,.64,.2l.47,.38-.12-.59c-.13-.66-.24-1.35-.32-2.05-.07-.51-.12-1.17-.16-1.98,0-.11-.01-.24-.02-.39,.03-.19-.01-.24-.08-.3l-.37-.33v.49Z"/><path class="cls-1" d="M141.72,176.77h0s0,0,0,0Z"/></g><path class="cls-1" d="M148.61,160.07c.39-.3,1.12-.3,2.18,.01,.36,.1,.87,.3,1.52,.59l1.21,.54-4.37-4.05v.49c-.01,.16-.03,.29-.06,.39-.03,.1-.08,.23-.16,.37-.08,.14-.16,.27-.25,.38-.09,.1-.21,.22-.36,.34l-3.79,2.93c-.2,.15-.37,.27-.51,.36-.13,.08-.27,.13-.41,.16-.15,.03-.29,.04-.39,.04-.1,0-.22-.03-.36-.07l-.49-.15,2,3.99c.14,.3,.43,.65,.43,.65,0,0,0-.59-.01-.79-.02-.19-.07-.56-.07-1.32-.01-1.1,.23-1.85,.73-2.23,.12-.1,.2-.08,.27-.05,.14,.07,.27,.19,.39,.35l5.01,6.47c.3,.38,.51,.67,.63,.85,.1,.15,.15,.28,.15,.4,0,.22-.03,.41-.09,.58l-.25,.7,4.4-3.41-.71,.05c-.17,.01-.32,0-.47-.04-.14-.04-.25-.1-.33-.18-.11-.1-.22-.23-.34-.39l-5.47-7.05c-.11-.14-.18-.27-.23-.41-.04-.12,0-.19,.02-.24,.07-.1,.13-.18,.2-.24Z"/><g><path class="cls-1" d="M165.28,143.78c-.09-.15-.2-.38-.34-.68-.15-.32-.17-.42-.17-.45-.11-.41-.14-.84-.1-1.26l.08-.77-2.8,3.68,.86-.44c.2-.1,.42-.15,.64-.14,.22,.02,.41,.09,.59,.23,.19,.14,.37,.34,.52,.59l2.76,4.34-4.97-1.82c-.1-.04-.23-.08-.39-.13-.13-.04-.24-.09-.33-.16-.06-.04-.09-.07-.1-.09-.2-.22-.3-.47-.32-.77l-.03-.59-6.03,7.93,.59-.13c.14-.03,.25-.06,.31-.08,.27-.06,.41-.07,.47-.07,.18,0,.36,.03,.54,.08,.05,.01,.22,.08,.52,.2l10.7,3.61-3.43-5.88,6.33,2.26-5.91-9.44Zm-6.86,5.78v-.12s.15-.05,.15-.05c.19-.05,.36-.08,.52-.08,.25-.01,.46,0,.64,.04,.05,.01,.27,.08,.66,.21l2.92,.88,1.2,2.11-4.78-1.75c-.09-.01-.16-.03-.22-.04-.32-.08-.55-.18-.69-.29-.13-.1-.22-.21-.27-.34-.06-.14-.11-.33-.13-.56Z"/><path class="cls-1" d="M158.42,149.57h0s0,0,0,0Z"/></g><path class="cls-1" d="M179.47,136.02c-.16,0-.31-.03-.44-.08-.15-.05-.31-.12-.49-.21l-7.65-3.82c-.19-.1-.37-.21-.52-.34-.15-.12-.25-.24-.31-.35-.06-.12-.12-.28-.16-.47l-.13-.61-2.27,4.55,.61-.34c.16-.08,.31-.14,.46-.15,.15-.02,.28-.01,.38,.01,.12,.03,.25,.09,.4,.16l2.01,1,.02,3.3-3.33-1.66c-.16-.08-.28-.16-.38-.24-.09-.08-.17-.18-.23-.3-.03-.05-.06-.13-.09-.21-.03-.1-.05-.18-.06-.25l-.09-.71-2.31,4.62,.55-.25c.1-.05,.22-.08,.33-.11,.12-.03,.22-.04,.31-.04,.21,0,.3,0,.34,.02,.07,.02,.2,.08,.38,.17l8.09,4.04c.26,.13,.44,.27,.53,.43,.1,.16,.16,.34,.19,.51l.1,.68,2.35-4.71-.63,.37c-.19,.11-.39,.19-.57,.22-.12,.02-.24,.01-.36,0-.12-.02-.26-.07-.43-.16l-3.54-1.77-.03-3.3,4.66,2.33c.26,.13,.44,.23,.55,.3,.06,.04,.16,.13,.29,.32,.11,.16,.18,.34,.21,.53l.12,.64,2.21-4.43-.53,.2c-.21,.08-.4,.12-.56,.12Z"/><g><path class="cls-1" d="M182.34,128.96c-.08,.04-.14,.06-.22,.08-.11,.03-.22,.03-.34-.01-.16-.05-.33-.11-.51-.17l-8.27-2.93c-.19-.07-.36-.15-.52-.24-.15-.09-.27-.19-.34-.27-.05-.06-.09-.13-.13-.2-.04-.07-.06-.14-.08-.21l-.18-.69-1.64,4.63,.53-.33c.19-.12,.31-.16,.37-.18,.09-.02,.16-.03,.22-.01,.08,.01,.2,.05,.36,.11l8.71,3.08c.11,.04,.24,.1,.39,.18,.18,.1,.26,.16,.28,.19,.02,.01,.07,.08,.17,.29,.04,.1,.08,.2,.1,.28l.18,.67,1.71-4.82-.58,.44c-.06,.04-.13,.09-.21,.13Z"/><path class="cls-1" d="M170.81,128.22c.05-.02,.1-.04,.14-.05,.12-.03,.23-.04,.33-.02,.09,.01,.22,.05,.4,.12l8.71,3.08c.12,.04,.26,.11,.43,.2,.16,.09,.27,.16,.33,.22,.07,.06,.14,.18,.23,.37,.03,.07,.05,.13,.08,.2l1.15-3.24s-.09,.05-.14,.08h0c-.11,.06-.19,.09-.3,.1-.13,.04-.29,.04-.46-.02l-.1-.03c-.13-.04-.27-.09-.42-.14l-8.27-2.93c-.2-.07-.39-.16-.57-.27-.18-.11-.32-.22-.41-.34-.06-.08-.11-.15-.15-.24-.03-.05-.05-.1-.07-.15l-1.11,3.14c.07-.04,.14-.08,.2-.1Zm11.53,.74h0s0,0,0,0Z"/></g><g><path class="cls-1" d="M178.38,117.74l-1.23,1.66c-.43,.59-.83,.99-1.18,1.19-.33,.19-.7,.24-1.12,.14-.34-.08-.6-.27-.78-.59-.19-.32-.23-.68-.14-1.08,.16-.7,.72-1.22,1.7-1.56,1.08-.38,1.31-.34,1.34-.33,0,0,0,0,0,0l.22-.37s-.01,0-.02-.01c-.14-.08-.36-.24-.66-.47-.24-.19-.43-.34-.56-.45-.31-.26-.62-.55-.94-.87l-.2-.2-.14,.25c-.29,.49-.49,.87-.63,1.16-.45,.88-.75,1.62-.88,2.18-.26,1.13-.14,2.15,.37,3.03,.51,.88,1.27,1.44,2.27,1.67,.64,.15,1.24,.13,1.78-.04,.55-.17,1.04-.53,1.47-1.06l1.54-1.89c.43-.51,.85-.87,1.24-1.08,.45-.22,.9-.28,1.41-.16,.41,.09,.71,.31,.94,.67,.23,.36,.29,.74,.19,1.17-.14,.61-.54,1.08-1.21,1.43-.48,.26-1.09,.43-1.81,.51-.6,.08-.79,.07-.84,.06,0,0,0,0,0,0l-1-.54,.73,.88s.06,.06,.12,.08c.22,.12,.46,.26,.74,.43,.3,.18,.58,.36,.83,.54,.26,.18,.49,.35,.69,.5,.2,.15,.4,.32,.62,.51l.16,.14,.15-.15c.2-.22,.51-.78,.95-1.73,.32-.69,.55-1.35,.69-1.97,.28-1.23,.13-2.36-.46-3.35-.6-.99-1.46-1.62-2.57-1.88-1.49-.35-2.76,.19-3.76,1.57Z"/><path class="cls-1" d="M178.38,117.74h0s0,0,0,0Z"/></g><g><path class="cls-1" d="M186.68,102.98c-.08,.07-.14,.13-.2,.17-.06,.04-.15,.1-.27,.17l-6.83,3.93c-.17-.19-.33-.37-.48-.52-.17-.19-.37-.38-.58-.59-.31-.3-.65-.62-1.03-.94-1-.85-1.15-1.03-1.18-1.06-.19-.29-.34-.57-.46-.82l-.35-.78-.32,4.46,.41-.39c.37-.36,.46-.41,.48-.42,.01,0,.07-.02,.2-.02,.27,.02,.58,.14,.92,.36,.43,.27,.96,.74,1.57,1.37,.22,.23,.44,.49,.65,.77,.19,.25,.36,.51,.51,.77l-3.32-.24c-.19-.01-.36-.04-.51-.07-.13-.03-.24-.08-.31-.13-.09-.07-.15-.12-.17-.14-.07-.07-.13-.14-.17-.2l-.35-.47-.34,4.66,.41-.39c.07-.06,.14-.12,.2-.16,.08-.05,.15-.09,.22-.13,.05-.02,.1-.04,.16-.04,.09,0,.21,0,.37,.01l9.21,.67c.16,.01,.31,.03,.45,.06,.14,.03,.22,.07,.25,.09,.07,.05,.14,.11,.22,.19,.1,.11,.18,.21,.22,.29l.35,.85,.39-5.4-.44,.53s-.09,.09-.18,.18c-.11,.1-.17,.14-.2,.16-.14,.07-.27,.11-.41,.1-.16,0-.32,0-.46-.02l-3.98-.29,3.78-2.14c.12-.06,.29-.16,.49-.29,.26-.12,.49-.18,.7-.16,.08,0,.14,.03,.19,.08,.07,.07,.14,.16,.2,.28l.35,.68,.46-6.28-.47,.76c-.11,.18-.24,.35-.39,.48Z"/><path class="cls-1" d="M175.32,111.91c.08-.03,.15-.05,.23-.05,.09,0,.22,0,.39,.01l9.21,.67c.17,.01,.34,.03,.48,.07,.16,.03,.27,.08,.35,.14,.07,.05,.16,.12,.25,.21,.08,.09,.15,.17,.2,.25l.26-3.52s-.07,.07-.12,.11c-.11,.1-.19,.17-.26,.2-.19,.1-.36,.13-.53,.13s-.33,0-.47-.02l-3.98-.29c-.11,0-.21-.09-.23-.2-.03-.11,.03-.23,.13-.28l3.78-2.14c.12-.06,.28-.16,.48-.29,.34-.16,.6-.22,.85-.2,.14,.01,.26,.07,.36,.16,.06,.06,.12,.13,.18,.22l.31-4.32c-.1,.15-.22,.28-.34,.39h0c-.09,.08-.16,.15-.22,.19-.06,.04-.16,.1-.29,.18l-6.83,3.94c-.12,.06-.24,.04-.32-.05-.17-.19-.33-.36-.47-.51-.17-.18-.37-.38-.58-.58-.29-.29-.63-.6-1.01-.93-1.12-.95-1.19-1.07-1.22-1.12-.16-.25-.3-.49-.41-.71l-.2,2.77c.36-.34,.44-.38,.46-.39,.08-.03,.17-.05,.33-.04,.32,.02,.67,.16,1.05,.4,.45,.28,1,.76,1.61,1.41,.23,.24,.45,.51,.67,.79,.19,.25,.36,.52,.53,.79,.05,.08,.05,.19,0,.27-.05,.08-.14,.13-.24,.12l-3.31-.24c-.2-.01-.39-.04-.55-.08-.17-.04-.31-.1-.41-.18-.1-.07-.17-.13-.2-.16-.05-.05-.09-.1-.13-.14l-.24,3.29c.06-.05,.11-.09,.17-.12,.08-.05,.16-.09,.23-.13,.02,0,.03-.02,.05-.02Zm11.36-8.93h0s0,0,0,0Z"/></g><g><path class="cls-1" d="M185.75,91.33c-.2,.11-.45,.19-.75,.22l-4.77,.49-3.79-1.87c-.17-.08-.33-.17-.5-.27-.17-.1-.33-.22-.48-.34-.15-.13-.3-.27-.44-.42-.14-.16-.27-.34-.4-.55l-.5-.81,.49,4.71,.33-.71c.03-.07,.12-.19,.33-.38,.12-.1,.22-.16,.32-.19,.08-.02,.18-.03,.29-.01,.12,.01,.24,.05,.36,.1l3.04,1.4-2.79,2.22c-.11,.09-.19,.16-.27,.21-.16,.11-.29,.17-.4,.18-.04,0-.09,0-.13-.01-.18-.06-.31-.17-.41-.33l-.51-.86,.7,6.81,.32-.99c.09-.3,.24-.59,.43-.87,.03-.05,.12-.16,.33-.36,.05-.05,.4-.34,1.04-.89l3.38-2.8,4.56-.47c.2-.02,.44,.02,.67,.12,.17,.09,.32,.21,.46,.35l.44,.44-.54-5.29-.33,.65c-.12,.24-.28,.41-.48,.52Z"/><path class="cls-1" d="M185.75,91.33h0s0,0,0,0Z"/></g></g><path class="cls-1" d="M35.45,140.74l.57-4.85-.06-.03c-1.37,1.86-3.11,3.08-6.03,3.13-3.76,.06-5.81-2.85-5.87-6.99-.07-4.16,2.18-6.82,5.99-6.89,2.08-.04,4.07,.74,5.21,2.45l.05-.03-.51-4.67c-1.58-.43-3.04-.62-4.77-.6-6.16,.1-10.1,3.98-10,10.06,.09,5.54,3.84,9.61,9.68,9.52"/><path class="cls-1" d="M41.21,123.99l1.84-.43c2.27-.52,3.8,.43,4.22,2.36,.51,2.35-.56,3.55-2.84,4.04l-1.27,.27,5.61,6.12c.79,.85,1.41,1.69,1.98,2.64l5.21-2.14v-.05c-1.37-.15-2.76-.96-4.11-2.35l-3.32-3.46c2.07-1.19,3.07-3.21,2.47-6.01-.74-3.44-3.66-5.05-7.89-4.14l-7.51,1.62v.05c.8,.3,1.81,1.41,2.26,3.5l2.27,10.55c.47,2.17,0,3.62-.59,4.22v.05s6.38-1.37,6.38-1.37v-.05c-.69-.32-1.7-1.43-2.15-3.52l-2.56-11.9Z"/><path class="cls-1" d="M75.05,128.93c-.95-.26-2.69-1.31-4.21-2.92l-8.19-8.54c-1.17-1.22-1.13-2.46-.85-3.09l-.02-.05-6.54,2.93,.02,.05c.65,.18,1.58,1.01,1.74,2.69l1.03,11.75c.19,2.2-.2,4.18-.6,5.07l.02,.05,5.18-2.32-.02-.05c-.49-.17-1.19-1.07-1.31-3.06l-.04-.69,6.37-2.85,.49,.49c1.38,1.43,1.64,2.53,1.36,3.04l.02,.05,5.58-2.5-.02-.05Zm-14.07-.96l-.26-3.03c-.15-1.86-.3-3.78-.93-5.78l.1-.04c1.1,1.79,2.46,3.17,3.74,4.52l2.09,2.21-4.74,2.12Z"/><path class="cls-1" d="M76.22,128.29l9.49-5.47c1.76-1.01,2.15-1.21,3.25-1.62l-2.06-4.99h-.06c-.17,1.88-1.38,3.67-3.51,4.9l-3.59,2.07-.03-18.53-.03-.05-7.71,4.44c-1.78,1.03-2.62,1.48-3.57,1.87l1.69,4.4h.06c.15-1.65,1.28-2.87,3.09-3.91l2.93-1.69,.03,18.53,.03,.05Z"/><path class="cls-1" d="M95.17,94.39l-.03-.04-4.53,3.01,.03,.04c.63,.46,.97,1.6,1.03,2.63l.28,4.13c.05,.55,.04,1.14,.25,1.94l-.09,.06c-.64-.48-1.15-.76-1.67-1l-3.73-1.84c-.92-.46-1.84-1.21-2.05-1.95l-.03-.04-4.8,3.19,.03,.05c.85,.05,2.18,.54,3.35,1.08l9.07,4.26,1.74,2.61c1.27,1.91,1.36,3.61,.96,4.43l.03,.05,5.83-3.88-.03-.05c-1,.11-2.42-.66-3.71-2.6l-1.81-2.73-.42-9.86c-.04-1.33,0-2.69,.27-3.49Z"/><path class="cls-1" d="M102.08,97.78c-1.09,.75-1.39,2.23-.64,3.32,.75,1.09,2.21,1.37,3.33,.6,1.09-.75,1.34-2.2,.59-3.29-.76-1.12-2.19-1.38-3.29-.63Z"/><path class="cls-1" d="M123.22,98.54c1.91-1.23,3.4-2.82,4.29-3.98l-2.07-4.43h-.06c-.19,2.31-1.03,4.27-3.48,5.84-3.16,2.03-6.44,.63-8.68-2.85-2.25-3.51-1.73-6.96,1.48-9.02,1.75-1.13,3.85-1.51,5.72-.65l.03-.05-2.89-3.7c-1.57,.46-2.91,1.07-4.37,2-5.19,3.33-6.5,8.7-3.21,13.83,2.99,4.67,8.33,6.16,13.24,3.01Z"/><path class="cls-1" d="M138.08,90.33c5.43-2.62,7.28-8.08,4.65-13.51-2.53-5.24-7.72-7.09-12.94-4.57-5.63,2.72-7.29,8-4.64,13.48,2.41,5,7.46,7.24,12.92,4.61Zm-7.3-15.44c3.31-1.6,6.45-.2,8.44,3.92,1.88,3.9,.88,7.42-2.12,8.87-3.48,1.68-6.5,.04-8.43-3.95-1.84-3.8-1.11-7.28,2.11-8.83Z"/><path class="cls-1" d="M153.19,66.26c1.98-.64,4.11-.49,5.7,.82l.04-.04-1.86-4.32c-1.63,.05-3.09,.3-4.74,.83-5.87,1.91-8.49,6.78-6.61,12.57,1.72,5.27,6.5,8.07,12.06,6.26,2.16-.7,4-1.87,5.16-2.76l-.88-4.81h-.06c-.77,2.18-2.07,3.85-4.85,4.76-3.58,1.17-6.39-1.02-7.68-4.96-1.29-3.96,.08-7.17,3.71-8.35Z"/><path class="cls-1" d="M177.58,58.65v-.05s-5.56,.9-5.56,.9c.11,.5-.02,1.21-.53,2.28l-3.47,7.11,6.69,7.13c.76,.81,1.46,1.73,1.72,2.32l5.22-1.78v-.05c-1.4-.32-2.26-.89-3.39-2.08l-6.28-6.59,2.93-5.71c.66-1.31,1.63-2.76,2.67-3.47Z"/><path class="cls-1" d="M166.99,64.43c-.36-2.19,.12-3.61,.66-4.16v-.05s-6.41,1.04-6.41,1.04v.05c.78,.34,1.73,1.5,2.08,3.61l1.73,10.65c.36,2.19-.2,3.62-.8,4.18v.05s6.41-1.04,6.41-1.04v-.05c-.7-.35-1.6-1.52-1.95-3.71l-1.72-10.57Z"/><g><path class="cls-1" d="M66.67,77.28l-4.16,9.83,4.57-6.49,3.6,8.78c.05,.11,.08,.21,.1,.31,.02,.1,.03,.2,.03,.27,0,.05-.02,.11-.03,.17-.01,.06-.03,.12-.05,.16-.05,.11-.16,.25-.32,.42-.18,.18-.37,.35-.57,.51-.13,.1-.25,.19-.37,.28-.11,.09-.21,.16-.33,.25l-1.45,1.25,10.2-4.2-2.05,.22c-.13,.01-.27,.02-.42,.04l-.43,.05c-.29,.03-.56,.05-.81,.05-.29,0-.45-.03-.51-.06-.06-.03-.11-.06-.16-.09-.05-.03-.09-.06-.13-.09-.09-.07-.15-.13-.21-.21-.06-.08-.11-.17-.16-.28l-4.85-11.77-1.46,.6Z"/><path class="cls-1" d="M84.06,80.87c-.05,.12-.12,.28-.19,.46-.15,.36-.39,.81-.7,1.34-.31,.53-.65,1.08-.99,1.64-.04,.06-.09,.13-.13,.2-.04,.07-.08,.14-.11,.2-.12,.19-.24,.39-.35,.57-.11,.18-.21,.36-.32,.53l-.55,.75,2.59,.94s1-2.63,1.39-3.52c.43-.99,.93-2,1.44-2.95,.5-.95,.91-1.89,1.22-2.8,.22-.74,.37-1.44,.42-2.08,.06-.67-.02-1.26-.23-1.77l-.14-.28c-.78-1.44-1.91-2.33-3.36-2.65-1.43-.32-2.94-.17-4.51,.43l-.06,.03,.08,.2-.17-.17-.07,.03c-1.77,.73-3.02,1.79-3.74,3.16-.73,1.4-.85,2.72-.37,3.93l.06,.15c.03,.06,.06,.12,.1,.17,.03,.06,.05,.11,.08,.16,.03,.05,.07,.11,.1,.16,.58,.9,1.44,1.51,2.56,1.8,1.1,.29,2.18,.33,3.25,.13l.52-.13c.18-.04,.35-.1,.52-.17l.54-.22c.1-.04,.22-.09,.34-.15,.12-.06,.27-.14,.44-.23l.51-.23-.02,.06c-.05,.1-.1,.21-.15,.32Zm-1.09-1.35l-.17,.11-.16,.07c-.98,.41-2.01,.5-3.05,.29-1.03-.21-1.75-.71-2.19-1.52l-.06-.17-.05-.04-.03-.07c-.37-.9-.29-1.82,.24-2.82,.54-1,1.37-1.74,2.47-2.19,1.11-.44,2.2-.5,3.24-.17,1.04,.33,1.72,.92,2.11,1.85l.02,.05c.31,.86,.24,1.7-.21,2.57-.45,.87-1.18,1.56-2.16,2.04Z"/><path class="cls-1" d="M100.38,63.39l-12.34,5.08,2.29,4.86-.03-2.26v-.07s-.02-.06-.02-.09c0-.21,0-.41,0-.6,0-.17,.04-.31,.08-.39,.03-.03,.06-.07,.09-.11,.01-.02,.03-.04,.04-.05,.1-.09,.21-.16,.31-.21,.13-.07,.28-.14,.43-.22l6.86-2.83-3.12,14.45-.05,.24,2.55,.29,2.85-17.7,.06-.38Z"/><path class="cls-1" d="M111.26,58.91l-8.05,3.32,2.8,6.87,.78-.75c.16-.17,.36-.34,.59-.5,.24-.17,.49-.33,.74-.47,.11-.06,.21-.11,.31-.16,.1-.05,.2-.09,.3-.13l.14-.06s.09-.01,.13-.03l.07-.03c1.02-.32,1.99-.34,2.88-.05,.88,.29,1.53,.84,1.91,1.61l.07,.16c.35,.84,.3,1.71-.14,2.65-.44,.93-1.17,1.64-2.19,2.08l-.13,.05c-.38,.16-.77,.27-1.16,.33-.38,.06-.77,.04-1.18-.06l-4.07-1.09,.31,2.81,3.34-.04c.54,.05,1.11,.03,1.71-.07,.59-.1,1.22-.29,1.88-.56,1.65-.69,2.85-1.76,3.56-3.16,.72-1.42,.76-2.89,.11-4.36-.51-1.16-1.48-1.96-2.87-2.37-1.37-.4-2.8-.31-4.27,.28l-.06,.03c-.15,.06-.29,.13-.42,.19-.13,.07-.26,.14-.38,.22-.12,.08-.25,.17-.38,.26-.13,.09-.27,.19-.42,.3l-.42,.3-1.08-3.14,4.14-1.7c.34-.14,.67-.26,.97-.36,.36-.12,.55-.13,.66-.12,.18,0,3.04,1.22,3.04,1.22l-3.21-3.47Z"/></g><g><path class="cls-1" d="M107.32,154.28c.6,1.45,1.71,2.45,3.3,2.98,1.58,.52,3.22,.44,4.89-.23,.03-.01,.06-.03,.1-.04,1.72-.71,3.05-1.81,3.95-3.26,.93-1.5,1.06-3.06,.38-4.65-.69-1.56-1.86-2.56-3.48-2.99-1.6-.42-3.25-.29-4.91,.4l-.22,.09-.27,.12c-1.52,.73-2.67,1.81-3.42,3.21-.78,1.48-.88,2.95-.3,4.36Zm4.25-6.49l.29-.11c1.3-.55,2.63-.58,3.89-.09,1.26,.49,2.13,1.31,2.59,2.42,.47,1.15,.42,2.24-.17,3.34-.59,1.1-1.5,1.9-2.71,2.4l-.23,.08-.07,.03c-1.31,.46-2.58,.45-3.75-.05-1.17-.5-1.99-1.26-2.42-2.25-.44-1.04-.43-2.14,.02-3.25,.44-1.08,1.3-1.93,2.57-2.52Z"/><g><path class="cls-1" d="M122.33,154.04l8.2-3.38-1.83,.17c-.07,0-.14,.02-.22,.02-.09,0-.18,.02-.27,.04l-.19,.03c-.18,.04-.36,.06-.54,.08-.19,.02-.26,0-.3-.02-.1-.04-.17-.1-.21-.16-.06-.09-.11-.21-.17-.35l-1.29-3.12,2.25-.93c.05-.02,.1-.04,.18-.05,.05-.01,.1-.02,.15-.03,.05,0,.11,0,.18,0,.09,0,.17,.03,.25,.1,.1,.09,.21,.19,.32,.29,.01,.02,.03,.04,.04,.05,.03,.05,.07,.09,.11,.14,.05,.05,.09,.09,.1,.08l.99,.92-1.97-4.78-.18,1.5s-.01,.05-.02,.08v.07s0,.02,0,.02c-.01,.03-.03,.07-.06,.14-.02,.03-.04,.06-.05,.08-.05,.07-.11,.13-.19,.17-.1,.06-.21,.11-.33,.16l-2.22,.91-1.34-3.2s-.02-.05,0-.12c0-.02,.04-.06,.14-.11,.11-.06,.23-.11,.35-.16l.08-.03s.06-.03,.09-.05l4.94-2.02s.06-.02,.12-.04c.12-.04,.24-.07,.35-.09,.1-.02,.21-.03,.3-.02,.11,.01,.2,.04,.27,.09,.09,.06,.18,.14,.29,.25,.02,.02,.05,.04,.07,.07,.04,.05,.09,.09,.11,.1l1.21,1.21-1.38-3.36-12.29,5.06,1.93-.21c.09-.02,.19-.03,.31-.05l.35-.06c.12,0,.24-.02,.36-.03,.11-.01,.21-.02,.31-.02,.05,0,.09,0,.11,0,.04,0,.07,.01,.08,.02,.06,.02,.1,.05,.12,.08,.04,.05,.07,.12,.1,.19l3.05,7.4s.03,.07,.06,.1l.04,.1s.02,.06,.03,.09c.01,.04,.02,.08,.03,.12,0,.03,0,.05,0,.07l-.02,.11s-.03,.04-.05,.08c-.02,.03-.05,.06-.09,.09-.06,.06-.14,.13-.22,.2-.09,.07-.18,.15-.29,.24l-.27,.19"/><path class="cls-1" d="M125.63,152.12l1.47-.61c-.06-.01-.11-.03-.16-.05-.18-.08-.34-.2-.43-.37-.06-.1-.13-.25-.2-.41l-1.29-3.12c-.11-.27,.02-.57,.28-.68l2.25-.93c.1-.04,.19-.07,.31-.08,.02,0,.1-.02,.19-.03,.07,0,.14,0,.22,0,.15,0,.29,.04,.42,.11l-.35-.84c-.03,.07-.07,.15-.08,.17-.13,.2-.26,.31-.41,.4-.12,.07-.24,.12-.38,.18l-2.22,.91c-.26,.11-.57-.02-.68-.28l-1.34-3.2c-.06-.15-.06-.28-.04-.38,0-.07,.03-.14,.06-.2,.07-.13,.19-.23,.36-.32,.12-.06,.25-.12,.38-.17,.04-.03,.12-.06,.17-.08l4.94-2.02c.05-.02,.11-.04,.21-.06,.08-.03,.22-.07,.35-.09,.16-.03,.31-.04,.45-.03,.2,.02,.36,.08,.49,.16l-.25-.6-8.54,3.52s.15,.03,.18,.05c.15,.06,.27,.15,.35,.26,.06,.08,.11,.18,.16,.29l3.05,7.4s.04,.05,.06,.1c.06,.14,.08,.2,.09,.25,.02,.05,.03,.11,.04,.16,.01,.07,.01,.22,0,.29v.07s-.03,.09-.05,.14c0,.02-.04,.07-.06,.11Zm-.39-.5h0s0,0,0,0Zm-.44,0l.42-.11-.47,.1h.06Z"/></g><g><path class="cls-1" d="M114.07,152.76c.57-.24,.84-.89,.61-1.46-.24-.57-.89-.85-1.46-.61-.57,.24-.84,.89-.61,1.46,.24,.57,.89,.84,1.46,.61Z"/><path class="cls-1" d="M114.27,153.24c-.84,.34-1.8-.06-2.14-.89-.34-.84,.06-1.8,.89-2.14,.84-.34,1.8,.06,2.14,.89,.34,.84-.06,1.8-.89,2.14Zm-.85-2.07c-.31,.13-.45,.48-.33,.78,.13,.31,.48,.45,.78,.33,.31-.13,.45-.48,.33-.78-.13-.31-.48-.45-.78-.33Z"/></g></g><g><g><path class="cls-1" d="M15.71,118.49c.09-.05,.17-.09,.24-.1,.1-.02,.19-.03,.29-.05l7.93-1.07c.49-.07,.92-.18,1.3-.34,.72-.3,1.26-.76,1.6-1.37,.45-.81,.57-1.96,.37-3.43-.22-1.61-.69-2.76-1.4-3.41-.72-.66-1.71-.91-2.94-.75l-7.09,1.12c-.29,.04-.62,.03-1-.03-.27-.04-.48-.11-.63-.2-.15-.09-.29-.21-.43-.38l-.49-.59,.65,4.8,.29-1.05c.04-.13,.11-.3,.22-.49,.11-.19,.21-.35,.31-.45,.13-.15,.33-.28,.56-.35,.26-.09,.68-.17,1.25-.25l6.21-1.04c.96-.13,1.68,0,2.14,.39,.42,.36,.69,1.01,.82,1.94,.2,1.52-.39,2.32-1.88,2.52l-7.56,1.02c-.24,.03-.46,.05-.67,.04-.24,0-.38-.04-.44-.06-.22-.1-.42-.24-.58-.43l-.48-.54,.73,5.45,.32-.55c.09-.15,.21-.26,.36-.36Z"/><path class="cls-1" d="M15.74,118.17c.05-.02,.1-.04,.15-.05,.11-.02,.21-.04,.31-.05l7.93-1.07c1.31-.18,2.23-.71,2.71-1.58,.42-.76,.53-1.86,.34-3.27-.21-1.55-.65-2.64-1.32-3.25-.66-.61-1.58-.84-2.73-.68l-7.09,1.12c-.32,.04-.68,.03-1.08-.04-.3-.05-.54-.13-.72-.23-.15-.09-.28-.2-.42-.34l.36,2.67c.05-.12,.11-.25,.19-.39,.12-.21,.23-.38,.34-.5,.17-.19,.4-.34,.67-.42,.28-.09,.7-.18,1.29-.26l6.2-1.03c1.05-.14,1.83,0,2.35,.45,.47,.4,.77,1.11,.91,2.1,.22,1.67-.46,2.59-2.11,2.81l-7.56,1.02c-.25,.03-.48,.05-.71,.04-.28,0-.44-.04-.53-.08-.23-.1-.43-.24-.6-.41l.52,3.88c.1-.14,.23-.26,.39-.36,0,0,0,0,0,0,.06-.04,.12-.06,.17-.09Z"/></g><g><path class="cls-1" d="M14,102.93c.11-.12,.21-.21,.29-.26,.19-.13,.3-.17,.36-.18,.06-.01,.23-.03,.63,0l8.59,.38c.32,.01,.63,.06,.91,.13,.26,.07,.49,.17,.68,.31,.19,.15,.37,.36,.54,.63l.38,.62,.18-4.21-.43,.57c-.17,.23-.39,.43-.63,.6-.13,.08-.32,.14-.56,.17-.26,.03-.71,.04-1.34,.01l-7.24-.32,11.51-6.66-11.28-.49c-.51-.02-.92-.07-1.24-.13-.29-.06-.53-.18-.7-.34-.11-.13-.2-.23-.25-.3-.08-.12-.16-.25-.21-.38l-.38-.87-.23,5.23,.48-1.15c.05-.13,.17-.29,.34-.47,.15-.16,.22-.21,.24-.22,.13-.07,.24-.12,.34-.14,.11-.02,.27-.02,.48-.01l4.24,.19-6.09,3.38-.11,.06-.22,5.13,.46-.91c.06-.11,.14-.22,.25-.34Z"/><path class="cls-1" d="M14.44,102.27c.05-.02,.1-.04,.15-.05,.14-.02,.37-.03,.69-.01l8.59,.38c.34,.01,.67,.06,.96,.13,.3,.07,.56,.19,.77,.36,.19,.14,.37,.35,.54,.6l.11-2.53c-.18,.22-.39,.41-.62,.56-.16,.11-.38,.18-.67,.22-.27,.04-.74,.04-1.39,.01l-7.24-.32c-.12,0-.21-.09-.24-.2s.02-.23,.12-.29l10.74-6.22-10.39-.45c-.52-.02-.95-.07-1.28-.14-.33-.07-.61-.21-.82-.41-.14-.15-.23-.26-.28-.33-.07-.1-.12-.19-.17-.29l-.12,2.7c.07-.12,.17-.25,.3-.39,.16-.18,.25-.24,.3-.27,.17-.1,.31-.15,.43-.17,.13-.02,.3-.03,.53-.02l4.24,.19c.12,0,.21,.09,.24,.2,.03,.11-.03,.23-.13,.29l-6.07,3.37-.17,3.81c.06-.09,.13-.17,.21-.26h0c.12-.14,.24-.24,.33-.3,.11-.08,.21-.14,.3-.17Z"/></g><g><path class="cls-1" d="M15.43,87.54c.09-.04,.17-.06,.24-.05,.09,0,.23,.02,.41,.06l9.81,1.87c.13,.03,.28,.07,.45,.13,.22,.08,.31,.13,.34,.15,.02,.02,.09,.08,.23,.28,.06,.1,.11,.2,.15,.29l.29,.64,1.02-5.35-.52,.55c-.05,.06-.12,.12-.21,.18-.07,.06-.15,.1-.23,.12-.12,.05-.23,.07-.37,.04-.18-.03-.37-.06-.57-.1l-9.32-1.78c-.2-.04-.4-.1-.6-.17-.18-.07-.32-.16-.41-.24-.06-.06-.12-.13-.17-.2-.05-.06-.09-.13-.12-.21l-.29-.66-.98,5.12,.48-.41c.19-.16,.31-.23,.37-.25Z"/><path class="cls-1" d="M15.33,87.3c.13-.05,.24-.08,.35-.07,.1,0,.25,.02,.44,.06l9.81,1.87c.14,.03,.31,.07,.5,.14,.2,.07,.33,.14,.4,.19,.07,.05,.17,.17,.29,.35,.05,.08,.09,.15,.12,.22l.7-3.69s-.09,.08-.15,.12c-.1,.08-.2,.13-.31,.16-.14,.07-.31,.08-.49,.05-.18-.03-.37-.06-.58-.1l-9.32-1.78c-.21-.04-.43-.1-.64-.19-.21-.09-.38-.19-.49-.3-.07-.08-.14-.15-.2-.22-.04-.05-.08-.11-.11-.17l-.68,3.58c.13-.11,.25-.18,.36-.23Z"/></g><path class="cls-1" d="M22.82,80.45c1.48,.52,2.79,.67,3.91,.42,.6-.13,1.31-.46,2.16-.98,0,.18,.04,.35,.09,.49,.08,.24,.18,.45,.28,.64,.06,.11,.17,.26,.33,.29,.06,.01,.12,0,.17-.02,.03-.01,.06-.03,.08-.05,.09-.07,.21-.22,.13-.51-.08-.31-.06-.66,.08-1.03,.22-.63,.77-1.24,1.62-1.79,.82-.5,1.63-1.01,2.47-1.53,.96-.72,1.62-1.59,1.98-2.6,.29-.83,.37-1.73,.24-2.68-.14-1.02-.44-1.59-.89-1.75l-.27-.1-.02,.29c0,.11-.01,.22-.02,.36,.08,.61,.04,1.15-.12,1.59-.13,.35-.37,.76-.73,1.23-.37,.47-.72,.85-1.06,1.14l-1.91,1.67c-.13-1.36-.48-2.51-1.06-3.41-.77-1.21-1.98-2.11-3.6-2.69-1.7-.6-3.34-.67-4.88-.2-1.75,.52-2.92,1.62-3.51,3.27-.57,1.61-.36,3.23,.63,4.82,.92,1.48,2.23,2.53,3.91,3.13Zm-2.87-8.51c.17-.07,.37-.12,.58-.15,.6-.07,1.45,.05,2.52,.35,.44,.12,1.36,.43,2.71,.91h0c1.07,.38,1.87,.69,2.37,.93,.87,.41,1.48,.84,1.82,1.28,.42,.54,.5,1.14,.26,1.84-.2,.57-.55,.9-1.09,1.02-.66,.14-1.8-.07-3.38-.63l-2.81-1c-1.84-.65-3.03-1.29-3.54-1.91-.43-.51-.52-1.08-.29-1.73,.16-.44,.44-.74,.85-.91Z"/><g><path class="cls-1" d="M23.66,62.49c.1,0,.19,.03,.25,.07,.09,.04,.17,.09,.26,.14l6.91,4.04c1.21,.71,2.32,.86,3.3,.45l.04-.02c.85-.36,1.65-1.19,2.4-2.47,.82-1.4,1.15-2.6,1-3.55-.16-.97-.79-1.78-1.86-2.4l-6.28-3.48c-.26-.15-.51-.37-.77-.65-.18-.2-.31-.37-.37-.54s-.1-.35-.1-.57l-.02-.78-2.45,4.2,.88-.66c.21-.16,.72-.37,.99-.42,.21-.04,.43-.02,.66,.06,.25,.09,.63,.28,1.14,.58l5.53,3.01c.84,.49,1.33,1.04,1.44,1.62,.11,.54-.08,1.22-.55,2.03-.38,.65-.82,1.05-1.32,1.19-.49,.13-1.07,.01-1.71-.36l-6.58-3.85c-.2-.12-.39-.24-.55-.38-.19-.15-.27-.26-.31-.32-.12-.21-.18-.44-.2-.69l-.05-.71-2.77,4.74,.59-.23c.16-.06,.32-.08,.51-.06Z"/><path class="cls-1" d="M23.69,62.23c.13,.01,.25,.05,.35,.1,.09,.04,.18,.09,.26,.14l6.92,4.04c1.13,.66,2.17,.81,3.07,.44,.83-.35,1.59-1.15,2.32-2.38,.79-1.35,1.11-2.48,.96-3.38-.15-.89-.73-1.64-1.73-2.22l-6.27-3.48c-.28-.17-.56-.4-.83-.7-.21-.22-.34-.42-.42-.62-.06-.16-.1-.33-.11-.53l-1.36,2.33c.27-.16,.7-.33,.97-.37,.25-.04,.52-.02,.78,.08,.27,.1,.66,.29,1.18,.6l5.52,3c.91,.53,1.44,1.14,1.57,1.8,.12,.6-.07,1.35-.58,2.21-.42,.72-.9,1.14-1.48,1.31-.57,.15-1.21,.02-1.91-.39l-6.58-3.85c-.21-.12-.41-.26-.59-.4-.17-.14-.3-.27-.37-.39-.12-.22-.19-.45-.22-.69l-1.97,3.38c.17-.05,.34-.06,.53-.04Z"/></g><g><path class="cls-1" d="M32.13,48.73c.09-.01,.16-.01,.25,0,.17,.01,.35,.11,.55,.27l6.95,5.98c.28,.24,.51,.47,.69,.68,.16,.2,.26,.38,.29,.55,.06,.31,.05,.62-.05,.93l-.31,1.01,5.02-5.84c.07-.08,.18-.2,.33-.36,.14-.15,.26-.24,.37-.29,.24-.09,.46-.15,.68-.15h.37s-1.1-2.11-1.1-2.11c-.21-.42-.39-.79-.54-1.13-.09-.19-.26-.57-.5-1.13l-.63-1.47,.2,1.59c.05,.35,.09,.7,.12,1.04,.04,.83,0,1.61-.12,2.31-.18,.96-.52,1.73-1.01,2.31-.35,.41-.64,.35-.83,.27-.06-.03-.29-.16-.99-.76l-2.98-2.56s.01-.01,.02-.02c.39-.45,.8-.89,1.23-1.32,.51-.5,.81-.66,.98-.71,.39-.12,.79-.16,1.19-.12l.7,.07-3.32-2.86,.09,.59c.04,.28,.06,.52,.05,.72,0,.2-.05,.44-.13,.74-.05,.21-.15,.44-.31,.7-.17,.27-.45,.64-.83,1.08-.13,.15-.24,.28-.33,.38-.03,.03-.06,.07-.09,.1l-2.86-2.46c-.17-.15-.27-.32-.29-.52-.02-.19,.06-.39,.24-.6,.42-.49,1.02-.9,1.77-1.21h.03c.55-.23,1.14-.39,1.76-.48l1.84-.18-.99-.33c-.35-.12-.65-.22-.9-.31-.25-.09-.53-.21-.83-.35-.31-.14-.57-.26-.79-.38-.22-.11-.45-.25-.72-.41l-.35-.2v.4c.02,.35-.04,.69-.16,1.02-.08,.2-.16,.37-.24,.5-.09,.14-.22,.31-.37,.48l-4.35,5.06,.93-.43c.07-.04,.18-.07,.27-.08Z"/><path class="cls-1" d="M31.9,48.52c.06-.02,.13-.03,.18-.04,0,0,0,0,0,0,.12-.02,.23-.02,.34,0,.2,.02,.43,.13,.67,.33l6.95,5.98c.29,.25,.53,.49,.72,.71,.19,.23,.31,.46,.35,.67,.06,.3,.05,.59-.01,.89l4.22-4.9c.07-.08,.19-.21,.34-.37,.16-.17,.31-.29,.46-.35,.3-.11,.52-.17,.73-.17l-.9-1.73c-.21-.43-.39-.8-.55-1.14-.08-.16-.21-.46-.39-.88,.03,.26,.06,.52,.09,.77,.05,.87,0,1.66-.12,2.38-.18,1-.54,1.82-1.07,2.43-.34,.4-.72,.51-1.13,.34-.22-.1-.7-.49-1.06-.8l-2.98-2.56c-.05-.05-.09-.11-.09-.18,0-.07,.02-.14,.07-.19,.38-.44,.8-.89,1.25-1.34,.43-.42,.79-.68,1.08-.78,.39-.12,.79-.16,1.18-.14l-2.17-1.87c.03,.26,.05,.48,.04,.67,0,.22-.05,.48-.13,.79-.05,.23-.17,.49-.34,.77-.17,.28-.46,.66-.85,1.12-.13,.16-.25,.29-.34,.39l-.05,.05c-.1,.1-.29,.15-.4,.06l-2.87-2.46c-.22-.19-.35-.42-.38-.69-.03-.26,.07-.53,.3-.8,.45-.52,1.08-.95,1.87-1.28,.59-.24,1.2-.41,1.84-.5l.64-.06c-.28-.09-.52-.18-.73-.26-.25-.1-.54-.21-.85-.36-.32-.14-.58-.27-.8-.39-.2-.11-.42-.23-.67-.38,0,.36-.06,.71-.19,1.05-.09,.22-.18,.41-.27,.55-.1,.15-.23,.32-.39,.51l-3.58,4.16Z"/></g><g><path class="cls-1" d="M42.77,37.3c.1,0,.22,.03,.34,.07,.12,.04,.22,.1,.32,.18,.12,.1,.24,.23,.37,.4l6.02,7.43c.11,.14,.21,.27,.29,.41,.09,.15,.12,.24,.13,.28,.01,.05,.02,.15,0,.37,0,.16-.04,.3-.1,.43l-.44,.9,5.27-4.27c.23-.19,.4-.31,.51-.39,.09-.06,.19-.1,.31-.12,.27-.06,.51-.03,.73,.09l.54,.29-.22-.57c-.27-.69-.51-1.4-.72-2.13-.17-.53-.35-1.23-.55-2.08-.03-.11-.06-.25-.09-.4,0-.21-.06-.25-.14-.3l-.43-.25,.09,.48s.02,.08,.02,.12c0,.11-.02,.39-.11,1.03-.13,.93-.3,1.74-.53,2.41-.32,.93-.71,1.58-1.16,1.94-.11,.09-.2,.13-.28,.12-.07,0-.16-.07-.25-.19l-6.21-7.67-.22-.28c-.13-.15-.21-.28-.27-.39-.05-.1-.08-.2-.08-.32,0-.08,0-.23,.09-.48l.25-.73-4.58,3.71,.78-.1c.1-.01,.2-.02,.3-.01Z"/><path class="cls-1" d="M42.56,37.04c.07,0,.15,0,.22,0,0,0,0,0,0,0,.12,0,.25,.03,.41,.08,.15,.05,.29,.12,.42,.23,.13,.11,.26,.25,.4,.43l6.02,7.43c.12,.14,.22,.29,.31,.44,.09,.14,.14,.26,.17,.36,.01,.06,.03,.16,.01,.44,0,.14-.03,.27-.07,.39l4.37-3.54c.23-.19,.42-.33,.53-.4,.12-.08,.25-.13,.4-.16,.28-.06,.56-.04,.81,.08-.26-.67-.49-1.36-.7-2.05-.17-.53-.35-1.24-.55-2.1-.01-.04-.02-.09-.03-.14-.02,.19-.05,.46-.09,.79-.13,.95-.31,1.77-.54,2.46-.33,.97-.75,1.67-1.24,2.06-.16,.13-.31,.19-.46,.18-.15,0-.3-.1-.45-.28l-6.43-7.94c-.13-.16-.23-.3-.29-.43-.07-.14-.1-.27-.11-.43,0-.12,.01-.27,.06-.46l-3.17,2.56Z"/></g><g><path class="cls-1" d="M52.9,29.87c.07,0,.22,.05,.51,.18,.08,.03,.75,.36,1.33,.63l4.27,2.1,2.49,4.29c.11,.2,.18,.45,.18,.72-.02,.21-.06,.41-.14,.61l-.23,.59,4.88-2.83-.73-.04c-.29-.02-.54-.1-.73-.24-.2-.15-.39-.37-.55-.65l-2.6-4.49,.16-4.57c0-.2,.02-.41,.04-.61,.02-.21,.06-.42,.12-.63,.05-.21,.13-.42,.22-.63,.09-.2,.21-.41,.36-.64l.54-.8-4.33,2.51,.79,.02c.08,0,.24,.03,.52,.16,.16,.07,.27,.15,.34,.24,.06,.07,.11,.16,.15,.28,.04,.12,.06,.26,.06,.4l-.03,3.64-3.45-1.77c-.14-.06-.25-.12-.33-.18-.18-.11-.3-.22-.36-.32-.03-.04-.04-.09-.05-.14-.02-.2,.03-.39,.15-.56l.59-.83-6.28,3.64,1.04-.11c.34-.04,.7-.02,1.06,.04Z"/><path class="cls-1" d="M52.94,29.62c.13,.02,.31,.08,.57,.19,.07,.03,.53,.25,1.34,.64l4.27,2.1s.08,.06,.11,.1l2.49,4.29c.13,.23,.21,.53,.22,.85-.02,.22-.06,.42-.12,.61l3.51-2.03c-.29-.03-.54-.13-.75-.28-.24-.17-.44-.42-.62-.73l-2.6-4.49s-.04-.09-.04-.14l.16-4.57c0-.21,.02-.42,.05-.64,.03-.22,.07-.44,.13-.66,.06-.22,.14-.44,.24-.67,.08-.17,.18-.35,.29-.54l-2.56,1.49c.14,.02,.31,.08,.5,.17,.2,.09,.34,.19,.43,.31,.08,.09,.14,.21,.19,.36,.05,.14,.07,.31,.07,.48l-.03,3.64c0,.09-.05,.17-.13,.22-.08,.05-.17,.05-.25,0l-3.45-1.77c-.15-.07-.26-.13-.36-.19-.21-.13-.36-.26-.44-.41-.04-.07-.07-.15-.08-.24-.02-.22,.02-.42,.11-.6l-4.21,2.44c.31-.02,.63,0,.95,.06Z"/></g><g><path class="cls-1" d="M83.13,29.91c.3-.08,.59-.17,.87-.28,.82-.34,1.49-.84,2-1.49,.67-.86,1.02-1.89,1.04-3.05v-.76s-.41,.63-.41,.63c-.64,.97-1.46,1.59-2.45,1.84-1.25,.32-2.4,.03-3.51-.89-1.04-.86-1.75-2.02-2.11-3.44-.27-1.05-.32-1.94-.18-2.66,.18-.87,.64-1.39,1.44-1.59,.55-.14,1.22,.14,1.98,.83,.25,.24,.59,.62,1.01,1.13l.29,.36,.1-.45c.05-.23,.11-.48,.17-.74,.06-.26,.13-.51,.2-.76,.15-.54,.3-1.06,.47-1.54l.08-.23-.24-.06c-1.09-.26-2.22-.24-3.34,.04-.9,.23-1.66,.6-2.25,1.11-.89,.76-1.52,1.83-1.87,3.16-.35,1.33-.36,2.68-.03,4.01,.4,1.58,1.25,2.87,2.53,3.84,1.35,1.02,2.76,1.35,4.21,.99Z"/><path class="cls-1" d="M83.07,29.66c1.18-.3,2.09-.86,2.72-1.68,.61-.78,.94-1.71,.98-2.77-.67,.96-1.52,1.58-2.52,1.84-1.34,.34-2.56,.03-3.74-.94-1.09-.89-1.83-2.1-2.2-3.58-.28-1.09-.33-2.02-.18-2.78,.2-.97,.74-1.57,1.63-1.79,.64-.16,1.38,.14,2.21,.89,.25,.24,.58,.61,.99,1.1,.05-.21,.1-.43,.15-.67,.07-.26,.13-.52,.2-.77,.14-.52,.29-1.03,.46-1.51-1.04-.24-2.11-.22-3.18,.05-.87,.22-1.59,.58-2.14,1.05-.85,.73-1.45,1.75-1.79,3.03-.34,1.29-.35,2.59-.03,3.88,.39,1.52,1.2,2.76,2.43,3.7,1.28,.97,2.62,1.28,3.99,.94h0Z"/></g><path class="cls-1" d="M95.42,27.36c-.1-.04-.19-.11-.27-.19-.12-.1-.2-.19-.25-.28-.05-.08-.08-.19-.1-.31-.02-.15-.04-.35-.05-.58l-.26-4.24,.32-.02,2.11,4.1c.12,.22,.2,.41,.24,.56,.04,.13,.05,.24,.04,.33-.02,.19-.12,.38-.29,.57l-.37,.4,6.17-.39-.73-.37c-.15-.07-.28-.14-.39-.21-.11-.06-.22-.13-.31-.2-.18-.14-.33-.29-.46-.44-.14-.15-.27-.34-.39-.55l-2.56-4.42c.49-.18,.86-.36,1.11-.54,.92-.64,1.35-1.52,1.28-2.63-.07-1.14-.61-2.02-1.59-2.61-.96-.57-2.22-.82-3.73-.72-1.02,.06-1.99,.16-2.88,.28-.85,.12-1.42,.24-1.73,.37-.02,0-.04,.02-.05,.02l-.5,.23,.52,.18c.12,.04,.24,.11,.37,.22,.1,.08,.17,.15,.23,.23,.05,.07,.08,.13,.09,.19,.02,.07,.03,.17,.04,.28l.6,9.63c.01,.18,0,.35-.03,.5-.03,.14-.06,.26-.1,.35-.1,.21-.26,.38-.48,.52l-.74,.46,5.92-.37-.77-.37Zm1.6-9.29c.05,.88-.1,1.56-.45,2.01-.34,.45-.95,.7-1.8,.75h-.34s-.28-4.53-.28-4.53c-.01-.21,.05-.39,.2-.55,.15-.16,.34-.25,.59-.26,.69-.04,1.2,.23,1.58,.82,.29,.46,.46,1.05,.51,1.76Z"/><g><path class="cls-1" d="M108.13,27.89l-.47-.46c-.24-.24-.4-.49-.46-.78-.04-.16-.05-.3-.03-.42,.02-.13,.05-.26,.11-.39,.07-.15,.14-.3,.21-.44l.6-1.2,3.35,.42,.41,2.03c.03,.16,.04,.3,.02,.39-.02,.15-.08,.3-.19,.45-.11,.15-.26,.27-.47,.37l-.68,.33,6.17,.78-.54-.48c-.15-.13-.24-.22-.29-.28-.12-.13-.23-.26-.31-.4-.17-.27-.32-.69-.45-1.25l-2.85-11.95-5.87,10.53c-.31,.6-.71,1.07-1.17,1.4-.24,.18-.49,.34-.75,.46l-.71,.32,4.38,.55Zm2.35-7.95l.73,3.53-2.54-.32,1.81-3.21Z"/><path class="cls-1" d="M111.44,28.04l4.46,.56c-.11-.1-.18-.17-.23-.22-.12-.13-.24-.28-.33-.42-.18-.3-.34-.74-.48-1.33l-2.69-11.3-5.54,9.94c-.33,.62-.75,1.13-1.25,1.49-.21,.16-.44,.31-.68,.43l2.7,.34c-.23-.25-.38-.52-.46-.82-.04-.19-.06-.36-.04-.51,.02-.16,.06-.31,.14-.46,.07-.15,.14-.3,.21-.45l.61-1.2c.05-.1,.16-.15,.26-.14l3.35,.42c.11,.01,.2,.1,.22,.21l.41,2.03c.03,.2,.04,.35,.03,.47-.02,.2-.1,.38-.23,.57-.11,.16-.27,.29-.46,.4Zm-.12-4.33s-.09,.02-.13,.02l-2.54-.32c-.09-.01-.16-.06-.2-.14-.04-.08-.04-.17,0-.24l1.81-3.21c.05-.1,.16-.15,.27-.13,.11,.02,.19,.1,.21,.2l.73,3.53c.02,.08,0,.17-.06,.23-.03,.03-.06,.05-.09,.06Z"/></g><g><path class="cls-1" d="M123.93,30.77c-.07-.09-.13-.2-.19-.32-.07-.15-.09-.22-.09-.22,0-.14,0-.29,.03-.43,.03-.15,.07-.31,.13-.49l1.52-4.71,.55,.18c.36,.12,.71,.25,1.05,.4,.32,.14,.54,.29,.66,.43,.35,.38,.57,.82,.67,1.32l.16,.86,1.54-4.8-.62,.57c-.34,.32-.75,.52-1.24,.62-.19,.04-.44,.04-.74-.02-.32-.06-.7-.17-1.16-.31l-.57-.18,1.19-3.69c.06-.19,.15-.32,.27-.38,.06-.03,.23-.07,.66,.07,.78,.25,1.52,.89,2.21,1.9,.22,.33,.5,.82,.81,1.46l.43,.88v-.98c-.01-.44-.01-.78-.01-1,0-.06,0-.39,.03-.99l.05-2.15-.35,.24c-.27,.18-.57,.28-.91,.3-.16,0-.27,0-.35-.02-.09-.02-.21-.06-.37-.1l-6.65-2.14,.85,.72c.08,.06,.14,.15,.2,.27,.04,.07,.08,.16,.1,.25,.03,.13,.03,.17,.03,.19,0,0,0,.06-.05,.19,0,.04-.03,.09-.05,.16l-2.94,9.13c-.09,.27-.18,.51-.27,.72-.1,.22-.18,.3-.22,.34-.08,.07-.19,.13-.33,.2-.13,.07-.26,.11-.4,.14l-.78,.18,5.59,1.78-.44-.56Z"/><path class="cls-1" d="M119.75,29.59l3.91,1.24c-.05-.08-.1-.17-.15-.28-.05-.11-.08-.18-.09-.21h0s-.03-.07-.03-.1c0-.16,0-.33,.03-.49,.03-.16,.07-.33,.14-.53l1.52-4.71c.02-.07,.07-.12,.13-.15,.06-.03,.13-.04,.2-.02l.55,.18c.37,.12,.73,.26,1.08,.41,.35,.16,.59,.32,.75,.49,.35,.37,.58,.81,.7,1.3l.93-2.89c-.35,.29-.77,.49-1.25,.59-.22,.05-.5,.04-.84-.02-.32-.06-.7-.16-1.19-.32l-.57-.18c-.07-.02-.12-.07-.15-.13-.03-.06-.04-.13-.02-.2l1.19-3.69c.09-.26,.22-.44,.4-.53,.17-.09,.45-.08,.86,.06,.83,.27,1.62,.94,2.35,2,.22,.32,.47,.77,.75,1.34,0-.36,0-.64,0-.83,0-.03,0-.19,.03-1l.04-1.65c-.3,.18-.63,.28-.98,.3-.18,0-.32,0-.42-.02-.09-.02-.22-.06-.38-.1l-5.46-1.76c.06,.07,.11,.15,.15,.24,.05,.08,.09,.18,.12,.3,.04,.13,.04,.2,.04,.26,0,.02,0,.05,0,.07,0,0-.01,.07-.06,.2,0,.02-.02,.08-.05,.16l-2.94,9.12c-.09,.28-.18,.53-.27,.75-.09,.21-.19,.35-.29,.44-.1,.08-.23,.16-.38,.23-.1,.05-.2,.09-.32,.13Z"/></g><g><path class="cls-1" d="M136.08,24.46c1.07-.52,1.92-.62,2.53-.31,.16,.08,.18,.17,.17,.25,0,.17-.06,.35-.16,.55l-4.04,7.88c-.24,.47-.42,.8-.54,1.01-.1,.17-.21,.28-.33,.33-.22,.11-.42,.16-.61,.18l-.76,.07,5.27,2.7-.34-.63c-.09-.16-.15-.33-.17-.49-.03-.15-.02-.29,.02-.41,.05-.14,.12-.32,.22-.52l4.4-8.59c.08-.17,.18-.31,.3-.41,.08-.07,.16-.1,.25-.09,.13,.02,.24,.05,.33,.09,.48,.25,.82,.97,1,2.15,.07,.4,.11,.99,.12,1.76l.02,1.34,1.93-6.01-.45,.19c-.15,.07-.3,.11-.4,.13-.12,.02-.26,.02-.44,.01-.19-.01-.34-.04-.49-.08-.14-.04-.31-.11-.5-.2l-4.61-2.36c-.24-.12-.44-.24-.59-.34-.13-.09-.25-.2-.35-.33-.1-.14-.17-.26-.22-.37-.04-.11-.08-.24-.1-.39l-.07-.51-2.98,3.77c-.26,.2-.29,.33-.24,.47l.14,.37,.42-.53c.17-.12,.52-.33,1.27-.68Z"/><path class="cls-1" d="M133.25,34.59l3.74,1.91c-.08-.16-.12-.31-.15-.46-.03-.19-.02-.37,.03-.53,.05-.16,.13-.35,.24-.56l4.4-8.59c.09-.19,.21-.35,.35-.48,.15-.13,.3-.18,.46-.16,.16,.02,.3,.06,.41,.12,.57,.29,.94,1.06,1.13,2.34,.06,.37,.1,.9,.12,1.56l1.27-3.97c-.15,.06-.28,.1-.39,.12-.13,.02-.3,.02-.5,.01-.21-.01-.38-.04-.54-.09-.15-.04-.34-.12-.55-.22l-4.61-2.36c-.27-.14-.47-.26-.62-.36-.16-.11-.29-.24-.41-.39-.12-.16-.2-.3-.25-.42-.04-.11-.08-.23-.1-.36l-2.47,3.12c.26-.16,.64-.36,1.13-.59,1.15-.56,2.08-.66,2.77-.31,.22,.11,.32,.28,.31,.49,0,.21-.07,.43-.19,.66l-4.04,7.88c-.25,.48-.43,.82-.55,1.02-.13,.21-.28,.36-.44,.44-.18,.09-.37,.15-.57,.18Zm2.82-10.13h0s0,0,0,0Z"/></g><g><path class="cls-1" d="M143.85,39.06c-.19,.17-.37,.28-.53,.32-.3,.08-.62,.08-.94,0l-1.03-.25,5.96,4.57,.15,.11c.08,.06,.21,.17,.39,.31,.15,.12,.25,.25,.31,.36,.12,.23,.18,.46,.19,.67l.02,.37,2.04-1.22c.41-.23,.77-.43,1.1-.6,.19-.1,.55-.29,1.1-.56l1.42-.7-1.56,.28c-.35,.06-.7,.13-1.03,.18-.83,.09-1.61,.09-2.32,.01-.97-.12-1.76-.42-2.36-.88-.43-.33-.39-.62-.32-.81,.02-.07,.14-.3,.7-1.03l2.39-3.12h.02c.46,.37,.92,.75,1.39,1.17,.53,.48,.71,.77,.77,.93,.14,.38,.2,.78,.19,1.19l-.03,.7,2.66-3.47-.58,.12c-.28,.06-.52,.09-.72,.09-.2,0-.44-.03-.74-.08-.21-.04-.45-.13-.71-.27-.28-.15-.66-.41-1.13-.77-.16-.12-.29-.23-.39-.31-.04-.03-.07-.06-.1-.09l2.3-3c.14-.18,.3-.29,.5-.32,.19-.03,.39,.04,.62,.21,.52,.4,.96,.98,1.32,1.72,.25,.53,.45,1.12,.57,1.73l.28,1.83,.28-1c.1-.36,.19-.66,.26-.92,.08-.25,.18-.54,.3-.85,.12-.32,.23-.59,.34-.81,.1-.22,.22-.47,.36-.74l.18-.36-.4,.03c-.35,.03-.69,0-1.03-.12-.2-.06-.37-.13-.51-.21-.15-.08-.32-.2-.5-.34l-5.27-4.04,.46,.88c.05,.09,.08,.18,.1,.27,.02,.08,.02,.16,.01,.25,0,.17-.08,.36-.24,.56l-5.57,7.28c-.23,.3-.44,.54-.64,.72Z"/><path class="cls-1" d="M143.85,39.06h0s0,0,0,0Z"/></g><path class="cls-1" d="M153.52,47.56c-.11,0-.24,0-.37-.04-.13-.03-.25-.07-.36-.14l-.61-.35,.29,.64c.16,.35,.5,.84,1.03,1.51,.51,.64,.99,1.21,1.41,1.68,1.64,1.8,3.35,2.75,5.09,2.82,.78,.04,1.56-.1,2.32-.42,.76-.31,1.5-.8,2.22-1.45h0c1.47-1.33,2.31-2.78,2.5-4.3,.24-1.84-.5-3.72-2.21-5.59l-.11-.12c-.36-.4-.79-.83-1.27-1.28-.49-.45-.97-.82-1.45-1.08l-.51-.28,.19,.55c.05,.14,.07,.28,.06,.42,0,.13-.03,.23-.08,.29-.05,.08-.15,.19-.29,.31l-7.06,6.42c-.29,.27-.57,.41-.81,.43Zm8.52,1.77c-.76,.69-1.37,1.19-1.87,1.52-.73,.49-1.39,.78-1.97,.85-.66,.09-1.21-.11-1.68-.62-.33-.37-.43-.7-.31-1.01,.06-.14,.24-.4,.77-.9l6.24-5.67c.36-.33,.57-.46,.69-.51,.02,0,.04-.01,.05-.02,.22-.06,.46,.06,.73,.36,.08,.08,.13,.15,.17,.21,.52,.69,.44,1.6-.25,2.78-.54,.92-1.41,1.93-2.59,3h0Z"/></g><g><path class="cls-1" d="M58.26,72.21c-1.56,.64-2.58,.36-3.26,.17-.14-.04-.26-.07-.37-.1l-.17-.04-.65,1.49,.29,.12c.76,.31,2.33,.95,4.75-.05,1.99-.82,3.65-2.49,2.88-4.37-.73-1.77-2.4-2.13-4.97-1.07l-1.06,.44c-1.04,.43-1.33,.1-1.47-.24-.34-.82,.78-1.63,1.62-1.98,1.13-.47,1.82-.36,2.54-.24l.5,.08,.31-1.4,.04-.21-.21-.05c-1.33-.33-2.63-.24-3.87,.27-1.75,.72-3.23,2.43-2.51,4.17,.64,1.55,2.27,1.71,3.51,1.2l1.2-.49c1.22-.5,2.35-.87,2.78,.16,.35,.85-.97,1.77-1.88,2.14Z"/><rect class="cls-1" x="67.41" y="60.21" width="1.69" height="9.14" transform="translate(-19.53 30.89) rotate(-22.39)"/><polygon class="cls-1" points="84.5 63.03 85.96 62.43 82.47 53.98 80.91 54.62 83.29 60.38 76.5 56.53 76.41 56.48 74.95 57.08 78.43 65.53 79.99 64.88 77.62 59.13 84.4 62.98 84.5 63.03"/><path class="cls-1" d="M93.84,50.92c1.5-.62,2.77-.22,3.31-.05l.25,.08,.76-1.47-.22-.09c-2.02-.81-3.7-.46-4.75-.03-2.48,1.02-3.61,3.78-2.58,6.28,1.12,2.71,4.04,3.4,6.22,2.5,2.42-1,3.07-2.27,3.48-3.39l.07-.19-1.52-.71-.08,.24c-.24,.75-.83,1.76-2.32,2.38-2.05,.84-3.74-.13-4.3-1.47-.78-1.88,.28-3.51,1.67-4.08Z"/><polygon class="cls-1" points="113.58 49.22 107.95 51.54 107.11 49.48 109.84 48.36 109.2 46.8 106.46 47.92 105.76 46.21 111.18 43.98 110.54 42.42 103.55 45.3 107.03 53.74 114.23 50.78 113.58 49.22"/></g><g><g><g><path class="cls-1" d="M46.34,75.24c.76-.31,1.11-1.15,.8-1.91-.31-.76-1.15-1.11-1.91-.8-.76,.31-1.11,1.15-.8,1.91s1.15,1.11,1.91,.8Z"/><path class="cls-1" d="M46.54,75.72c-1.03,.42-2.17-.05-2.59-1.08-.42-1.03,.05-2.17,1.08-2.59,1.03-.42,2.17,.05,2.59,1.08s-.05,2.17-1.08,2.59Zm-1.12-2.71c-.49,.2-.71,.74-.51,1.23,.2,.49,.74,.71,1.23,.51,.49-.2,.71-.74,.51-1.23-.2-.5-.73-.72-1.23-.51Z"/></g><g><path class="cls-1" d="M46.44,75.48c-.89,.37-1.88-.04-2.25-.94-.37-.89,.04-1.88,.94-2.25s1.88,.04,2.25,.94c.37,.89-.04,1.88-.94,2.25Zm-1.12-2.71c-.62,.26-.91,.95-.65,1.57s.95,.91,1.57,.65c.62-.26,.91-.95,.65-1.57-.26-.62-.95-.91-1.57-.65Z"/><path class="cls-1" d="M46.64,75.96c-1.16,.48-2.45-.06-2.93-1.22s.06-2.45,1.22-2.93c1.16-.48,2.45,.06,2.93,1.22,.48,1.16-.06,2.45-1.22,2.93Zm-1.12-2.71c-.36,.15-.52,.53-.37,.89,.15,.36,.53,.52,.89,.37s.52-.53,.37-.89c-.15-.36-.53-.52-.89-.37Z"/></g></g><g><g><circle class="cls-1" cx="119.86" cy="43.36" r="1.46"/><path class="cls-1" d="M120.62,45.2c-1.03,.42-2.17-.05-2.59-1.08-.42-1.03,.05-2.17,1.08-2.59,1.03-.42,2.17,.05,2.59,1.08,.42,1.03-.05,2.17-1.08,2.59Zm-1.12-2.71c-.49,.2-.72,.74-.51,1.23s.74,.71,1.23,.51c.49-.2,.71-.74,.51-1.23-.2-.49-.74-.71-1.23-.51Z"/></g><g><path class="cls-1" d="M120.52,44.96c-.89,.37-1.88-.04-2.25-.94-.37-.89,.04-1.88,.94-2.25,.89-.37,1.88,.04,2.25,.94,.37,.89-.04,1.88-.94,2.25Zm-1.12-2.71c-.62,.26-.91,.95-.65,1.57,.26,.62,.95,.91,1.57,.65,.62-.26,.91-.95,.65-1.57-.26-.62-.95-.91-1.57-.66Z"/><path class="cls-1" d="M120.72,45.44c-1.16,.48-2.45-.06-2.93-1.22-.48-1.16,.06-2.45,1.22-2.93,1.16-.48,2.45,.06,2.93,1.22,.48,1.16-.06,2.45-1.22,2.93Zm-1.12-2.71c-.36,.15-.52,.53-.37,.89,.15,.36,.53,.52,.89,.37,.36-.15,.52-.53,.37-.89-.15-.36-.53-.52-.89-.37Z"/></g></g><g><g><path class="cls-1" d="M100.27,155.77c-.76,.31-1.11,1.15-.8,1.91,.31,.76,1.15,1.11,1.91,.8s1.11-1.15,.8-1.91c-.31-.76-1.15-1.11-1.91-.8Z"/><path class="cls-1" d="M101.58,158.96c-1.03,.42-2.17-.05-2.59-1.08s.05-2.17,1.08-2.59c1.03-.42,2.17,.05,2.59,1.08,.42,1.03-.05,2.17-1.08,2.59Zm-1.12-2.71c-.5,.2-.72,.73-.51,1.23,.2,.49,.74,.71,1.23,.51,.49-.2,.71-.74,.51-1.23-.2-.49-.74-.72-1.23-.51Z"/></g><g><path class="cls-1" d="M101.48,158.72c-.89,.37-1.88-.04-2.25-.94-.37-.89,.04-1.88,.94-2.25,.89-.37,1.88,.04,2.25,.94,.37,.89-.04,1.88-.94,2.25Zm-1.11-2.71c-.62,.26-.91,.95-.65,1.57,.26,.62,.95,.91,1.57,.65,.62-.26,.91-.95,.65-1.57s-.95-.91-1.57-.65Z"/><path class="cls-1" d="M101.68,159.2c-1.16,.48-2.45-.06-2.93-1.22-.48-1.16,.06-2.45,1.22-2.93,1.16-.48,2.45,.06,2.93,1.22,.48,1.16-.06,2.45-1.22,2.93Zm-1.11-2.71c-.36,.15-.52,.53-.37,.89,.15,.36,.53,.52,.89,.37s.52-.53,.37-.89c-.15-.36-.53-.52-.89-.37Z"/></g></g><g><g><path class="cls-1" d="M138.88,139.86c-.76,.31-1.11,1.15-.8,1.91,.31,.76,1.15,1.11,1.91,.8,.76-.31,1.11-1.15,.8-1.91-.31-.76-1.15-1.11-1.91-.8Z"/><path class="cls-1" d="M140.19,143.05c-1.03,.42-2.17-.05-2.59-1.08-.42-1.03,.05-2.17,1.08-2.59,1.03-.42,2.17,.05,2.59,1.08,.42,1.03-.05,2.17-1.08,2.59Zm-1.12-2.71c-.49,.2-.71,.74-.51,1.23,.2,.49,.74,.71,1.23,.51,.49-.2,.71-.74,.51-1.23s-.74-.71-1.23-.51Z"/></g><g><path class="cls-1" d="M140.09,142.81c-.89,.37-1.88-.04-2.25-.94-.37-.89,.04-1.88,.94-2.25,.89-.37,1.88,.04,2.25,.94,.37,.89-.04,1.88-.94,2.25Zm-1.11-2.71c-.62,.26-.91,.95-.65,1.57,.26,.62,.95,.91,1.57,.65,.62-.26,.91-.95,.66-1.57-.26-.62-.95-.91-1.57-.65Z"/><path class="cls-1" d="M140.29,143.29c-1.16,.48-2.45-.06-2.93-1.22-.48-1.16,.06-2.45,1.22-2.93s2.45,.06,2.93,1.22c.48,1.16-.06,2.45-1.22,2.93Zm-1.11-2.71c-.36,.15-.52,.53-.37,.89,.15,.36,.53,.52,.89,.37,.36-.15,.52-.53,.37-.89-.15-.36-.53-.52-.89-.37Z"/></g></g><g><path class="cls-1" d="M45.71,63.49c.38-.12,.74-.28,1.08-.43l.25-.11c.81-.35,1.62-.7,2.43-1.05,1.74-.75,3.48-1.5,5.22-2.22,.8-.33,1.62-.64,2.41-.94,.79-.3,1.58-.6,2.37-.92,.79-.33,1.57-.68,2.33-1.02,.72-.33,1.44-.65,2.17-.96,1-.42,2.01-.82,3.02-1.22,.98-.39,1.95-.77,2.92-1.18,1.97-.82,3.94-1.65,5.9-2.48,1.34-.57,2.69-1.14,4.03-1.7,2-.84,4-1.65,5.99-2.49,1.31-.55,2.62-1.11,3.93-1.67,1.11-.47,2.21-.95,3.32-1.42,.84-.36,1.69-.7,2.56-1.06l1.23-.51c.13-.05,.22-.16,.26-.3,.03-.13,0-.28-.09-.38-.06-.07-.1-.13-.14-.18-.09-.12-.17-.23-.3-.32-.53-.4-1.05-.25-1.43-.13-.08,.02-.16,.05-.24,.07-.42,.1-.86,.11-1.33,.13-.31,.01-.63,.02-.94,.06-1.37,.15-2.76,.34-4.04,.52-.99,.14-1.97,.28-2.96,.42-1.05,.15-2.09,.3-3.14,.45-.92,.13-1.84,.25-2.76,.37-1.79,.23-3.64,.47-5.45,.77-1.96,.32-3.89,.81-5.35,1.2-1.01,.27-1.61,1.12-1.46,2.07,.17,1.08,1.05,1.84,2.13,1.86,.27,0,.5-.1,.71-.18,.07-.03,.14-.06,.21-.08,.16-.05,.27-.18,.29-.34,.03-.16-.04-.32-.17-.42l-.61-.45c-.14-.36-.02-.61,.37-.8,.35-.17,.82-.38,1.28-.5,.33-.08,.67-.13,1.02-.18,.29-.04,.57-.08,.86-.14,.7-.14,1.39-.29,2.09-.44,1.21-.26,2.47-.53,3.7-.74,3.36-.56,6.8-1.08,10.11-1.57l.66-.1c.36-.05,.72-.1,1.08-.14l-31.87,13.6c-.04-.1-.09-.2-.13-.29-.71-1.6-1.43-3.25-3.07-4.26,.19-.16,.38-.33,.57-.49,.79-.69,1.55-1.34,2.34-1.96,.6-.47,1.26-.91,1.89-1.33,.32-.21,.63-.42,.94-.63,3-2.07,6.06-3.82,9.1-5.21l.52-.24c1.77-.81,3.59-1.64,5.42-2.34,1.62-.62,3.34-1.11,4.96-1.53,2.21-.59,4.42-1.09,6.48-1.55l.32-.07c1.14-.26,2.32-.52,3.49-.63,2.67-.24,5.39-.38,7.8-.5l.87-.05c1.57-.08,3.18-.17,4.76-.1,1.68,.08,3.39,.32,5.04,.55l.88,.12c.8,.11,1.61,.26,2.39,.4,.63,.11,1.26,.23,1.9,.33,2.94,.45,5.67,1.46,7.73,2.3l.18,.07c1.72,.7,3.5,1.42,5.22,2.18,1.76,.78,3.61,1.65,5.65,2.64,2.45,1.2,4.82,2.66,7.06,4.34,.43,.32,.88,.63,1.33,.93,.75,.51,1.46,.99,2.1,1.57,.87,.78,1.7,1.64,2.5,2.48,.58,.6,1.17,1.22,1.78,1.81,.79,.77,.92,1.29,.47,2-.09,.15-.16,.2-.18,.21-.21,.08-.42,.13-.64,.18-.23,.06-.46,.12-.68,.19-.81,.28-1.61,.55-2.42,.83-1.99,.67-4.05,1.37-6.02,2.18h-.01c-2.93,1.22-5.83,2.64-8.63,4.01l-.11,.06c-1.23,.6-2.42,1.31-3.58,1.99-.36,.21-.72,.42-1.07,.63-.2,.12-.5,.13-.78,.03-.26-.09-.47-.27-.54-.48-.13-.36-.26-.72-.39-1.07-.25-.69-.5-1.4-.78-2.1-.61-1.51-1.23-3.02-1.87-4.57l-.26-.64s.09,.07,.13,.1c1.97,1.58,3.76,2.44,5.61,2.71,3.61,.52,6.42-.5,8.59-3.11,1.32-1.59,1.76-3.32,1.41-5.6-.17-1.1-.51-2.07-1.08-3.03-.73-1.22-1.71-2.55-3.5-3.16-1.56-.54-3.07-.42-4.6,.35-1.5,.76-3.2,1.93-3.02,4.24,.14,1.82,.66,3.05,1.57,3.75,.79,.6,1.86,.78,3.19,.54,.8-.15,1.55-.82,1.91-1.39,.42-.66,.51-1.7-.3-2.41-.26-.23-.72-.43-1.08-.32-.4,.12-.61,.67-.62,1.01,0,.57-.17,.82-.7,.97-.84,.25-1.56,.02-1.85-.57-.39-.8-.51-1.82-.3-2.46,.42-1.27,1.54-2.01,3.53-2.31,1.29-.2,2.26,.1,3.05,.94,.93,.99,1.93,2.22,2.27,3.86,.67,3.26-1.31,5.71-3.57,6.69-1.8,.78-3.66,.71-5.4,.51-.05,0-.16-.07-.22-.1-.26-.14-.52-.29-.77-.44-.51-.3-1.03-.6-1.58-.87-1.75-.84-3.14-1.93-4.26-3.32-.12-.15-.25-.25-.43-.39-.09-.07-.19-.15-.3-.25-.13-.11-.32-.14-.48-.06-.16,.08-.25,.25-.23,.42,.02,.19,.02,.35,.03,.49,0,.3,.02,.56,.12,.81,.33,.82,.68,1.63,1.03,2.45,.26,.61,.52,1.22,.77,1.83,.52,1.25,1.03,2.5,1.54,3.75,.61,1.49,1.23,2.99,1.85,4.48,.12,.3,.29,.57,.44,.83,.07,.11,.13,.22,.19,.33,.06,.11,.16,.18,.28,.21,.09,.02,.18,.01,.27-.02,.03-.01,.05-.02,.08-.04,7.67-5.15,16.51-9.04,27.03-11.9,.11-.03,.21-.1,.26-.2,.06-.1,.07-.22,.04-.33-.03-.11-.05-.21-.07-.3-.04-.22-.09-.42-.22-.61-.2-.28-.39-.56-.59-.85-.53-.78-1.08-1.59-1.77-2.28-1.68-1.66-3.47-3.2-5.16-4.62-2.24-1.88-4.94-4.01-8.02-5.57-1.79-.9-3.81-1.93-5.85-2.84-1.53-.69-3.12-1.32-4.65-1.93l-1.43-.57c-.38-.15-.77-.32-1.15-.48-1.02-.43-2.07-.88-3.16-1.18-2.1-.56-4.34-1.04-6.84-1.46-2.11-.35-4.35-.63-6.85-.85-.99-.08-1.99-.05-2.97-.01-.37,.01-.74,.03-1.1,.03-.8,.02-1.6,.02-2.4,.03-2.05,.02-4.17,.05-6.25,.18-1.68,.11-3.52,.38-5.79,.86-2.67,.56-5.35,1.26-7.94,1.93l-.12,.03c-1.24,.32-2.48,.71-3.68,1.09l-.65,.2c-.75,.23-1.49,.49-2.23,.74l-1.01,.34-.81,.42c-.47,.25-.93,.51-1.4,.76-.61,.33-1.22,.65-1.84,.97-1.35,.7-2.74,1.43-4.06,2.24-2.11,1.29-4.24,2.74-6.33,4.29h0c-1.7,1.26-3.27,2.64-4.86,4.05-1.67,1.48-3,2.76-4.21,4.03-1.08,1.13-2.16,2.41-3.51,4.13-.44,.56-.77,1.19-1.09,1.81-.09,.17-.18,.34-.27,.51-.13,.24-.14,.63-.07,.84,.04,.11,.15,.25,.26,.3,.28,.13,.65,.15,.95,.06Zm12.16-6.66l-.09,.04c-.35-1.45-1.22-2.51-2.18-3.42,1.4,1.1,2.07,2.13,2.27,3.38Zm-5.5-1.8c.17-.17,.35-.35,.52-.52,.54-.56,.91-.59,1.47-.13,.22,.18,.42,.39,.63,.61,.19,.2,.38,.39,.58,.58,.51,.46,.64,1.07,.78,1.78,0,.04,.02,.08,.02,.12l-8.6,3.54-.2-.5,.93-1.08c.95-1.11,1.93-2.26,2.93-3.4,.3-.34,.63-.67,.95-.99Z"/><path class="cls-1" d="M70.41,47.96h0Zm-13.83,9.97l-8.6,3.54c-.27,.11-.57-.02-.68-.28l-.2-.5c-.07-.18-.04-.39,.09-.54l.93-1.08c.95-1.11,1.94-2.26,2.93-3.4,.3-.34,.63-.68,.96-1l.38,.35-.37-.37,.07-.07c.15-.15,.3-.3,.45-.45,.73-.76,1.4-.81,2.17-.17,.23,.19,.45,.42,.67,.65,.18,.19,.36,.37,.55,.55,.64,.57,.8,1.33,.94,2.06l.02,.11c.05,.25-.08,.49-.31,.59Zm-7.96,2.16l7.17-2.95c-.11-.51-.23-.9-.55-1.19-.21-.19-.41-.4-.61-.61-.2-.21-.38-.4-.59-.57-.31-.26-.37-.31-.76,.09-.15,.16-.31,.31-.46,.47l-.43-.3,.37,.37-.02,.02c-.31,.31-.62,.62-.91,.95-.99,1.14-1.97,2.28-2.92,3.39l-.29,.34Z"/></g><g><path class="cls-1" d="M166.83,83.58c-1.57,.36-3.24,.76-4.86,1.31l-1.06,.36c-2.41,.81-4.89,1.66-7.26,2.7-2.27,1-4.5,2.16-6.67,3.28-.9,.47-1.8,.93-2.7,1.39l-1.58,.79c-1.67,.84-3.41,1.71-5.09,2.61-1.91,1.02-3.59,1.97-5.13,2.93-.84,.52-1.67,1.1-2.46,1.66-.56,.39-1.11,.78-1.68,1.16-1.88,1.24-3.35,2.18-4.75,3.04-.94,.57-1.89,1.13-2.84,1.69-1.03,.6-2.06,1.21-3.07,1.84-2.38,1.47-4.93,3.05-7.45,4.71-2.92,1.92-5.84,3.93-8.35,5.66-.92,.63-1.83,1.3-2.71,1.94-.6,.44-1.2,.88-1.81,1.32-.23,.16-.48,.31-.74,.46-.19,.11-.37,.22-.55,.33-.75,.48-1.49,.96-2.24,1.44-1.33,.86-2.66,1.71-4,2.55-1.06,.67-2.13,1.31-3.21,1.96-.74,.45-1.49,.9-2.23,1.36l-.78,.48c-1.58,.97-3.2,1.97-4.78,3-.12,.08-.25,.15-.38,.22-.54,.29-1.27,.68-1.38,1.69-.01,.12,.03,.24,.1,.33,.08,.09,.19,.14,.31,.15,.04,0,.08,0,.12,0,.12,.01,.26,.03,.42-.03l.95-.35c.94-.34,1.91-.68,2.86-1.08,.84-.35,1.67-.72,2.51-1.1,.75-.34,1.5-.68,2.26-.99,1.67-.7,3.34-1.39,5.01-2.08,1.55-.64,3.09-1.28,4.63-1.93,1.1-.46,2.19-.94,3.28-1.41,.78-.34,1.57-.69,2.36-1.02l1.54-.66c3.01-1.29,6.03-2.58,9.05-3.85,.81-.34,1.65-.65,2.46-.96,.65-.24,1.3-.49,1.95-.75,1.48-.59,2.96-1.2,4.44-1.8,1.41-.58,2.82-1.15,4.24-1.72,.75-.3,1.5-.59,2.26-.88,1.01-.39,2.05-.79,3.07-1.21,.94-.39,1.87-.81,2.8-1.22,.92-.41,1.88-.84,2.82-1.23,3.53-1.46,7.05-2.92,10.58-4.37,3.03-1.25,6.06-2.5,9.09-3.75,.67-.28,1.33-.58,2-.88,.76-.34,1.55-.7,2.33-1.01,.75-.3,1.54-.58,2.3-.85,.7-.25,1.4-.49,2.09-.76,.37-.15,.69-.68,.71-1.05,.02-.36-.01-.71-.05-1.05-.02-.19-.04-.38-.05-.57-.12-2.66-.49-4.85-1.18-6.9-.09-.27-.25-.64-.59-.81-.35-.17-.7-.04-1.07,.09-.61,.22-1.23,.43-1.84,.63-.42,.14-.84,.28-1.26,.43l-.87,.3c-.89,.31-1.81,.62-2.71,.98-1.04,.41-2.06,.88-3.05,1.34l-1.08,.49c-1.1,.5-2.24,1.03-3.34,1.59-.94,.48-1.87,1-2.78,1.51-.67,.37-1.34,.74-2.01,1.1-.57,.3-1.14,.59-1.72,.88-.7,.35-1.4,.71-2.09,1.09-2.06,1.13-3.88,2.16-5.55,3.14-1.55,.91-3.23,1.94-5.28,3.23-.59,.37-1.16,.77-1.71,1.16-.32,.23-.64,.45-.97,.67-.2,.13-.39,.27-.59,.4-.56,.39-1.14,.79-1.74,1.13-1.13,.64-2.21,1.32-2.92,2.62-.07,.13-.07,.3,0,.43,.08,.13,.22,.21,.38,.21h.08c.64,0,1.29-.01,1.9-.26,.68-.28,1.35-.6,1.99-.92,.51-.25,1.02-.5,1.54-.73,.68-.3,1.38-.57,2.06-.84,.52-.2,1.04-.41,1.55-.62,3.03-1.26,6.05-2.52,9.07-3.8,2.56-1.09,5.11-2.19,7.66-3.3,1.49-.65,3.22-1.4,4.93-2.18l.13-.06c.64-.29,1.31-.6,1.87-1.06,.72-.59,.94-1.4,.58-2.16-.2-.44-.65-.78-1.2-.9-.57-.12-1.14,0-1.53,.33-.34,.29-.5,.66-.45,1.03,.05,.34,.29,.63,.66,.8,0,0,.02,0,.03,.01-.04,.04-.09,.07-.12,.1-.29,.24-.67,.42-.97,.55-1.21,.53-2.43,1.05-3.65,1.57-1.45,.62-2.91,1.25-4.36,1.88-1.26,.55-2.52,1.13-3.77,1.7l-.97,.45c-.46,.21-.91,.42-1.37,.64-.78,.37-1.58,.74-2.37,1.09-1.18,.51-2.37,.99-3.56,1.48-.55,.23-1.11,.45-1.66,.68l-2.85,1.17c1.13-.75,2.27-1.5,3.4-2.24,.39-.26,.78-.52,1.17-.78,1.14-.76,2.32-1.54,3.52-2.22,1.76-.99,3.58-1.95,5.35-2.87,.91-.48,1.83-.96,2.74-1.45,.59-.32,1.18-.64,1.77-.97,.86-.47,1.75-.96,2.63-1.42,2.1-1.08,4.35-2.22,6.66-3.3,1.35-.63,2.83-1.24,4.53-1.86,.78-.28,1.6-.5,2.4-.71,.36-.1,.72-.19,1.07-.29,.27-.04,1.11,.4,1.2,.62,.29,1.4,.56,2.8,.83,4.2l.2,1.04s-.02,.02-.03,.03c-.04,.04-.09,.08-.14,.11-.15,.11-.33,.26-.43,.47-.25,.51-.6,.84-1.13,1.06h-.01c-1.16,.48-2.33,.99-3.46,1.48-.7,.31-1.4,.61-2.11,.91l-.22,.09c-1.85,.78-3.76,1.59-5.65,2.36-1.04,.42-2.09,.83-3.14,1.24-1.38,.53-2.79,1.08-4.18,1.66-2.36,.98-4.72,1.98-7.07,2.99-1.67,.71-3.34,1.42-5.02,2.13-1.4,.59-2.8,1.16-4.2,1.74-1.3,.53-2.59,1.07-3.89,1.61-.53,.22-1.06,.46-1.58,.7-.57,.26-1.16,.54-1.75,.77-1.31,.54-2.64,1.06-3.96,1.58-.96,.38-1.91,.76-2.87,1.14-1.08,.43-2.16,.88-3.25,1.33l-1.13,.47-2.14-4.21,1.47-.98c1.44-.96,2.92-1.95,4.4-2.91,.95-.62,1.93-1.22,2.88-1.8,.52-.32,1.04-.64,1.56-.97,.81-.51,1.62-1.01,2.43-1.52,1.26-.79,2.51-1.58,3.78-2.36,.83-.52,1.67-1.03,2.5-1.53,1.1-.67,2.2-1.34,3.3-2.03,.45-.28,.87-.59,1.29-.89,.3-.22,.61-.44,.92-.65,.68-.46,1.4-.9,2.08-1.32l1.14-.71c1.1-.68,2.23-1.38,3.36-2.03,.78-.45,1.59-.86,2.38-1.27,.47-.24,.94-.48,1.41-.73,.57-.3,1.14-.61,1.71-.92,.89-.49,1.78-.97,2.68-1.43,.78-.4,1.6-.79,2.39-1.15,.39-.18,.79-.37,1.18-.56,.53-.25,1.05-.51,1.58-.77,1.13-.56,2.3-1.13,3.47-1.64,1.43-.62,2.88-1.15,4.62-1.76,2.01-.7,4.09-1.37,6.01-1.98,.05,0,.16,.03,.17,.02,.41,.58,.92,.83,1.54,.76,.14,.42,.28,.84,.43,1.26,.41,1.18,.79,2.3,.99,3.45l.03,.18c.69,4,1.4,8.14,1.01,12.28-.08,.82-.12,1.66-.17,2.46-.06,1.06-.12,2.17-.25,3.23-.27,2.11-.55,4.28-1.13,6.33-.74,2.6-1.7,5.4-3.01,8.82-.46,1.2-1.08,2.37-1.67,3.51-.27,.52-.55,1.05-.81,1.58-.29,.58-.56,1.16-.84,1.75-.9,1.9-1.83,3.86-3.08,5.58-.52,.71-1.03,1.42-1.54,2.13-.52,.72-1.05,1.45-1.57,2.17-.17,.24-.35,.47-.53,.7-.27,.35-.53,.7-.78,1.06-.31,.45-.61,.92-.89,1.37l-.16,.25c-.55-.2-.79-.31-.94-.7-.68-1.77-1.42-3.54-2.14-5.26-.37-.88-.74-1.76-1.1-2.64-.62-1.52-1.23-3.05-1.83-4.57l-.15-.37c-.07-.17-.08-.23-.09-.2,.48-1.14,1.05-1.72,1.96-2,1.28-.39,2.53-.9,3.74-1.39,.35-.14,.69-.28,1.04-.42,.81-.32,1.62-.66,2.43-.99,.88-.36,1.76-.73,2.63-1.07,.04,0,.12,0,.12-.01,.03,.04,.05,.15,.04,.18l-.17,.43c-.28,.71-.57,1.45-.95,2.09-1.15,1.94-2.16,3.52-3.18,4.95-.13,.18-.57,.29-.96,.37-.03-.04-.05-.09-.08-.13-.09-.15-.18-.32-.27-.43-.12-.15-.26-.23-.38-.29-.03-.02-.06-.03-.09-.05-.1-.07-.23-.08-.35-.05-.12,.03-.22,.11-.27,.22-.08,.16-.17,.32-.26,.48-.23,.4-.46,.81-.57,1.28-.1,.42,.03,.72,.16,.89,.29,.4,.8,.52,1.19,.56,.99,.09,1.92-.33,2.62-1.18l.23-.27c.58-.7,1.19-1.43,1.61-2.34,.46-1,1.02-1.99,1.56-2.95,.37-.65,.74-1.3,1.08-1.97,.38-.73,.73-1.57,1.09-2.62,.1-.3,.03-.61-.04-.89-.02-.1-.05-.2-.06-.31-.02-.14-.1-.26-.23-.32-.12-.06-.27-.06-.4,0-.22,.11-.41,.21-.58,.3-.32,.17-.57,.29-.82,.4l-1.21,.49c-2.51,1.02-5.12,2.07-7.69,3.07-.82,.32-1.68,.61-2.51,.89-.6,.2-1.2,.41-1.8,.62-.32,.11-.68,.5-.68,.86,0,.36,.09,.77,.25,1.15,.22,.52,.46,1.03,.7,1.55,.35,.75,.7,1.53,1.01,2.31,.32,.8,.61,1.62,.89,2.42,.28,.8,.57,1.63,.89,2.44,.72,1.81,1.45,3.58,2.23,5.46,.33,.79,.66,1.6,1,2.42,.05,.12,.15,.21,.28,.25,.1,.03,.2,.02,.29-.01,.03-.01,.05-.03,.08-.04,.11-.08,.23-.14,.35-.21,.31-.17,.62-.34,.8-.66,.3-.53,.71-.97,1.15-1.45,.57-.62,1.16-1.27,1.52-2.13,.2-.48,.57-.92,.95-1.38,.23-.28,.47-.56,.68-.87,1.16-1.7,2.31-3.4,3.45-5.11l.88-1.31c.22-.32,.45-.66,.62-1.03,.66-1.46,1.3-2.92,1.89-4.34,.25-.6,.5-1.2,.76-1.8,.78-1.85,1.59-3.77,2.29-5.7,.78-2.19,1.37-4.45,1.87-6.4,.46-1.83,.98-3.9,1.23-5.99,.29-2.48,.38-4.67,.27-6.67-.21-3.85-.53-7.02-1.01-9.97-.31-1.92-.89-3.82-1.46-5.65-.17-.54-.33-1.08-.49-1.63-.13-.44-.84-1.06-1.37-.94Zm-67.86,42c-.95,.41-1.89,.83-2.85,1.23-.06-.02-.15-.07-.17-.1-.28-.43-.53-.89-.76-1.33-.02-.04-.05-.09-.07-.13l9.39-6.55c.89,1.16,1.73,2.27,1.97,3.73l-1.38,.57c-1.29,.53-2.58,1.05-3.86,1.6-.76,.32-1.51,.65-2.27,.98Zm-6.6,1.23c.11-.08,.23-.16,.34-.23,.16,.05,.5,.34,.6,.64,.18,.51,.16,.65-.43,.85h0c-.74,.26-1.45,.61-2.14,.94-.5,.24-1.01,.49-1.53,.7-.83,.35-1.71,.67-2.55,.99-.47,.17-.93,.35-1.4,.53,.05-.03,.11-.07,.16-.1,.54-.33,1.08-.66,1.62-.99,1.63-1.01,3.25-2.02,4.88-3.03,.15-.09,.29-.19,.43-.29Z"/><path class="cls-1" d="M145.66,128.5c-.16,.06-.32,.27-.32,.37,0,.29,.07,.63,.21,.94,.22,.52,.46,1.02,.69,1.53,.35,.76,.72,1.55,1.03,2.34,.32,.8,.61,1.63,.89,2.44,.29,.82,.57,1.63,.89,2.42,.72,1.81,1.45,3.58,2.23,5.45l.96,2.33c.09-.06,.19-.11,.29-.17,.26-.15,.5-.28,.61-.47,.33-.57,.75-1.04,1.21-1.53,.58-.63,1.11-1.21,1.44-1.99,.23-.56,.64-1.04,1.03-1.51,.22-.27,.45-.54,.65-.83,1.09-1.59,2.16-3.18,3.23-4.78l1.1-1.64c.21-.31,.43-.62,.58-.96,.65-1.44,1.29-2.89,1.88-4.32,.25-.6,.5-1.2,.76-1.8,.79-1.86,1.59-3.77,2.27-5.67,.78-2.17,1.36-4.42,1.85-6.35,.46-1.83,.97-3.87,1.22-5.92,.29-2.46,.38-4.61,.27-6.59-.21-3.83-.53-6.98-1-9.91-.31-1.89-.88-3.77-1.44-5.59-.17-.54-.33-1.09-.49-1.63-.07-.25-.56-.62-.75-.58-1.55,.35-3.2,.75-4.81,1.3l-1.06,.36c-2.39,.81-4.85,1.64-7.21,2.69-2.27,1.01-4.49,2.16-6.64,3.27-.9,.47-1.8,.93-2.71,1.39l-1.58,.79c-1.72,.86-3.42,1.72-5.08,2.6-1.91,1.01-3.58,1.97-5.1,2.91-.84,.52-1.65,1.09-2.44,1.64-.56,.39-1.12,.79-1.69,1.17-1.89,1.25-3.36,2.19-4.76,3.05-.89,.55-1.79,1.08-2.69,1.61l-.15,.09c-1.03,.6-2.05,1.21-3.07,1.83-2.37,1.46-4.91,3.04-7.44,4.7-2.93,1.93-5.84,3.93-8.34,5.66-.9,.63-1.8,1.28-2.67,1.92-.62,.46-1.23,.9-1.84,1.33-.24,.17-.49,.32-.76,.47-.2,.12-.38,.22-.56,.33l-2.46,1.58c-1.26,.81-2.52,1.62-3.79,2.42-1.06,.67-2.14,1.32-3.21,1.97-.74,.45-1.49,.9-2.23,1.35l-.78,.48c-1.48,.91-3.16,1.94-4.77,2.99-.12,.08-.26,.15-.4,.23-.6,.32-1.02,.59-1.12,1.21,.02,0,.03,0,.05,0,.1,.01,.16,.02,.2,0l1.29-.47c.82-.3,1.67-.6,2.49-.95,.84-.35,1.67-.72,2.5-1.09,.75-.34,1.51-.68,2.27-1,1.53-.64,3.06-1.28,4.6-1.91l.42-.17c1.55-.64,3.09-1.28,4.63-1.92,1.04-.44,2.07-.89,3.1-1.34l.17-.07c.79-.34,1.57-.69,2.36-1.02l1.55-.66c3.02-1.29,6.03-2.58,9.06-3.85,.85-.34,1.66-.66,2.48-.96l.11-.04c.61-.23,1.22-.46,1.82-.7,1.48-.59,2.96-1.2,4.43-1.8,1.41-.58,2.83-1.15,4.24-1.72,.75-.3,1.51-.59,2.26-.88l.26-.1c.92-.36,1.87-.71,2.8-1.11,.94-.39,1.86-.8,2.79-1.22,.93-.42,1.89-.84,2.84-1.24,3.53-1.46,7.05-2.91,10.59-4.37l1.14-.47c2.65-1.09,5.3-2.18,7.95-3.28,.67-.28,1.32-.57,1.98-.87,.81-.36,1.59-.71,2.35-1.02,.76-.3,1.55-.58,2.31-.85,.75-.27,1.41-.5,2.07-.76,.19-.06,.37-.39,.38-.6,.02-.31-.02-.64-.05-.96-.02-.21-.04-.41-.05-.6-.12-2.61-.48-4.76-1.15-6.76-.03-.1-.14-.42-.32-.51-.15-.07-.34,0-.67,.11-.61,.22-1.23,.43-1.85,.64-.42,.14-.84,.28-1.25,.43l-.87,.3c-.84,.29-1.79,.61-2.69,.97-1.03,.4-2.04,.88-3.02,1.33l-1.08,.49c-1.09,.5-2.23,1.02-3.32,1.58-.93,.48-1.86,1-2.76,1.5-.67,.37-1.35,.75-2.02,1.11-.57,.31-1.15,.6-1.73,.89-.7,.35-1.4,.7-2.08,1.08-2.05,1.12-3.86,2.15-5.54,3.13-1.57,.92-3.24,1.95-5.27,3.22-.56,.35-1.1,.73-1.63,1.11-.4,.28-.72,.5-1.03,.72l-.58,.4c-.58,.4-1.17,.81-1.78,1.15-1.06,.6-2,1.19-2.65,2.29,.61,0,1.16-.03,1.64-.22,.62-.25,1.29-.57,1.91-.88,.57-.28,1.09-.53,1.61-.76,.69-.3,1.4-.58,2.08-.84l.1-.04c.48-.19,.96-.38,1.44-.57,3.03-1.26,6.05-2.52,9.07-3.8,2.56-1.08,5.11-2.19,7.66-3.3,1.49-.65,3.22-1.4,4.92-2.18l.13-.06c.61-.28,1.24-.57,1.76-.98,.53-.43,.69-1,.44-1.54-.14-.3-.45-.52-.84-.61-.41-.09-.82,0-1.08,.22-.2,.17-.3,.37-.27,.56,.03,.22,.24,.34,.36,.4,.16,.07,.29,.23,.32,.4s-.02,.36-.15,.48l-.14,.12c-.34,.28-.76,.48-1.09,.63-1.21,.53-2.43,1.05-3.65,1.57l-.36,.16c-1.33,.57-2.66,1.14-3.99,1.72-1.26,.55-2.51,1.13-3.76,1.7l-.97,.45c-.39,.18-.78,.36-1.17,.55l-.19,.09c-.78,.37-1.59,.75-2.39,1.09-1.18,.51-2.38,.99-3.57,1.48l-4.51,1.85c-.25,.1-.53,0-.66-.24-.12-.24-.05-.53,.17-.68,1.13-.75,2.27-1.5,3.41-2.25,.39-.26,.78-.51,1.17-.77,1.15-.76,2.33-1.55,3.55-2.24,1.76-.99,3.58-1.95,5.34-2.87,.93-.49,1.85-.97,2.76-1.46,.59-.32,1.18-.64,1.76-.96l.1-.05c.83-.46,1.69-.93,2.54-1.37,2.12-1.08,4.38-2.23,6.68-3.31,1.36-.64,2.86-1.25,4.58-1.87,.79-.29,1.63-.51,2.43-.72l.18-.05c.3-.08,.6-.16,.9-.25,.56-.1,1.64,.47,1.83,.93,.32,1.49,.59,2.9,.86,4.3l.2,1.04c.04,.2-.04,.4-.2,.52-.03,.03-.08,.07-.13,.11-.13,.1-.26,.2-.31,.31-.31,.63-.75,1.05-1.4,1.31-1.16,.47-2.32,.98-3.44,1.47-.72,.31-1.42,.62-2.13,.92l-.21,.09c-1.89,.8-3.78,1.6-5.66,2.36-1.05,.42-2.1,.83-3.15,1.24l-.22,.08c-1.3,.51-2.64,1.02-3.96,1.58-2.36,.98-4.72,1.98-7.07,2.98-1.68,.71-3.35,1.43-5.02,2.13-1.4,.59-2.8,1.16-4.2,1.74l-.43,.18c-1.15,.47-2.3,.95-3.45,1.43-.5,.21-.99,.44-1.48,.66-.66,.3-1.26,.57-1.85,.82-1.32,.54-2.64,1.06-3.96,1.58-.96,.38-1.91,.75-2.87,1.14-1,.4-1.99,.81-3,1.23l-1.37,.57h0c-.25,.1-.54,0-.66-.25l-2.14-4.21c-.12-.23-.04-.52,.18-.67l1.62-1.08c1.39-.93,2.82-1.88,4.26-2.81,.92-.6,1.87-1.18,2.8-1.75l.09-.06c.52-.32,1.04-.64,1.56-.96l2.43-1.52c1.26-.79,2.52-1.58,3.78-2.36,.83-.52,1.67-1.03,2.51-1.54,1.1-.67,2.2-1.34,3.29-2.03,.42-.27,.83-.56,1.23-.85l.39,.36-.3-.42c.29-.21,.58-.42,.88-.62,.69-.46,1.41-.9,2.1-1.33l1.14-.7c1.03-.64,2.21-1.37,3.38-2.04,.78-.45,1.59-.86,2.38-1.26,.49-.25,.96-.49,1.42-.74,.57-.3,1.13-.61,1.7-.92,.9-.49,1.8-.98,2.7-1.44,.79-.41,1.61-.79,2.41-1.16,.39-.18,.79-.37,1.18-.56,.53-.25,1.05-.51,1.57-.77,1.15-.56,2.32-1.14,3.49-1.65,1.45-.63,2.91-1.16,4.66-1.77,2.08-.73,4.2-1.4,6.02-1.98,.21-.03,.31-.01,.4,0,.18,0,.25,.07,.35,.21,.39,.54,.77,.58,1.06,.54,.25-.03,.48,.12,.55,.36,.13,.41,.27,.82,.42,1.22,.43,1.24,.82,2.37,1.02,3.56l.03,.17c.69,4.04,1.41,8.22,1.01,12.42-.08,.79-.12,1.6-.16,2.38-.06,1.13-.12,2.23-.26,3.33-.27,2.13-.55,4.32-1.15,6.41-.74,2.61-1.7,5.42-3.03,8.86-.48,1.23-1.1,2.42-1.7,3.56-.27,.52-.54,1.04-.81,1.57-.26,.54-.52,1.08-.78,1.62l-.06,.12c-.91,1.92-1.85,3.9-3.13,5.67l-3.11,4.3c-.17,.24-.36,.48-.54,.71-.26,.34-.52,.68-.76,1.04-.31,.45-.6,.91-.88,1.35l-.16,.25c-.13,.21-.39,.3-.62,.21-.54-.2-1-.36-1.25-1-.68-1.77-1.42-3.54-2.14-5.24l-.14-.33c-.32-.77-.64-1.54-.96-2.31-.62-1.52-1.23-3.05-1.83-4.58l-.19-.47c-.09-.14-.12-.32-.05-.49,.54-1.28,1.23-1.97,2.28-2.29,1.26-.38,2.5-.88,3.7-1.37l1.04-.42c.74-.29,1.46-.6,2.2-.9l.41-.17c.81-.34,1.64-.68,2.45-1,.04-.02,.12-.03,.19-.04,.21-.05,.43,.03,.55,.22,.1,.15,.15,.4,.12,.57l-.2,.53c-.29,.73-.58,1.48-.99,2.17-1.16,1.95-2.18,3.54-3.21,4.99-.22,.31-.66,.46-1.27,.58-.22,.05-.44-.05-.56-.25,0,0-.08-.13-.08-.14-.07-.13-.15-.27-.23-.37-.05-.06-.13-.1-.22-.15-.02,0-.03-.02-.05-.03-.06,.12-.13,.24-.2,.36-.26,.45-.46,.81-.55,1.2-.04,.19-.02,.35,.07,.47,.18,.25,.59,.32,.81,.34,.81,.08,1.58-.28,2.17-.99l.23-.28c.56-.68,1.14-1.37,1.54-2.23,.46-1,1.01-1.98,1.55-2.93l.07-.12c.36-.63,.71-1.26,1.04-1.9,.37-.71,.71-1.52,1.06-2.55,.05-.16,0-.37-.05-.59-.02-.09-.04-.17-.05-.24-.17,.09-.32,.17-.46,.24-.33,.17-.6,.31-.86,.42l-1.34,.54c-2.48,1-5.05,2.04-7.58,3.03-.83,.32-1.69,.62-2.53,.9l-.12,.04c-.56,.19-1.12,.38-1.67,.58,0,0-.01,0-.02,0Zm6.8,3.63h0Zm11.69-34.57l.02,.02-.02-.02Zm-74.84,32.68c-.76,.31-1.56,.61-2.33,.9l-.36,.13c-.39,.15-.77,.29-1.16,.44-.25,.1-.53-.01-.65-.25-.12-.24-.03-.53,.19-.67l.16-.1c.54-.33,1.08-.66,1.62-.99,1.6-.99,3.2-1.99,4.8-2.99,.22-.13,.35-.23,.49-.32,.12-.08,.24-.16,.36-.24,.13-.09,.29-.11,.44-.06,.32,.1,.78,.52,.93,.96,.24,.69,.19,1.19-.75,1.51-.71,.25-1.4,.59-2.07,.91-.59,.28-1.14,.54-1.68,.77Zm3.06-3.43h0s0,0,0,0Zm3.96,.48c-.12,.05-.25,.05-.38,0-.03,0-.26-.1-.39-.25-.33-.5-.58-.96-.82-1.41l-.07-.13c-.13-.23-.06-.52,.16-.67l9.39-6.55c.23-.16,.54-.11,.71,.11,.89,1.16,1.81,2.35,2.07,3.96,.04,.24-.09,.47-.32,.56h0s-1.38,.57-1.38,.57c-1.29,.53-2.57,1.05-3.85,1.6-.76,.32-1.51,.65-2.26,.98l-.21-.48,.21,.48c-.95,.42-1.9,.83-2.85,1.23h0Z"/></g><path class="cls-1" d="M39.5,115.52c1.37-.18,2.84-.48,4.37-.9,1.02-.28,2.04-.62,3.03-.95,.66-.22,1.32-.44,1.98-.65,.39-.12,.81-.22,1.21-.32,.61-.15,1.24-.3,1.84-.53,1.06-.42,2.08-.83,3.08-1.24,1.54-.63,3.01-1.26,4.45-1.91,.88-.39,1.72-.87,2.54-1.34,.37-.21,.73-.42,1.1-.62,.25-.13,.49-.27,.73-.4,.52-.29,1.03-.57,1.56-.83,.45-.23,.91-.44,1.37-.65,.74-.34,1.51-.69,2.23-1.1,1.04-.59,2.07-1.23,3.07-1.84,.69-.43,1.38-.86,2.08-1.27,.85-.5,1.71-.99,2.57-1.48,1.62-.92,3.29-1.87,4.87-2.92,1.74-1.16,3.43-2.44,5.06-3.68,.79-.6,1.58-1.2,2.38-1.79,.61-.45,1.23-.9,1.85-1.34,.94-.68,1.87-1.36,2.8-2.05,.24-.18,.37-.44,.49-.67,.04-.08,.08-.16,.13-.24,.08-.13,.09-.29,.02-.43-.07-.14-.2-.23-.36-.24-.08,0-.17-.02-.25-.04-.26-.04-.56-.1-.84,.02-.61,.24-1.21,.51-1.82,.78-.61,.27-1.23,.55-1.86,.8-1.4,.55-2.8,1.1-4.2,1.64-1.49,.57-2.97,1.15-4.45,1.74-1,.4-2,.84-2.96,1.26-.49,.22-.98,.43-1.47,.64l-.45,.19c-.7,.3-1.39,.6-2.09,.88-1.18,.47-2.36,.95-3.55,1.42-2.06,.82-4.12,1.64-6.17,2.48-.38,.16-.77,.37-1.14,.57-.51,.28-1,.54-1.51,.68-1.33,.35-1.9,1.28-2.38,2.21-.38,.74-.02,2.1,.67,2.51,.36,.21,.89,.25,1.42,.11,.53-.14,.96-.43,1.17-.79,.14-.24,.17-.5,.19-.67,0-.04,0-.07,.01-.1,.02-.11,0-.23-.06-.33s-.16-.16-.27-.19c-.17-.04-.33-.06-.48-.08-.05,0-.11-.02-.17-.02,0-.13,.03-.28,.08-.38,.38-.69,1.08-1,1.83-1.31,.28-.12,.56-.24,.82-.38,.68-.36,1.43-.64,2.15-.91,.41-.16,.82-.31,1.23-.48,.79-.33,1.58-.67,2.37-1.01,1.1-.48,2.21-.95,3.32-1.41,.93-.38,1.87-.75,2.81-1.11,.96-.37,1.92-.75,2.87-1.14,1.87-.78,3.74-1.55,5.62-2.33,1.3-.54,2.59-1.08,3.89-1.62-.01,0-.02,.02-.03,.02-.86,.66-1.72,1.32-2.6,1.97-.5,.36-.99,.73-1.48,1.1-2.18,1.63-4.43,3.31-6.89,4.6-.6,.31-1.17,.67-1.73,1.02-.46,.29-.94,.59-1.43,.86-.82,.45-1.68,.89-2.5,1.31-.61,.31-1.21,.62-1.81,.94-1.06,.56-2.12,1.13-3.18,1.7-1.1,.59-2.2,1.19-3.31,1.77-.43,.23-.87,.44-1.32,.65-.32,.15-.65,.31-.96,.47-.51,.25-1.01,.52-1.51,.79-1,.53-2.03,1.07-3.07,1.51-2.37,.99-4.78,1.92-7.18,2.74-2.27,.78-4.91,1.66-7.59,2.3-1.21,.29-2.5,.37-3.75,.46-.46,.03-.92,.06-1.35,.1-.04,0-.13-.06-.14-.06h0c-.11-.31-.41-1.17-1.4-1.22-.06-.33-.11-.65-.17-.97-.18-.99-.34-1.92-.44-2.86l-.06-.63c-.24-2.51-.5-5.1-.56-7.65-.06-2.37,.16-4.7,.64-6.93,.34-1.58,.99-3.06,1.63-4.49,.24-.53,.47-1.07,.69-1.61,.32-.79,.88-1.46,1.81-2.18,.43-.33,.85-.7,1.25-1.05,.7-.62,1.37-1.21,2.12-1.63,.81-.45,1.84-.6,2.85-.74l.44-.07c.85-.13,1.74-.22,2.45-.02,2.36,.65,4.18,1.47,5.38,3.32,1.57,2.41,2.01,4.44,1.42,6.57-.53,1.9-1.5,3.35-2.88,4.33-1.3,.91-2.5,1.28-3.76,1.14-1.94-.21-3.12-.8-3.96-1.98-.8-1.13-1.17-2.23-1.13-3.35,.04-1.06,.64-2.09,1.59-2.74,.88-.61,1.9-.79,2.78-.5,.7,.23,1.34,.84,1.2,1.68-.03,.2-.1,.35-.19,.41-.02,.01-.06,.04-.18,.03-.04-.04-.09-.12-.13-.18-.07-.1-.14-.2-.22-.3-.09-.11-.23-.17-.38-.15-.14,.01-.27,.1-.34,.23-.04,.08-.08,.16-.11,.23-.01,.03-.02,.05-.03,.08-.39,.29-.49,.63-.51,.86-.03,.35,.12,.69,.41,.97,.16,.15,.99,.9,1.67,.73,1.19-.3,1.97-1.12,2.16-2.24,.17-1-.13-1.99-.86-2.77-.85-.91-2.19-1.45-3.34-1.34-.78,.07-1.62,.37-2.64,.94-1.61,.9-2.45,2.45-2.41,4.5,.04,2.75,1.76,4.53,3.17,5.66-.03,.09-.06,.18-.09,.28-.12,.4-.24,.77-.41,1.1-.37,.71-.69,1.46-1,2.19-.69,1.62-1.35,3.15-2.56,4.39-.31,.32-.37,.63-.37,.84,0,.32,.16,.64,.45,.91,.6,.57,1.4,.6,1.98,.08,.24-.22,.89-.8,.32-1.69-.1-.16-.14-.49-.08-.69,.12-.37,.31-.73,.51-1.11,.1-.19,.2-.38,.29-.57l.4-.84c.47-.98,.95-1.97,1.4-2.96,.18-.39,.31-.78,.43-1.17,0-.02,.02-.05,.02-.07,.06,.02,.12,.05,.18,.07,.43,.17,.88,.34,1.34,.32,.49-.02,.97-.12,1.43-.23,.41-.09,.79-.18,1.17-.2,1.77-.11,3.01-1.12,3.9-2,1.24-1.21,2.08-2.88,2.51-4.95,.3-1.45,.3-2.84-.01-3.92-.34-1.18-1-2.41-2.07-3.86-1.79-2.42-4.28-3.69-7.21-3.68-2.23,.01-5.01,.03-7.19,1.97-.29,.26-.6,.52-.9,.77-.94,.79-1.92,1.61-2.61,2.64-1.22,1.83-2.53,4.04-3.01,6.62-.09,.47-.19,.94-.28,1.42-.24,1.19-.49,2.42-.61,3.65-.12,1.21-.09,2.44-.06,3.62,.01,.41,.02,.81,.02,1.22,.01,1.03,.03,2.22,.11,3.39,.09,1.31,.19,2.67,.4,3.99,.26,1.56,.62,3.11,.98,4.62,.09,.38,.25,.72,.4,1.05,.06,.14,.13,.27,.19,.41,.09,.22,.34,.32,.57,.23h0c.1-.04,.19-.09,.27-.13,.08-.04,.19-.09,.22-.1,.46-.02,.92-.03,1.39-.04,.86-.02,1.74-.03,2.61-.15Z"/><g><path class="cls-1" d="M91.12,153.09c-.15-.41-.39-.69-.7-.83-.32-.14-.7-.12-1.16,.06-.58,.23-1.16,.46-1.73,.68-.85,.33-1.7,.66-2.54,1.01-.98,.41-1.96,.82-2.93,1.24-1.15,.49-2.3,.98-3.46,1.45-.69,.28-1.41,.54-2.11,.8-.47,.17-.93,.34-1.39,.51-.19,.07-.35,.18-.52,.29-.08,.05-.17,.11-.27,.17-.13,.08-.21,.22-.21,.36,0,.15,.07,.29,.2,.37,.12,.08,.23,.16,.34,.23,.21,.15,.42,.3,.66,.39l.98,.4c1.38,.56,2.81,1.14,4.25,1.65,2.55,.9,4.68,1.11,6.72,.65,.68-.15,1.18-.47,1.46-.92,.23-.37,.29-.81,.18-1.27-.22-.93-1.01-.97-1.53-.99-.13,0-.26-.01-.39-.03-.14-.02-.29,.04-.38,.15-.09,.11-.13,.26-.09,.4l.17,.64c-1.2,.7-2.51,.89-3.82,.54-1.19-.32-2.38-.77-3.54-1.2-.54-.2-1.08-.4-1.64-.6-.35-.12-.35-.13-.34-.3,.01-.23,.08-.3,.5-.46l.33-.13c.96-.37,1.95-.75,2.92-1.16,.47-.2,.94-.43,1.4-.65,.58-.28,1.19-.58,1.79-.81,.72-.29,1.48-.54,2.21-.78,.6-.2,1.2-.4,1.8-.62,.67-.25,1.57-.3,2.06,.84,.05,.12,.1,.25,.14,.37,.04,.11,.08,.22,.12,.33,.33,.85,.67,1.7,1.01,2.55,.86,2.15,1.74,4.38,2.56,6.58,.08,.21,.18,.42,.28,.62,.27,.54,.5,1.02,.28,1.62-.3,.84-.4,.95-1.3,.76-.19-.04-.39-.08-.6-.1-.45-.03-.9-.05-1.36-.06-.91-.03-1.85-.06-2.74-.23-3.51-.64-6.4-1.25-9.1-1.93-2.03-.51-3.92-1.15-5.62-1.9-1.61-.71-3.2-1.58-4.74-2.41-.59-.32-1.18-.64-1.77-.95l-.67-.35c-.83-.43-1.69-.88-2.48-1.39-1.19-.78-2.38-1.65-3.52-2.58-1.15-.94-2.27-1.95-3.35-2.93l-.57-.51s0-.05-.01-.08c-.02-.12-.05-.27-.14-.42l-.07-.12c-.17-.28-.38-.62-.73-.77-.35-.14-.79,.04-.87,.08-.24,.11-.4,.26-.46,.44-.15,.41,.06,.99,.35,1.28,.94,.92,1.91,1.88,2.96,2.72,1.27,1.03,2.97,2.37,4.78,3.61,.96,.66,2,1.22,3,1.76,.26,.14,.53,.29,.79,.43,.43,.24,.87,.48,1.3,.72,1.52,.85,3.1,1.72,4.7,2.5,1.26,.61,2.6,1.07,3.89,1.51l.55,.19c1.46,.51,3.12,1.08,4.79,1.51,1.52,.39,3.1,.63,4.31,.79,2.63,.35,4.82,.59,6.88,.77,.86,.07,1.73,.06,2.64,.04,.42,0,.86-.02,1.31-.01,.06,0,.11-.01,.17-.03,.08-.03,.14-.08,.19-.15,.08-.12,.1-.26,.05-.4l-.2-.56c-.14-.39-.27-.75-.41-1.12l-.37-.99c-.45-1.2-.91-2.41-1.38-3.6-.19-.49-.41-.97-.62-1.46-.23-.52-.47-1.06-.67-1.59-.87-2.26-1.73-4.58-2.49-6.62Z"/><path class="cls-1" d="M97.22,170.06c-.11,.05-.23,.07-.36,.07-.46,0-.89,0-1.31,.01-.93,.02-1.8,.03-2.7-.04-2.07-.17-4.26-.42-6.9-.77-1.22-.16-2.82-.4-4.37-.8-1.69-.43-3.35-1.01-4.82-1.52l-.56-.19c-1.31-.45-2.66-.92-3.95-1.54-1.6-.77-3.17-1.65-4.69-2.49l-2.12-1.17c-1.01-.55-2.06-1.12-3.05-1.79-1.83-1.26-3.53-2.6-4.82-3.64-1.07-.87-2.05-1.83-3-2.76-.41-.4-.7-1.19-.48-1.82,.08-.22,.27-.53,.74-.74,.21-.09,.78-.29,1.28-.09,.51,.21,.79,.67,.98,.98l.07,.12c.12,.18,.16,.36,.19,.5l.44,.4c1.09,.99,2.2,1.99,3.33,2.92,1.13,.92,2.3,1.78,3.48,2.55,.76,.5,1.61,.94,2.43,1.36l.68,.35c.58,.31,1.15,.62,1.73,.93,1.58,.86,3.16,1.71,4.76,2.42,1.68,.74,3.54,1.37,5.53,1.87,2.69,.67,5.57,1.28,9.07,1.92,.84,.15,1.75,.19,2.63,.22,.49,.02,.95,.03,1.41,.06,.24,.02,.46,.06,.68,.11,.36,.08,.47,.07,.51,.06,.03-.05,.15-.37,.2-.49,.14-.37,0-.67-.26-1.21-.11-.22-.22-.45-.3-.67-.81-2.2-1.7-4.42-2.55-6.57-.34-.85-.68-1.7-1.01-2.55-.05-.12-.09-.23-.13-.35-.04-.11-.08-.23-.12-.34-.2-.46-.52-.89-1.4-.56-.57,.21-1.15,.41-1.74,.6-.81,.27-1.55,.52-2.26,.8-.6,.24-1.21,.54-1.75,.8-.51,.25-.96,.47-1.42,.66-.97,.42-1.97,.8-2.94,1.17l-.12,.04c.41,.15,.81,.3,1.21,.45,1.19,.45,2.37,.89,3.54,1.2,1.04,.28,2.1,.17,3.08-.3l-.07-.25c-.08-.31,0-.63,.2-.88,.21-.24,.52-.36,.84-.32,.11,.01,.22,.02,.33,.02,.53,.02,1.73,.08,2.04,1.39,.14,.6,.06,1.18-.25,1.67-.35,.57-.97,.96-1.79,1.15-2.14,.48-4.36,.27-7.01-.66-1.42-.5-2.84-1.08-4.2-1.63l-1.05-.43c-.29-.12-.53-.29-.76-.45-.13-.09-.22-.15-.32-.22-.28-.18-.44-.48-.44-.81,0-.33,.18-.63,.46-.8l.21-.13c.23-.15,.42-.27,.66-.37,.47-.18,.93-.35,1.4-.52,.69-.25,1.4-.51,2.09-.79,1.15-.47,2.3-.96,3.45-1.45,.98-.42,1.96-.83,2.94-1.24,.69-.29,1.4-.57,2.1-.84l.45-.18c.58-.23,1.16-.45,1.73-.68,.59-.24,1.11-.25,1.57-.05,.44,.2,.77,.57,.97,1.13v.02c.76,2.04,1.62,4.35,2.48,6.6,.2,.53,.44,1.06,.67,1.57,.22,.49,.43,.98,.63,1.48,.48,1.2,.93,2.4,1.38,3.61l.37,.99c.14,.36,.27,.73,.41,1.12l.2,.57c.11,.29,.06,.62-.12,.87-.1,.14-.24,.26-.42,.33Zm-.36-.97h0Z"/></g><g><path class="cls-1" d="M58.08,145.57c.44-.18,.9-.38,1.37-.6,1.15-.54,2.3-1.06,3.46-1.59l.45-.21c.48-.22,.97-.44,1.45-.65,.93-.42,1.87-.84,2.79-1.27,.48-.23,.95-.5,1.4-.76,.2-.12,.4-.23,.61-.35,.2-.11,.28-.36,.18-.57l-.07-.14c-.09-.19-.3-.28-.51-.23l-.12,.03c-.13,.03-.26,.06-.37,.11-.54,.24-1.07,.47-1.61,.71-.83,.37-1.66,.74-2.5,1.1-3.47,1.5-6.89,2.91-10.54,3.73-.71,.16-1.54,.16-2.63,.01-.28-.04-.4-.23-.45-.35-.08-.19-.06-.41,.04-.55,.15-.2,.22-.43,.29-.63,.03-.07,.05-.15,.08-.22,.05-.12,.04-.26-.02-.37-.06-.11-.17-.2-.3-.22-.08-.02-.17-.04-.25-.06-.24-.06-.48-.11-.75-.11-.32,0-.59,.2-.8,.35-.66,.47-.9,1.18-.73,2.1,.19,1.01,.81,1.72,1.69,1.94,.95,.24,1.8,.32,2.55,.23,1.7-.2,3.41-.67,5.29-1.45Z"/><path class="cls-1" d="M58.28,146.05c-1.91,.79-3.69,1.27-5.43,1.48-.81,.1-1.73,.02-2.74-.24-1.08-.28-1.84-1.13-2.07-2.35-.27-1.42,.36-2.21,.94-2.62,.25-.18,.62-.44,1.1-.44,.33,0,.62,.06,.87,.12,.08,.02,.15,.04,.23,.05,.28,.05,.53,.23,.66,.48,.14,.25,.15,.55,.04,.82l-.06,.16c-.09,.26-.19,.53-.38,.8,1.08,.22,1.86,.22,2.5,.08,3.61-.81,7-2.21,10.45-3.7,.77-.33,1.53-.67,2.29-1.01l1.82-.81c.14-.06,.3-.11,.46-.14l.12-.03c.43-.12,.9,.09,1.1,.51l.07,.15c.22,.46,.05,1.01-.4,1.25-.2,.11-.39,.22-.59,.33-.47,.27-.95,.55-1.45,.78-.93,.44-1.86,.86-2.8,1.28l-2.12,.96c-1.08,.49-2.16,.98-3.24,1.49-.47,.22-.94,.43-1.39,.61Zm-8.34-3.09c-.12,.05-.24,.13-.34,.21-.32,.23-.71,.63-.53,1.58,.16,.82,.62,1.36,1.3,1.54,.88,.22,1.68,.3,2.36,.21,2.04-.25,4.12-.9,6.5-2,1.08-.51,2.17-1,3.25-1.49l2.12-.96c.93-.42,1.86-.83,2.78-1.27,.47-.22,.93-.48,1.36-.74,.19-.11,.37-.21,.54-.31h0s-.07,0-.07,0c-.1,.02-.21,.05-.29,.09l-1.81,.81c-.76,.34-1.53,.68-2.3,1.01-3.49,1.51-6.93,2.93-10.63,3.76-.77,.17-1.66,.18-2.82,.02-.39-.05-.7-.29-.85-.66-.15-.36-.11-.77,.1-1.06,.1-.14,.16-.32,.22-.49,.02-.06,.04-.11,.05-.15-.06-.01-.12-.03-.17-.04-.21-.05-.42-.1-.62-.1-.05,0-.1,.01-.16,.04Zm19.41-3.25h0s0,0,0,0Z"/></g><g><g><path class="cls-1" d="M141.48,151.03c-.41-.1-.81,.14-1.02,.36-.52,.54-1.2,.78-1.92,1.03-.22,.08-.43,.15-.65,.24-3.51,1.38-7.02,2.78-10.53,4.18-1.08,.43-2.16,.88-3.24,1.32-.79,.33-1.58,.65-2.38,.98-4,1.62-8,3.25-12,4.86-.43,.17-.87,.32-1.31,.47-.39,.13-.77,.26-1.15,.41-.46,.18-.77,.4-.94,.67-.11,.18-.1,.42,.02,.72,.09,.22,.26,.5,.54,.57,.42,.1,.87-.04,1.18-.17,.2-.09,.34-.22,.46-.34,.07-.07,.16-.15,.21-.17l.77-.32c3.91-1.62,7.95-3.29,11.94-4.88l.26-.11c.62-.26,1.15-.48,1.82-.22,.32,.12,.78,.26,1.19,.09,.02,0,.05-.02,.07-.03,.44-.22,.65-.7,.82-1.33,0-.02,.05-.06,.14-.11,.39-.21,.76-.41,1.14-.56,1.65-.64,3.3-1.27,4.95-1.9,1.55-.59,3.11-1.19,4.66-1.79,.49-.19,.97-.39,1.46-.59,.43-.18,.85-.36,1.28-.53,.48-.19,.97-.36,1.45-.53l.44-.16,.11,.09c.12,.09,.28,.11,.42,.05h0c.14-.06,.24-.18,.26-.33,.02-.11,.05-.21,.07-.32,.08-.31,.17-.66,.06-1.01-.14-.44-.44-.58-.61-.62Z"/><path class="cls-1" d="M121.74,160.26c.57-.23,1.21-.44,1.99-.14,.23,.09,.56,.2,.81,.09,.26-.13,.42-.42,.59-1.02,.01-.04,.03-.08,.04-.11,.07-.12,.18-.22,.35-.32,.36-.2,.78-.43,1.2-.59,1.65-.64,3.3-1.27,4.95-1.9l4.66-1.79c.46-.18,.91-.36,1.36-.55l.2-.09c.39-.16,.78-.33,1.18-.48,.49-.19,.98-.37,1.47-.54l.44-.16c.16-.06,.35-.03,.49,.07h0c.01-.07,.03-.14,.05-.21,.07-.28,.14-.54,.08-.75-.05-.15-.12-.24-.23-.26h0c-.17-.04-.4,.08-.53,.22-.61,.63-1.38,.9-2.12,1.16-.21,.07-.42,.15-.63,.23-3.51,1.38-7.02,2.78-10.52,4.18-1.08,.43-2.16,.87-3.23,1.32-.79,.33-1.58,.65-2.38,.98-4,1.63-8,3.25-12,4.86-.41,.16-.83,.31-1.25,.45,0,0-.16,.05-.16,.05-.36,.12-.72,.24-1.07,.38-.34,.12-.58,.29-.68,.46,0,0-.01,.08,.05,.25,.08,.2,.17,.26,.18,.27,.21,.05,.52,.01,.85-.15,.11-.05,.2-.14,.3-.24,.12-.12,.23-.23,.38-.29l.77-.32c3.9-1.61,7.93-3.29,11.94-4.89l.26-.11c.07-.03,.14-.06,.21-.09Zm19.84-7.42h0Z"/></g><path class="cls-1" d="M121.9,159.92c.57-.21,1.2-.31,1.92-.03,.36,.14,.53,.13,.61,.09,.16-.08,.29-.32,.43-.85,.01-.05,.06-.15,.08-.19,.08-.15,.23-.28,.44-.4,.15-.08,.3-.16,.44-.24-.47,.19-.94,.39-1.41,.58l-2.38,.98s-.09,.04-.14,.06Zm16.44-6.53c.21-.09,.42-.17,.63-.25,.49-.19,.98-.37,1.48-.54l.44-.16c.13-.05,.27-.06,.4-.03,.05-.2,.1-.41,.06-.53-.08-.1-.22-.05-.33,.06-.64,.67-1.44,.95-2.22,1.22-.21,.08-.42,.15-.63,.23-3.03,1.19-6.07,2.4-9.1,3.61,.6-.23,1.2-.46,1.8-.69l.69-.27c1.55-.59,3.11-1.19,4.66-1.79,.43-.16,.85-.34,1.27-.52l.16-.07c.22-.09,.44-.19,.67-.28Zm-31.28,12.5s.01,.04,.03,.07c.04,.1,.08,.14,.09,.15,.08,0,.33-.05,.59-.17,.07-.03,.16-.11,.24-.19,.15-.14,.28-.26,.45-.33l.76-.32c1.69-.7,3.48-1.44,5.33-2.2-1.5,.61-3.01,1.21-4.51,1.82-.45,.18-.9,.33-1.36,.49-.38,.13-.75,.25-1.12,.4-.3,.11-.44,.22-.51,.29Z"/></g><g><path class="cls-1" d="M126.9,163.14c-.09-.18-.21-.36-.32-.53l-.13-.2c-.12-.18-.36-.25-.55-.16l-.19,.09c-.19,.09-.3,.31-.24,.51l.1,.34c.07,.23,.14,.46,.19,.7,.07,.3,.12,.6,.18,.91,.11,.57,.22,1.16,.38,1.73,.11,.4,.47,.68,.75,.9l.06,.04c.17,.14,.41,.14,.71,.02,.09-.06,.39-.16,.42-.46l-.43-.05h.44c.04-.34,.09-.77-.07-1.15-.33-.77-.72-1.53-1.09-2.26l-.22-.43Z"/><path class="cls-1" d="M125.99,162.78l.08,.27c.07,.24,.15,.49,.2,.74,.06,.29,.12,.57,.17,.86,.12,.63,.23,1.2,.39,1.74,.06,.21,.28,.4,.49,.57h0c.02-.27,.22-.47,.47-.49,0-.15-.02-.3-.07-.42-.33-.76-.71-1.51-1.08-2.24l-.22-.43h0c-.08-.17-.19-.32-.29-.47l-.1-.15-.06,.03Zm.13-.06h0s0,0,0,0Zm-.11-.03s0,0,0,0h0Z"/></g><g><path class="cls-1" d="M132.34,160.5c-.35-.08-.71-.11-1.05-.15-.2-.02-.41-.04-.61-.07-.39-.06-.78-.13-1.17-.2l-.52-.09c-.22-.04-.43,.1-.49,.31l-.07,.25c-.06,.21,.05,.43,.25,.52,.29,.12,.58,.25,.87,.38,.78,.34,1.59,.7,2.41,1.01,.39,.15,.82,.04,1.24-.08,.02,0,.03-.01,.05-.02,.25-.1,.31-.39,.33-.49,.05-.25,.07-.59-.16-.78-.37-.32-.73-.52-1.08-.6Z"/><path class="cls-1" d="M128.95,160.63l.8,.35c.81,.35,1.59,.7,2.39,1,.24,.09,.58,0,.9-.09-.02,0,0-.03,.02-.11,.04-.18,.02-.27,0-.29-.3-.25-.59-.42-.85-.48-.32-.08-.65-.1-.98-.13-.23-.02-.43-.04-.64-.07-.4-.06-.79-.13-1.19-.2l-.43-.08-.03,.11Zm-.07-.03h0Z"/></g><g><path class="cls-1" d="M122.37,161.99c-.21-.09-.45,0-.55,.2l-1.95,3.81c-.06,.11-.06,.24-.02,.36,.05,.12,.14,.21,.26,.25,.06,.02,.12,.05,.19,.08,.2,.09,.45,.2,.73,.19,.08,0,.15-.02,.23-.05,.29-.12,.54-.42,.62-.68h0c.26-.88,.5-1.77,.74-2.66l.24-.88c.06-.21-.05-.43-.25-.52l-.23-.1Z"/><path class="cls-1" d="M122.35,162.46h0s0,0,0,0Z"/></g></g><g><g><polygon class="cls-1" points="80.65 150.5 77.31 142.39 75.87 142.98 75.24 148.58 70.86 145.05 69.42 145.64 72.76 153.75 74.28 153.13 72.29 148.29 76.53 151.69 77.14 146.29 79.13 151.13 80.65 150.5"/><path class="cls-1" d="M79.27,150.79l1.04-.43-3.14-7.63-1.05,.43-.61,5.45c-.02,.19-.27,.29-.42,.17l-4.27-3.44-1.05,.43,3.14,7.63,1.04-.43-1.89-4.6c-.05-.11-.01-.24,.08-.31,.1-.07,.23-.07,.32,0l3.87,3.1,.56-4.93c.01-.12,.11-.21,.22-.23,.12-.02,.23,.05,.28,.16l1.89,4.6Z"/></g><path class="cls-1" d="M93.22,142.36l2.15,2.08,1.7-.7-6.95-6.62-1.5,.62-.31,9.28v.34s1.65-.68,1.65-.68l.1-3.01,3.17-1.31Zm-1.31-1.24l-1.79,.74,.08-2.35,1.71,1.61Z"/><polygon class="cls-1" points="100.69 132.51 104.04 140.62 105.55 140 104.66 137.82 105.65 135.23 109.51 138.25 109.61 138.33 111.37 137.6 106.26 133.64 107.8 129.58 105.7 130.45 103.75 135.61 102.21 131.88 100.69 132.51"/><polygon class="cls-1" points="124.52 124.48 123.9 122.96 117.18 125.72 120.52 133.84 127.43 130.99 126.81 129.47 121.42 131.69 120.62 129.75 123.23 128.67 122.61 127.15 119.99 128.23 119.33 126.62 124.52 124.48"/><path class="cls-1" d="M141.07,121.75c.65-.47,1.33-1.5,.67-3.09-.73-1.77-2.4-1.82-3.61-1.32l-4.74,1.95,3.34,8.11,1.52-.63-1.32-3.21,2.53-1.04,2.76,2.48,.1,.09,1.72-.71-2.97-2.64Zm-5.53-1.57l3.22-1.33c1.1-.45,1.37,.21,1.46,.43,.33,.81-.2,1.22-.7,1.43l-3.22,1.33-.77-1.86Z"/><path class="cls-1" d="M154.22,118.61c-1.48,.61-2.47,.34-3.12,.16-.13-.04-.25-.07-.36-.09l-.18-.04-.64,1.44,.29,.12c.73,.3,2.24,.91,4.55-.04,1.91-.79,3.51-2.39,2.76-4.2-.7-1.7-2.31-2.05-4.78-1.03l-1.02,.42c-.98,.41-1.26,.09-1.39-.22-.32-.78,.75-1.55,1.55-1.88,1.08-.45,1.74-.34,2.43-.23l.49,.07,.3-1.35,.04-.21-.21-.05c-1.28-.32-2.53-.23-3.72,.26-1.68,.69-3.1,2.33-2.41,4.01,.62,1.5,2.19,1.65,3.38,1.15l1.15-.47c1.16-.48,2.24-.83,2.64,.15,.33,.81-.92,1.68-1.79,2.04Z"/></g></svg>