<?xml version="1.0" encoding="UTF-8"?><svg id="Layer_1" xmlns="http://www.w3.org/2000/svg" viewBox="0 0 17.73 17.63"><defs><style>.cls-1{fill:#cb753a;}</style></defs><path class="cls-1" d="m9.93,14.52c0-.99,0-1.97,0-2.96,0-.11.03-.15.15-.15.61,0,1.23,0,1.84,0,.1,0,.14-.03.15-.13.09-.72.18-1.45.28-2.17.02-.13,0-.17-.14-.17-.71,0-1.41,0-2.12,0-.11,0-.15-.02-.15-.15.01-.55-.02-1.11.02-1.66.03-.57.3-.86.87-.93.45-.06.9-.02,1.35-.02.28,0,.28,0,.28-.29,0-.6,0-1.2,0-1.8,0-.08-.01-.13-.11-.14-.74-.05-1.49-.13-2.23-.06-1.04.1-1.86.56-2.36,1.51-.28.54-.37,1.12-.37,1.72,0,.55,0,1.11,0,1.66,0,.12-.03.15-.15.15-.61,0-1.22,0-1.83,0-.11,0-.15.03-.15.15,0,.72,0,1.44,0,2.16,0,.14.05.16.17.16.6,0,1.21,0,1.81,0,.12,0,.15.03.15.15,0,1.95,0,3.91,0,5.86q0,.17-.16.14c-1.48-.28-2.81-.9-3.98-1.86-1.51-1.25-2.54-2.82-2.98-4.73-.7-3.03-.04-5.77,2.06-8.08C4.37.66,6.95-.27,9.95.07c3.44.4,6.31,2.8,7.34,6.09.75,2.38.54,4.7-.65,6.9-1.19,2.19-3.01,3.62-5.41,4.32-.38.11-.77.18-1.16.24-.12.02-.14-.02-.14-.12,0-1,0-1.99,0-2.99Z"/></svg>