<?xml version="1.0" encoding="UTF-8"?><svg id="Layer_1" xmlns="http://www.w3.org/2000/svg" viewBox="0 0 17.71 17.71"><defs><style>.cls-1{fill:#ccc2ba;}</style></defs><path class="cls-1" d="m8.85,17.71C3.96,17.71,0,13.74,0,8.86,0,3.99,3.96,0,8.8,0c4.94,0,8.9,3.94,8.91,8.85,0,4.89-3.96,8.85-8.86,8.85ZM3.72,8.82c0,.73,0,1.45,0,2.18.01,1.69,1.32,2.98,3,2.99,1.42,0,2.85,0,4.27,0,1.67,0,2.99-1.31,2.99-2.98,0-1.42,0-2.85,0-4.27,0-1.7-1.31-3.01-3.01-3.01-1.42,0-2.84,0-4.26,0-.17,0-.33.01-.5.04-1.46.24-2.48,1.45-2.5,2.94,0,.71,0,1.41,0,2.12Z"/><path class="cls-1" d="m4.68,8.88c0-.72,0-1.43,0-2.15,0-1.19.85-2.03,2.03-2.03,1.44,0,2.87,0,4.31,0,1.14,0,2,.84,2.01,1.97.01,1.47.01,2.94,0,4.41,0,1.14-.87,1.97-2,1.98-1.45,0-2.89,0-4.34,0-1.16,0-2.01-.86-2.01-2.01,0-.72,0-1.44,0-2.16Zm4.17-2.67c-1.47,0-2.66,1.19-2.66,2.67,0,1.47,1.19,2.66,2.66,2.66,1.47,0,2.66-1.19,2.66-2.65,0-1.48-1.19-2.68-2.67-2.67Zm2.77-.71c-.26,0-.48.2-.48.46,0,.26.21.48.47.48.26,0,.47-.21.47-.47,0-.26-.2-.47-.46-.47Z"/><path class="cls-1" d="m8.87,10.6c-.94.02-1.73-.75-1.74-1.71-.01-.94.75-1.72,1.7-1.73.94-.02,1.73.74,1.75,1.7.02.94-.75,1.72-1.7,1.74Z"/></svg>